<svg xmlns="http://www.w3.org/2000/svg" width="314" height="130" x="0px" y="0px" viewBox="0 0 62 80.6">
    <g transform="translate(-75, 18.6)">
        <g id="Layer_2">
            <rect width="62" height="62" x="0" y="0" class="background-color"/>
        </g>
        <g id="Layer_1">
            <clipPath id="clipper">
                <path d="
                       M23.9,9.4
                       v0.1
                       c-0.1,0-0.2,0.1-0.2,0.2
                       v1.6
                       c0,0.1,0.1,0.2,0.2,0.2
                       h1.6
                       c0.3,0,0.5,0.2,0.5,0.5
                       v11.4
                       c0,0.2-0.1,0.4-0.4,0.5
                       c-7.7,2.4-12.8,9.4-12.8,17.4
                       c0,10.1,8.2,18.2,18.2,18.2
                       c10.1,0,18.2-8.2,18.2-18.2
                       c0-8-5.2-15.1-12.8-17.4
                       c-0.2-0.1-0.4-0.3-0.4-0.5
                       V11.9
                       c0-0.3,0.2-0.5,0.5-0.5
                       h1.6
                       c0.1,0,0.2-0.1,0.2-0.2
                       v-100
                       v-1.7
                       " class="inner-border"/>
            </clipPath>
            <g clip-path="url(#clipper)">
                <g class="sources" transform="translate(13, 60)">
                    <g class="left-color left-source" transform="translate(5,0)">
                         <circle class="bubble moving-bubble" r="0.9506888230431273"
                              transform="translate(16.660612106323242, -88.7720718383789)" t="0.8726013657102585"
                              timeToMove="17792.986124196308"
                              points="[[3.660611712888703,0],[3.660611712888703,-20],[5.660611712888702,-22],[10.660611712888702,-28],[11.660611712888702,-30],[12,-35],[12,-50],[16.660611712888702,-90]]">
                         </circle>
                         <circle class="bubble moving-bubble" r="0.5915592237693655"
                              transform="translate(10.484223365783691, -88.37701416015625)" t="0.7761337750028207"
                              timeToMove="17924.18367271394"
                              points="[[-2.515776609661813,0],[-2.515776609661813,-20],[-0.5157766096618133,-22],[4.484223390338187,-28],[5.484223390338187,-30],[12,-35],[12,-50],[10.484223390338187,-90]]">
                         </circle>
                         <circle class="bubble moving-bubble" r="1.4804480883723445"
                              transform="translate(16.22180938720703, -89.3399429321289)" t="0.7251540451047516"
                              timeToMove="17684.293540866875"
                              points="[[3.2218098570788527,0],[3.2218098570788527,-20],[5.221809857078853,-22],[10.221809857078853,-28],[11.221809857078853,-30],[12,-35],[12,-50],[16.221809857078853,-90]]">
                         </circle>
                         <circle class="bubble moving-bubble" r="1.0208785186948373"
                              transform="translate(16.446697235107422, -92.23372650146484)" t="0.6535886704121598"
                              timeToMove="17981.768808393073"
                              points="[[3.4466976602218926,0],[3.4466976602218926,-20],[5.4466976602218935,-22],[10.446697660221893,-28],[11.446697660221893,-30],[12,-35],[12,-50],[16.446697660221893,-90]]">
                         </circle>
                         <circle class="bubble moving-bubble" r="1.2080115086542895"
                              transform="translate(16.161449432373047, -95.69895935058594)" t="0.6735224724732091"
                              timeToMove="17365.063554147764"
                              points="[[3.1614502467855417,0],[3.1614502467855417,-20],[5.161450246785542,-22],[10.161450246785542,-28],[11.161450246785542,-30],[12,-35],[12,-50],[16.16145024678554,-90]]">
                         </circle>
                         <circle class="bubble moving-bubble" r="0.7591858993500867"
                              transform="translate(12.941093444824219, -94.07759857177734)" t="0.584313175905021"
                              timeToMove="18381.515952366844"
                              points="[[-0.058906108791303424,0],[-0.058906108791303424,-20],[1.9410938912086966,-22],[6.941093891208697,-28],[7.941093891208697,-30],[12,-35],[12,-50],[12.941093891208697,-90]]">
                         </circle>
                         <circle class="bubble moving-bubble" r="1.4242662818868825"
                              transform="translate(10.496066093444824, -96.09712219238281)" t="0.6412434810544778"
                              timeToMove="17602.517794653595"
                              points="[[-2.5039341310723016,0],[-2.5039341310723016,-20],[-0.5039341310723024,-22],[4.4960658689276976,-28],[5.4960658689276976,-30],[12,-35],[12,-50],[10.496065868927698,-90]]">
                         </circle>
                         <circle class="bubble moving-bubble" r="0.7191238190875652"
                              transform="translate(10.505316734313965, -96.11644744873047)" t="0.9999987293248052"
                              timeToMove="8755.093222373565"
                              points="[[-2.49468283860528,0],[-2.49468283860528,-20],[-0.4946828386052804,-22],[4.50531716139472,-28],[5.50531716139472,-30],[12,-35],[12,-50],[10.50531716139472,-90]]">
                         </circle>
                         <circle class="bubble moving-bubble" r="1.0119124253481273"
                              transform="translate(11.734909057617188, -91.120849609375)" t="0.999972238527552" timeToMove="8864.442801477171"
                              points="[[-1.2650904643814465,0],[-1.2650904643814465,-20],[0.734909535618554,-22],[5.734909535618554,-28],[6.734909535618554,-30],[12,-35],[12,-50],[11.734909535618554,-90]]">
                         </circle>
                         <circle class="bubble moving-bubble" r="1.0467754573381693"
                              transform="translate(11.438512802124023, -90.54261016845703)" t="0.8257852816753413"
                              timeToMove="11874.514654335824"
                              points="[[-1.5614871012422915,0],[-1.5614871012422915,-20],[0.4385128987577076,-22],[5.438512898757708,-28],[6.438512898757708,-30],[12,-35],[12,-50],[11.438512898757708,-90]]">
                         </circle>
                         <circle class="bubble moving-bubble" r="1.0889979634215763"
                              transform="translate(4.090611934661865, -28.50217056274414)" t="0.27156703579965913"
                              timeToMove="16416.15218706233"
                              points="[[-2.909388173319447,0],[-2.909388173319447,-20],[-0.9093881733194475,-22],[4.0906118266805525,-28],[5.0906118266805525,-30],[12,-35],[12,-50],[10.090611826680552,-90]]">
                         </circle>
                         <circle class="bubble moving-bubble" r="0.6430480225713824"
                              transform="translate(1.3273773193359375, -24.743141174316406)" t="0.14116135493468668"
                              timeToMove="17366.25017919803"
                              points="[[1.3273772398595307,0],[1.3273772398595307,-20],[3.32737723985953,-22],[8.32737723985953,-28],[9.32737723985953,-30],[12,-35],[12,-50],[14.32737723985953,-90]]">
                         </circle>
                         <circle class="bubble moving-bubble" r="0.6166060703812728"
                              transform="translate(-0.9192417860031128, -27.398895263671875)" t="0.06683723380643918"
                              timeToMove="18371.891219209552"
                              points="[[-0.9192418232401289,0],[-0.9192418232401289,-20],[1.080758176759872,-22],[6.080758176759872,-28],[7.080758176759872,-30],[12,-35],[12,-50],[12.080758176759872,-90]]">
                         </circle>
                         <circle class="bubble moving-bubble" r="0.685339136223357"
                              transform="translate(0.3304199278354645, -26.853845596313477)" t="0.029844061353772957"
                              timeToMove="18914.847465978095"
                              points="[[0.3304199012681135,0],[0.3304199012681135,-20],[2.3304199012681135,-22],[7.3304199012681135,-28],[8.330419901268113,-30],[12,-35],[12,-50],[13.330419901268113,-90]]">
                         </circle>
                         <circle class="bubble moving-bubble" r="0.6551145466825887"
                              transform="translate(-0.12052417546510696, -18.796998977661133)" t="0.012768365844304127"
                              timeToMove="18315.602733719857"
                              points="[[-0.12052417674588156,0],[-0.12052417674588156,-20],[1.8794758232541184,-22],[6.879475823254118,-28],[7.879475823254118,-30],[12,-35],[12,-50],[12.879475823254118,-90]]">
                         </circle>
                         <circle class="bubble moving-bubble" r="1.6110846715923877"
                              transform="translate(-1.8119869232177734, -20.30089569091797)" t="0.0029130484322971734"
                              timeToMove="18857.753627191825"
                              points="[[-1.8119869993868665,0],[-1.8119869993868665,-20],[0.1880130006131342,-22],[5.188013000613134,-28],[6.188013000613134,-30],[12,-35],[12,-50],[11.188013000613134,-90]]">
                         </circle>
                         <circle class="bubble moving-bubble" r="0.6276024095251"
                              transform="translate(4.248795032501221, -21.888639450073242)" t="0.00025417005550676446"
                              timeToMove="17458.57376204038"
                              points="[[4.24879514060396,0],[4.24879514060396,-20],[6.24879514060396,-22],[11.24879514060396,-28],[12.24879514060396,-30],[12,-35],[12,-50],[17.24879514060396,-90]]">
                         </circle>
                    </g>
                    <g class=" mid-color mid-source" transform="translate(18,0)">
                         <circle class="bubble moving-bubble" r="1.761968014054152"
                              transform="translate(0.2412300705909729, -88.56123352050781)" t="0.9999584288418499"
                              timeToMove="18942.10234627466"
                              points="[[0.4824601242547111,0],[0.4824601242547111,-20],[0.24123006212735554,-50],[0.24123006212735554,-90]]">
                         </circle>
                         <circle class="bubble moving-bubble" r="0.874715091077985"
                              transform="translate(-1.9825718402862549, -92.98509979248047)" t="0.8919971946949844"
                              timeToMove="17521.679259181692"
                              points="[[-3.965143859145903,0],[-3.965143859145903,-20],[-1.9825719295729516,-50],[-1.9825719295729516,-90]]">
                         </circle>
                         <circle class="bubble moving-bubble" r="1.2703838093497568"
                              transform="translate(1.4271074533462524, -93.66970825195312)" t="0.7065095578855624"
                              timeToMove="18767.11312714567"
                              points="[[2.854214992498349,0],[2.854214992498349,-20],[1.4271074962491745,-50],[1.4271074962491745,-90]]">
                         </circle>
                         <circle class="bubble moving-bubble" r="1.8998369130142287"
                              transform="translate(-1.4434341192245483, -90.92552185058594)" t="0.6263842494573767"
                              timeToMove="18902.76195865531"
                              points="[[-2.8868681822221993,0],[-2.8868681822221993,-20],[-1.4434340911110997,-50],[-1.4434340911110997,-90]]">
                         </circle>
                         <circle class="bubble moving-bubble" r="1.2554563389405118"
                              transform="translate(1.4689207077026367, -95.76789855957031)" t="0.583276744965108"
                              timeToMove="18870.05794505758"
                              points="[[2.9378413886330748,0],[2.9378413886330748,-20],[1.4689206943165374,-50],[1.4689206943165374,-90]]">
                         </circle>
                         <circle class="bubble moving-bubble" r="0.5497426321936195"
                              transform="translate(-1.128413438796997, -93.94091033935547)" t="0.5600841665819374"
                              timeToMove="18837.305223016632"
                              points="[[-2.2568269027654786,0],[-2.2568269027654786,-20],[-1.1284134513827393,-50],[-1.1284134513827393,-90]]">
                         </circle>
                         <circle class="bubble moving-bubble" r="1.8583497098747204"
                              transform="translate(-1.370064377784729, -89.2398452758789)" t="0.5452108666769381"
                              timeToMove="18889.344736814077"
                              points="[[-2.7401287161621513,0],[-2.7401287161621513,-20],[-1.3700643580810756,-50],[-1.3700643580810756,-90]]">
                         </circle>
                         <circle class="bubble moving-bubble" r="1.0172141293283299"
                              transform="translate(1.700293779373169, -92.91000366210938)" t="0.6320737211845482"
                              timeToMove="17723.85405560824"
                              points="[[3.400587836912257,0],[3.400587836912257,-20],[1.7002939184561285,-50],[1.7002939184561285,-90]]">
                         </circle>
                         <circle class="bubble moving-bubble" r="0.9562413724337716"
                              transform="translate(-1.0591927766799927, -96.95467376708984)" t="0.8449808398589971"
                              timeToMove="11633.500178399192"
                              points="[[-2.1183855276917885,0],[-2.1183855276917885,-20],[-1.0591927638458942,-50],[-1.0591927638458942,-90]]">
                         </circle>
                         <circle class="bubble moving-bubble" r="0.7801185570531143"
                              transform="translate(1.8126721382141113, -56.01469421386719)" t="0.24884152601371565"
                              timeToMove="16901.403427476314"
                              points="[[3.625344365239819,0],[3.625344365239819,-20],[1.8126721826199095,-50],[1.8126721826199095,-90]]">
                         </circle>
                         <circle class="bubble moving-bubble" r="0.7139087921999149"
                              transform="translate(-2.8534886837005615, -24.333784103393555)" t="0.121898856454511"
                              timeToMove="18236.63819974378"
                              points="[[-2.8534886400304615,0],[-2.8534886400304615,-20],[-1.4267443200152308,-50],[-1.4267443200152308,-90]]">
                         </circle>
                         <circle class="bubble moving-bubble" r="1.905475942559221"
                              transform="translate(-1.8189687728881836, -27.470964431762695)" t="0.06539591855175186"
                              timeToMove="18505.88275466713"
                              points="[[-1.8189687108697878,0],[-1.8189687108697878,-20],[-0.9094843554348939,-50],[-0.9094843554348939,-90]]">
                         </circle>
                         <circle class="bubble moving-bubble" r="0.8079437533525278"
                              transform="translate(1.7216627597808838, -25.020814895629883)" t="0.03701495082507662"
                              timeToMove="17604.745825713755"
                              points="[[1.7216627929254198,0],[1.7216627929254198,-20],[0.8608313964627099,-50],[0.8608313964627099,-90]]">
                         </circle>
                         <circle class="bubble moving-bubble" r="1.3504473457600934"
                              transform="translate(2.779364585876465, -24.324155807495117)" t="0.01313194361916684"
                              timeToMove="18144.986574118033"
                              points="[[2.7793645784547323,0],[2.7793645784547323,-20],[1.3896822892273661,-50],[1.3896822892273661,-90]]">
                         </circle>
                         <circle class="bubble moving-bubble" r="1.8987133804254226"
                              transform="translate(1.223783016204834, -26.21277618408203)" t="0.003691734649262532"
                              timeToMove="17425.919360852862"
                              points="[[1.2237830281134237,0],[1.2237830281134237,-20],[0.6118915140567118,-50],[0.6118915140567118,-90]]">
                         </circle>
                         <circle class="bubble moving-bubble" r="0.5960314385955067"
                              transform="translate(-2.356008529663086, -19.899612426757812)" t="0.00021106245312237592"
                              timeToMove="18574.333096212547"
                              points="[[-2.356008384885935,0],[-2.356008384885935,-20],[-1.1780041924429674,-50],[-1.1780041924429674,-90]]">
                         </circle>
                    </g>
                    <g class=" right-color right-source" transform="translate(31,0)">
                         <circle class="bubble moving-bubble" r="1.188746066671687"
                              transform="translate(-9.976751327514648, -93.16182708740234)" t="0.8286119064995381"
                              timeToMove="18366.454646689086"
                              points="[[3.0232481781258755,0],[3.0232481781258755,-20],[1.0232481781258755,-25],[-3.9767518218741245,-30],[-12,-36],[-12,-50],[-9.976751821874124,-90]]">
                         </circle>
                         <circle class="bubble moving-bubble" r="1.6123702984592392"
                              transform="translate(-16.02014923095703, -94.82250213623047)" t="0.7625906649150641"
                              timeToMove="18091.280941706973"
                              points="[[-3.020148960495599,0],[-3.020148960495599,-20],[-5.0201489604956,-25],[-10.0201489604956,-30],[-12,-36],[-12,-50],[-16.0201489604956,-90]]">
                         </circle>
                         <circle class="bubble moving-bubble" r="0.8125511582607835"
                              transform="translate(-10.694157600402832, -88.55549621582031)" t="0.7509319074888157"
                              timeToMove="17356.986436883704"
                              points="[[2.3058420320346436,0],[2.3058420320346436,-20],[0.30584203203464355,-25],[-4.6941579679653564,-30],[-12,-36],[-12,-50],[-10.694157967965356,-90]]">
                         </circle>
                         <circle class="bubble moving-bubble" r="0.7580503505087742"
                              transform="translate(-16.42719078063965, -97.77877807617188)" t="0.7253524726816866"
                              timeToMove="17053.693296935387"
                              points="[[-3.42719087800069,0],[-3.42719087800069,-20],[-5.42719087800069,-25],[-10.42719087800069,-30],[-12,-36],[-12,-50],[-16.42719087800069,-90]]">
                         </circle>
                         <circle class="bubble moving-bubble" r="0.8803724520828546"
                              transform="translate(-16.90362548828125, -90.81922912597656)" t="0.5989261706410642"
                              timeToMove="18337.537042621265"
                              points="[[-3.9036253474650073,0],[-3.9036253474650073,-20],[-5.903625347465006,-25],[-10.903625347465006,-30],[-12,-36],[-12,-50],[-16.903625347465006,-90]]">
                         </circle>
                         <circle class="bubble moving-bubble" r="1.676413119391491"
                              transform="translate(-15.193349838256836, -88.80723571777344)" t="0.6617599846479836"
                              timeToMove="17363.04997868629"
                              points="[[-2.1933503164174395,0],[-2.1933503164174395,-20],[-4.19335031641744,-25],[-9.19335031641744,-30],[-12,-36],[-12,-50],[-15.19335031641744,-90]]">
                         </circle>
                         <circle class="bubble moving-bubble" r="1.2122196249184318"
                              transform="translate(-15.896714210510254, -93.24445343017578)" t="0.6836347298019031"
                              timeToMove="17035.852738436763"
                              points="[[-2.8967141315947553,0],[-2.8967141315947553,-20],[-4.896714131594756,-25],[-9.896714131594756,-30],[-12,-36],[-12,-50],[-15.896714131594756,-90]]">
                         </circle>
                         <circle class="bubble moving-bubble" r="0.5755113504310091"
                              transform="translate(-9.524972915649414, -96.62948608398438)" t="0.7464739988768063"
                              timeToMove="12800.12183123025"
                              points="[[3.4750265115949794,0],[3.4750265115949794,-20],[1.4750265115949794,-25],[-3.5249734884050206,-30],[-12,-36],[-12,-50],[-9.52497348840502,-90]]">
                         </circle>
                         <circle class="bubble moving-bubble" r="1.7660924138461085" transform="translate(-12, -37.582115173339844)"
                              t="0.35477392276349295" timeToMove="15016.883915544982"
                              points="[[1.1125275076165781,0],[1.1125275076165781,-20],[-0.8874724923834219,-25],[-5.887472492383422,-30],[-12,-36],[-12,-50],[-11.887472492383422,-90]]">
                         </circle>
                         <circle class="bubble moving-bubble" r="1.8171908765523832"
                              transform="translate(-2.5182931423187256, -27.09987449645996)" t="0.1304642172938995"
                              timeToMove="17828.47466670875"
                              points="[[-2.5182931088602287,0],[-2.5182931088602287,-20],[-4.518293108860229,-25],[-9.51829310886023,-30],[-12,-36],[-12,-50],[-15.51829310886023,-90]]">
                         </circle>
                         <circle class="bubble moving-bubble" r="1.1472838321630308"
                              transform="translate(-1.567161202430725, -25.250782012939453)" t="0.0632959469904208"
                              timeToMove="18708.317014574477"
                              points="[[-1.5671611141871944,0],[-1.5671611141871944,-20],[-3.5671611141871935,-25],[-8.567161114187194,-30],[-12,-36],[-12,-50],[-14.567161114187194,-90]]">
                         </circle>
                         <circle class="bubble moving-bubble" r="1.7652827882251965"
                              transform="translate(2.3750686645507812, -21.519916534423828)" t="0.033545954281816795"
                              timeToMove="18191.79002057247"
                              points="[[2.3750685677970225,0],[2.3750685677970225,-20],[0.37506856779702247,-25],[-4.6249314322029775,-30],[-12,-36],[-12,-50],[-10.624931432202978,-90]]">
                         </circle>
                         <circle class="bubble moving-bubble" r="1.719776842872657"
                              transform="translate(1.3899551630020142, -27.60983657836914)" t="0.012235735890131886"
                              timeToMove="18577.600652668483"
                              points="[[1.3899551388591735,0],[1.3899551388591735,-20],[-0.6100448611408265,-25],[-5.6100448611408265,-30],[-12,-36],[-12,-50],[-11.610044861140826,-90]]">
                         </circle>
                         <circle class="bubble moving-bubble" r="1.3798354118854927"
                              transform="translate(-2.7612011432647705, -18.616905212402344)" t="0.0035975007664981263"
                              timeToMove="17576.76289106762"
                              points="[[-2.761201141465812,0],[-2.761201141465812,-20],[-4.761201141465811,-25],[-9.761201141465811,-30],[-12,-36],[-12,-50],[-15.761201141465811,-90]]">
                         </circle>
                         <circle class="bubble moving-bubble" r="0.8855004542745168"
                              transform="translate(-0.42495253682136536, -25.510120391845703)" t="0.00023141750152540154"
                              timeToMove="18012.94915889425"
                              points="[[-0.4249525194204722,0],[-0.4249525194204722,-20],[-2.424952519420472,-25],[-7.424952519420472,-30],[-12,-36],[-12,-50],[-13.424952519420472,-90]]">
                         </circle>
                    </g>
                </g>
            </g>
            <g clip-path="url(#clipper)">
                <g class="flask2" transform="translate(13, 40)">
                    <g class="left-color">
                        <g transform="translate(0,7.5)">
                            <circle cx="1" cy="1" r="1"/>
                            <circle cx="2" cy="-1.5" r="3"/>
                            <circle cx="3" cy="1" r="1"/>
                            <circle cx="4" cy="1" r="0.5"/>
                            <circle cx="5" cy="1" r="1"/>
                            <circle cx="6" cy="-1.4" r="2.7"/>
                            <circle cx="7" cy="-3.1" r="1.5"/>
                            <circle cx="8" cy="-1" r="0.5"/>
                            <circle cx="9.2" cy="-1.0" r="2"/>
                        </g>
                        <rect width="10" height="100" x="0" y="0" transform="translate(1,8)"/>
                    </g>
                    <g class="mid-color">
                        <g transform="translate(13,12)">
                            <circle cx="1" cy="1" r="1.5"/>
                            <circle cx="2" cy="-1" r="1.3"/>
                            <circle cx="3" cy="-0.5" r="1"/>
                            <circle cx="4" cy="-3" r="1.5"/>
                            <circle cx="5" cy="1" r="1"/>
                            <circle cx="6" cy="-1.4" r="2.7"/>
                            <circle cx="7" cy="-3.1" r="1.5"/>
                            <circle cx="8" cy="-1" r="0.5"/>
                            <circle cx="9.2" cy="-1" r="2"/>
                        </g>
                        <rect width="10" height="100" x="13" y="0" transform="translate(0,12)"/>
                    </g>
                    <g class="right-color">
                        <g transform="translate(26,4)">
                            <circle cx="1" cy="1" r="2.5"/>
                            <circle cx="2" cy="-0.5" r="1.3"/>
                            <circle cx="3" cy="-0.5" r="1"/>
                            <circle cx="4" cy="-2.5" r="1.5"/>
                            <circle cx="5" cy="-1.5" r="1"/>
                            <circle cx="6" cy="-1.4" r="2.7"/>
                            <circle cx="7" cy="-2.2" r="1.5"/>
                            <circle cx="8" cy="-1" r="0.5"/>
                            <circle cx="9.2" cy="-1" r="2"/>
                        </g>
                        <rect width="10" height="100" x="26" y="0" transform="translate(-1,4)"/>
                    </g>
                </g>
            </g>
            <path d="
                       M25.6,10
                       L25.6,23.85
                       c-7.7,2.4-12.8,9.4-12.8,17.4
                       c0,10.1,8.2,18.2,18.2,18.2
                       c10.1,0,18.2-8.2,18.2-18.2
                       c0-8-5.2-15.1-12.8-17.4
                       L35.6,10
                    
                       " class="inner-border background"/>
            <g class="flask">
                <path fill="#2C3E50" d="M31,60.5c-10.6,0-19.2-8.6-19.2-19.2C11.8,32.9,17,25.6,25,23V12.4h-1.1c-0.7,0-1.2-0.5-1.2-1.2V9.6
				c0-0.7,0.5-1.2,1.2-1.2h14.2c0.7,0,1.2,0.5,1.2,1.2v1.6c0,0.7-0.5,1.2-1.2,1.2H37V23c7.9,2.6,13.2,9.9,13.2,18.3
				C50.2,51.9,41.6,60.5,31,60.5z M23.9,9.5c-0.1,0-0.2,0.1-0.2,0.2v1.6c0,0.1,0.1,0.2,0.2,0.2h1.6c0.3,0,0.5,0.2,0.5,0.5v11.4
				c0,0.2-0.1,0.4-0.4,0.5c-7.7,2.4-12.8,9.4-12.8,17.4c0,10.1,8.2,18.2,18.2,18.2c10.1,0,18.2-8.2,18.2-18.2
				c0-8-5.2-15.1-12.8-17.4c-0.2-0.1-0.4-0.3-0.4-0.5V11.9c0-0.3,0.2-0.5,0.5-0.5h1.6c0.1,0,0.2-0.1,0.2-0.2V9.6
				c0-0.1-0.1-0.2-0.2-0.2H23.9z"/>
            </g>
        </g>
        <g transform="translate(65, 10)">
            <path fill="#C03A2B" d="M0,7.4h3.1l3.1,8.1h0l3.1-8.1h3L7.8,19H4.7L0,7.4z"/>
            <path fill="#C03A2B" d="M14.1,14.8h2.9V19h-2.9V14.8z"/>
            <path fill="#C03A2B" d="M26.4,10.6c-0.6-0.8-1.3-1.2-2.3-1.2c-0.4,0-0.8,0.1-1.1,0.3c-0.4,0.2-0.6,0.5-0.6,0.9
      	c0,0.4,0.2,0.6,0.5,0.8c0.3,0.2,0.7,0.3,1.2,0.4c0.5,0.1,1,0.2,1.5,0.3c0.5,0.1,1,0.3,1.5,0.6c0.5,0.2,0.8,0.6,1.2,1
      	c0.3,0.4,0.5,1,0.5,1.8c0,0.7-0.1,1.3-0.4,1.7c-0.3,0.5-0.7,0.9-1.2,1.1c-0.5,0.3-1,0.5-1.6,0.6c-0.6,0.1-1.2,0.2-1.8,0.2
      	c-0.9,0-1.7-0.1-2.5-0.4c-0.8-0.3-1.4-0.7-2-1.4l1.9-1.8c0.4,0.4,0.8,0.8,1.2,1s0.9,0.4,1.5,0.4c0.2,0,0.4,0,0.6-0.1
      	c0.2,0,0.4-0.1,0.6-0.2c0.2-0.1,0.3-0.3,0.5-0.4c0.1-0.2,0.2-0.4,0.2-0.6c0-0.4-0.2-0.7-0.5-0.9s-0.7-0.3-1.2-0.5
      	c-0.5-0.1-1-0.2-1.5-0.3s-1-0.3-1.5-0.5c-0.5-0.2-0.8-0.6-1.2-1c-0.3-0.4-0.5-1-0.5-1.7c0-0.6,0.1-1.2,0.4-1.7
      	c0.3-0.5,0.6-0.9,1-1.2c0.4-0.3,0.9-0.5,1.5-0.7c0.6-0.1,1.1-0.2,1.7-0.2c0.8,0,1.5,0.1,2.3,0.4c0.8,0.3,1.4,0.7,1.8,1.4L26.4,10.6z
      	"/>
            <path fill="#C03A2B" d="M41.4,19h-2.7v-1.8h0c-0.3,0.6-0.7,1.1-1.2,1.5c-0.6,0.4-1.3,0.6-2.3,0.6c-0.8,0-1.4-0.1-2-0.4s-1-0.6-1.3-1
      	s-0.6-0.9-0.7-1.5c-0.1-0.5-0.2-1.1-0.2-1.7V7.4h2.9v5.8c0,0.3,0,0.7,0,1.1c0,0.4,0.1,0.8,0.3,1.1c0.1,0.3,0.3,0.6,0.6,0.9
      	c0.3,0.2,0.7,0.3,1.2,0.3c0.5,0,0.9-0.1,1.2-0.2c0.3-0.2,0.6-0.4,0.8-0.6c0.2-0.3,0.4-0.6,0.5-0.9s0.1-0.7,0.1-1.1V7.4h2.9V19z"/>
            <path fill="#C03A2B" d="M51.9,17.4L51.9,17.4c-0.5,0.7-1,1.1-1.7,1.4c-0.6,0.3-1.3,0.4-2.1,0.4c-0.5,0-1-0.1-1.5-0.2
      	c-0.5-0.1-1-0.4-1.3-0.6c-0.4-0.3-0.7-0.6-0.9-1.1c-0.2-0.4-0.4-0.9-0.4-1.5c0-0.6,0.1-1.2,0.3-1.6c0.2-0.4,0.5-0.8,0.9-1.1
      	c0.4-0.3,0.8-0.5,1.3-0.7c0.5-0.2,1-0.3,1.5-0.4c0.5-0.1,1.1-0.1,1.6-0.2c0.5,0,1.1,0,1.5,0h0.7v-0.3c0-0.7-0.2-1.3-0.7-1.6
      	S50,9.3,49.2,9.3c-0.6,0-1.2,0.1-1.7,0.3c-0.5,0.2-1,0.5-1.4,0.9L44.7,9c0.6-0.7,1.4-1.1,2.2-1.4s1.7-0.4,2.7-0.4
      	c0.8,0,1.5,0.1,2.1,0.3c0.6,0.2,1,0.4,1.4,0.7c0.4,0.3,0.7,0.6,0.9,1c0.2,0.4,0.3,0.8,0.4,1.1c0.1,0.4,0.1,0.8,0.2,1.1
      	c0,0.4,0,0.7,0,0.9V19h-2.6V17.4z M51.7,13.8h-0.6c-0.4,0-0.8,0-1.3,0c-0.5,0-1,0.1-1.4,0.2c-0.4,0.1-0.8,0.3-1.1,0.5
      	c-0.3,0.2-0.5,0.6-0.5,1c0,0.3,0.1,0.5,0.2,0.7c0.1,0.2,0.3,0.3,0.5,0.5c0.2,0.1,0.4,0.2,0.6,0.3c0.2,0.1,0.5,0.1,0.7,0.1
      	c1,0,1.7-0.2,2.2-0.7c0.5-0.5,0.7-1.1,0.7-1.9V13.8z"/>
            <path fill="#C03A2B" d="M57.6,0.8h2.9V19h-2.9V0.8z"/>
            <path fill="#C03A2B" d="M69.3,16.3l6.2-6.5v0h-5.9V7.4h9.4V10l-6.2,6.6h6.5V19h-9.9V16.3z"/>
            <path fill="#C03A2B" d="M88.8,17.4L88.8,17.4c-0.5,0.7-1,1.1-1.7,1.4c-0.6,0.3-1.3,0.4-2.1,0.4c-0.5,0-1-0.1-1.5-0.2
      	c-0.5-0.1-1-0.4-1.3-0.6c-0.4-0.3-0.7-0.6-0.9-1.1c-0.2-0.4-0.4-0.9-0.4-1.5c0-0.6,0.1-1.2,0.3-1.6c0.2-0.4,0.5-0.8,0.9-1.1
      	c0.4-0.3,0.8-0.5,1.3-0.7c0.5-0.2,1-0.3,1.5-0.4c0.5-0.1,1.1-0.1,1.6-0.2c0.5,0,1.1,0,1.5,0h0.7v-0.3c0-0.7-0.2-1.3-0.7-1.6
      	S87,9.3,86.2,9.3c-0.6,0-1.2,0.1-1.7,0.3c-0.5,0.2-1,0.5-1.4,0.9L81.6,9c0.6-0.7,1.4-1.1,2.2-1.4s1.7-0.4,2.7-0.4
      	c0.8,0,1.5,0.1,2.1,0.3c0.6,0.2,1,0.4,1.4,0.7c0.4,0.3,0.7,0.6,0.9,1c0.2,0.4,0.3,0.8,0.4,1.1c0.1,0.4,0.1,0.8,0.2,1.1
      	c0,0.4,0,0.7,0,0.9V19h-2.6V17.4z M88.7,13.8h-0.6c-0.4,0-0.8,0-1.3,0c-0.5,0-1,0.1-1.4,0.2c-0.4,0.1-0.8,0.3-1.1,0.5
      	c-0.3,0.2-0.5,0.6-0.5,1c0,0.3,0.1,0.5,0.2,0.7c0.1,0.2,0.3,0.3,0.5,0.5c0.2,0.1,0.4,0.2,0.6,0.3c0.2,0.1,0.5,0.1,0.7,0.1
      	c1,0,1.7-0.2,2.2-0.7c0.5-0.5,0.7-1.1,0.7-1.9V13.8z"/>
            <path fill="#C03A2B" d="M93.2,9.9V7.4h2.4V4.1h2.9v3.3h3.2v2.4h-3.2v5c0,0.6,0.1,1,0.3,1.4c0.2,0.3,0.6,0.5,1.3,0.5
      	c0.3,0,0.5,0,0.8-0.1c0.3-0.1,0.5-0.1,0.7-0.3v2.4c-0.3,0.1-0.7,0.2-1.1,0.3c-0.4,0.1-0.8,0.1-1.2,0.1c-0.8,0-1.4-0.1-1.9-0.3
      	c-0.5-0.2-0.9-0.4-1.2-0.8c-0.3-0.3-0.5-0.8-0.6-1.3c-0.1-0.5-0.2-1.1-0.2-1.8V9.9H93.2z"/>
            <path fill="#C03A2B" d="M109.6,13.2c0-0.9,0.2-1.7,0.5-2.5c0.3-0.7,0.8-1.4,1.3-1.9c0.6-0.5,1.2-0.9,2-1.2c0.8-0.3,1.6-0.4,2.4-0.4
      	c0.9,0,1.7,0.1,2.4,0.4s1.4,0.7,2,1.2c0.6,0.5,1,1.2,1.3,1.9c0.3,0.7,0.5,1.6,0.5,2.5c0,0.9-0.2,1.7-0.5,2.5
      	c-0.3,0.7-0.8,1.4-1.3,1.9c-0.6,0.5-1.2,0.9-2,1.2s-1.6,0.4-2.4,0.4c-0.9,0-1.7-0.1-2.4-0.4c-0.8-0.3-1.4-0.7-2-1.2
      	c-0.6-0.5-1-1.2-1.3-1.9C109.7,14.9,109.6,14.1,109.6,13.2z M112.4,13.2c0,0.4,0.1,0.9,0.2,1.3s0.4,0.8,0.7,1.1
      	c0.3,0.3,0.7,0.6,1.1,0.8c0.4,0.2,0.9,0.3,1.4,0.3c0.5,0,1-0.1,1.4-0.3c0.4-0.2,0.8-0.4,1.1-0.8c0.3-0.3,0.5-0.7,0.7-1.1
      	s0.2-0.8,0.2-1.3s-0.1-0.9-0.2-1.3c-0.2-0.4-0.4-0.8-0.7-1.1c-0.3-0.3-0.7-0.6-1.1-0.8c-0.4-0.2-0.9-0.3-1.4-0.3
      	c-0.5,0-1,0.1-1.4,0.3c-0.4,0.2-0.8,0.4-1.1,0.8c-0.3,0.3-0.5,0.7-0.7,1.1C112.5,12.3,112.4,12.7,112.4,13.2z"/>
            <path fill="#C03A2B" d="M124.8,7.4h2.7v1.8h0c0.3-0.6,0.7-1.1,1.2-1.5c0.6-0.4,1.3-0.6,2.3-0.6c0.8,0,1.4,0.1,2,0.4s1,0.6,1.3,1
      	c0.3,0.4,0.6,0.9,0.7,1.4c0.1,0.5,0.2,1.1,0.2,1.7V19h-2.9v-5.8c0-0.3,0-0.7,0-1.1c0-0.4-0.1-0.8-0.3-1.1c-0.1-0.3-0.3-0.6-0.6-0.9
      	c-0.3-0.2-0.7-0.3-1.2-0.3c-0.5,0-0.9,0.1-1.2,0.2c-0.3,0.2-0.6,0.4-0.8,0.6c-0.2,0.3-0.4,0.6-0.5,0.9c-0.1,0.4-0.1,0.7-0.1,1.1V19
      	h-2.9V7.4z"/>
            <path fill="#2C3E50" d="M10.7,42L10.7,42c-0.5,0.7-1,1.2-1.7,1.5C8.2,43.9,7.5,44,6.7,44c-0.9,0-1.7-0.2-2.4-0.5
      	c-0.7-0.3-1.3-0.7-1.8-1.3s-0.9-1.2-1.1-1.9S1,38.8,1,38s0.1-1.6,0.4-2.4c0.3-0.7,0.7-1.4,1.1-1.9c0.5-0.5,1.1-1,1.8-1.3
      	c0.7-0.3,1.4-0.5,2.3-0.5c0.5,0,1,0.1,1.4,0.2c0.4,0.1,0.8,0.3,1.1,0.4c0.3,0.2,0.6,0.4,0.8,0.6c0.2,0.2,0.4,0.4,0.6,0.6h0.1v-8.1
      	h2.9v18.1h-2.7V42z M3.9,38c0,0.4,0.1,0.9,0.2,1.3c0.2,0.4,0.4,0.8,0.7,1.1c0.3,0.3,0.7,0.6,1.1,0.8c0.4,0.2,0.9,0.3,1.4,0.3
      	c0.5,0,1-0.1,1.4-0.3c0.4-0.2,0.8-0.4,1.1-0.8c0.3-0.3,0.5-0.7,0.7-1.1s0.2-0.8,0.2-1.3s-0.1-0.9-0.2-1.3c-0.2-0.4-0.4-0.8-0.7-1.1
      	c-0.3-0.3-0.7-0.6-1.1-0.8c-0.4-0.2-0.9-0.3-1.4-0.3c-0.5,0-1,0.1-1.4,0.3c-0.4,0.2-0.8,0.4-1.1,0.8c-0.3,0.3-0.5,0.7-0.7,1.1
      	C3.9,37.1,3.9,37.5,3.9,38z"/>
            <path fill="#2C3E50" d="M19,39c0.1,0.9,0.4,1.5,1,2s1.3,0.7,2.1,0.7c0.7,0,1.3-0.1,1.8-0.4c0.5-0.3,0.9-0.7,1.3-1.1l2.1,1.6
      	c-0.7,0.8-1.4,1.4-2.3,1.8c-0.8,0.4-1.7,0.5-2.6,0.5c-0.9,0-1.7-0.1-2.4-0.4c-0.8-0.3-1.4-0.7-2-1.2c-0.6-0.5-1-1.2-1.3-1.9
      	c-0.3-0.7-0.5-1.6-0.5-2.5c0-0.9,0.2-1.7,0.5-2.5c0.3-0.7,0.8-1.4,1.3-1.9c0.6-0.5,1.2-0.9,2-1.2c0.8-0.3,1.6-0.4,2.4-0.4
      	c0.8,0,1.5,0.1,2.2,0.4c0.7,0.3,1.2,0.7,1.7,1.2c0.5,0.5,0.8,1.2,1.1,2c0.3,0.8,0.4,1.7,0.4,2.7V39H19z M24.9,36.8
      	c0-0.8-0.3-1.5-0.8-2c-0.5-0.5-1.2-0.7-2.1-0.7c-0.9,0-1.5,0.2-2.1,0.7s-0.8,1.2-0.9,2H24.9z"/>
            <path fill="#2C3E50" d="M36.6,35.4c-0.6-0.8-1.3-1.2-2.3-1.2c-0.4,0-0.8,0.1-1.1,0.3c-0.4,0.2-0.6,0.5-0.6,0.9
      	c0,0.4,0.2,0.6,0.5,0.8c0.3,0.2,0.7,0.3,1.2,0.4c0.5,0.1,1,0.2,1.5,0.3c0.5,0.1,1,0.3,1.5,0.6c0.5,0.2,0.8,0.6,1.2,1
      	c0.3,0.4,0.5,1,0.5,1.8c0,0.7-0.1,1.3-0.4,1.7c-0.3,0.5-0.7,0.9-1.2,1.1c-0.5,0.3-1,0.5-1.6,0.6C35.1,44,34.5,44,33.9,44
      	c-0.9,0-1.7-0.1-2.5-0.4c-0.8-0.3-1.4-0.7-2-1.4l1.9-1.8c0.4,0.4,0.8,0.8,1.2,1c0.4,0.3,0.9,0.4,1.5,0.4c0.2,0,0.4,0,0.6-0.1
      	c0.2,0,0.4-0.1,0.6-0.2c0.2-0.1,0.3-0.3,0.5-0.4s0.2-0.4,0.2-0.6c0-0.4-0.2-0.7-0.5-0.9c-0.3-0.2-0.7-0.3-1.2-0.5
      	c-0.5-0.1-1-0.2-1.5-0.3c-0.5-0.1-1-0.3-1.5-0.5c-0.5-0.2-0.8-0.6-1.2-1c-0.3-0.4-0.5-1-0.5-1.7c0-0.6,0.1-1.2,0.4-1.7
      	c0.3-0.5,0.6-0.9,1-1.2c0.4-0.3,0.9-0.5,1.5-0.7c0.6-0.1,1.1-0.2,1.7-0.2c0.8,0,1.5,0.1,2.3,0.4c0.8,0.3,1.4,0.7,1.8,1.4L36.6,35.4z
      	"/>
            <path fill="#2C3E50" d="M40.8,28.3c0-0.5,0.2-0.9,0.5-1.2c0.3-0.3,0.8-0.5,1.3-0.5c0.5,0,1,0.2,1.3,0.5c0.4,0.3,0.5,0.7,0.5,1.2
      	c0,0.5-0.2,0.9-0.5,1.2c-0.4,0.3-0.8,0.5-1.3,0.5c-0.5,0-1-0.2-1.3-0.5C40.9,29.2,40.8,28.8,40.8,28.3z M41.2,32.2H44v11.5h-2.9
      	V32.2z"/>
            <path fill="#2C3E50" d="M59.2,32.2v10.5c0,1-0.1,2-0.4,2.8c-0.3,0.8-0.7,1.6-1.2,2.1s-1.2,1-2,1.4c-0.8,0.3-1.8,0.5-2.9,0.5
      	c-1.1,0-2.1-0.1-3-0.4c-1-0.3-1.8-0.8-2.7-1.5l1.7-2.4c0.6,0.5,1.2,0.9,1.8,1.2c0.6,0.3,1.3,0.4,2.2,0.4c0.7,0,1.3-0.1,1.7-0.3
      	c0.5-0.2,0.8-0.5,1.1-0.8s0.5-0.7,0.6-1.2c0.1-0.5,0.2-1,0.2-1.6v-0.8h0c-0.4,0.6-1,1-1.7,1.3c-0.7,0.3-1.4,0.4-2.1,0.4
      	c-0.9,0-1.6-0.2-2.4-0.5c-0.7-0.3-1.3-0.7-1.8-1.3s-0.9-1.2-1.2-1.9c-0.3-0.7-0.4-1.5-0.4-2.3c0-0.8,0.1-1.6,0.4-2.4
      	c0.3-0.7,0.6-1.4,1.1-1.9c0.5-0.5,1.1-1,1.8-1.3c0.7-0.3,1.5-0.5,2.4-0.5c0.8,0,1.6,0.2,2.3,0.5c0.7,0.3,1.3,0.8,1.7,1.5h0v-1.7
      	H59.2z M53.1,34.5c-0.5,0-1,0.1-1.4,0.3s-0.8,0.4-1.1,0.7c-0.3,0.3-0.5,0.7-0.7,1.1c-0.2,0.4-0.3,0.9-0.3,1.4c0,0.5,0.1,0.9,0.3,1.3
      	s0.4,0.8,0.7,1.1c0.3,0.3,0.7,0.5,1.1,0.7c0.4,0.2,0.9,0.3,1.3,0.3c0.5,0,1-0.1,1.4-0.3c0.4-0.2,0.8-0.4,1.1-0.7
      	c0.3-0.3,0.5-0.7,0.7-1.1c0.2-0.4,0.2-0.9,0.2-1.3c0-1-0.3-1.8-0.9-2.4S54.1,34.5,53.1,34.5z"/>
            <path fill="#2C3E50" d="M62.5,32.2h2.7v1.8h0c0.3-0.6,0.7-1.1,1.2-1.5c0.6-0.4,1.3-0.6,2.3-0.6c0.8,0,1.4,0.1,2,0.4s1,0.6,1.3,1
      	c0.3,0.4,0.6,0.9,0.7,1.4c0.1,0.5,0.2,1.1,0.2,1.7v7.3h-2.9v-5.8c0-0.3,0-0.7,0-1.1c0-0.4-0.1-0.8-0.3-1.1c-0.1-0.3-0.3-0.6-0.6-0.9
      	c-0.3-0.2-0.7-0.3-1.2-0.3c-0.5,0-0.9,0.1-1.2,0.2c-0.3,0.2-0.6,0.4-0.8,0.6c-0.2,0.3-0.4,0.6-0.5,0.9c-0.1,0.4-0.1,0.7-0.1,1.1v6.3
      	h-2.9V32.2z"/>
            <path fill="#2C3E50" d="M83.4,25.6h2.9v18.1h-2.9V25.6z"/>
            <path fill="#2C3E50" d="M96.8,42.2L96.8,42.2c-0.5,0.7-1,1.1-1.7,1.4C94.5,43.9,93.8,44,93,44c-0.5,0-1-0.1-1.5-0.2
      	c-0.5-0.1-1-0.4-1.3-0.6c-0.4-0.3-0.7-0.6-0.9-1.1c-0.2-0.4-0.4-0.9-0.4-1.5c0-0.6,0.1-1.2,0.3-1.6c0.2-0.4,0.5-0.8,0.9-1.1
      	c0.4-0.3,0.8-0.5,1.3-0.7c0.5-0.2,1-0.3,1.5-0.4c0.5-0.1,1.1-0.1,1.6-0.2c0.5,0,1.1,0,1.5,0h0.7v-0.3c0-0.7-0.2-1.3-0.7-1.6
      	s-1.1-0.5-1.9-0.5c-0.6,0-1.2,0.1-1.7,0.3c-0.5,0.2-1,0.5-1.4,0.9l-1.5-1.5c0.6-0.7,1.4-1.1,2.2-1.4s1.7-0.4,2.7-0.4
      	c0.8,0,1.5,0.1,2.1,0.3c0.6,0.2,1,0.4,1.4,0.7c0.4,0.3,0.7,0.6,0.9,1c0.2,0.4,0.3,0.8,0.4,1.1s0.1,0.8,0.2,1.1c0,0.4,0,0.7,0,0.9
      	v6.6h-2.6V42.2z M96.6,38.6H96c-0.4,0-0.8,0-1.3,0c-0.5,0-1,0.1-1.4,0.2c-0.4,0.1-0.8,0.3-1.1,0.5s-0.5,0.6-0.5,1
      	c0,0.3,0.1,0.5,0.2,0.7c0.1,0.2,0.3,0.3,0.5,0.5c0.2,0.1,0.4,0.2,0.6,0.3c0.2,0.1,0.5,0.1,0.7,0.1c1,0,1.7-0.2,2.2-0.7
      	c0.5-0.5,0.7-1.1,0.7-1.9V38.6z"/>
            <path fill="#2C3E50" d="M102.5,25.6h2.9v8.1h0.1c0.1-0.2,0.3-0.4,0.6-0.6c0.2-0.2,0.5-0.4,0.8-0.6c0.3-0.2,0.7-0.3,1.1-0.4
      	c0.4-0.1,0.9-0.2,1.4-0.2c0.8,0,1.6,0.2,2.3,0.5s1.3,0.7,1.8,1.3c0.5,0.5,0.9,1.2,1.1,1.9c0.3,0.7,0.4,1.5,0.4,2.4s-0.1,1.6-0.4,2.4
      	c-0.3,0.7-0.6,1.4-1.1,1.9s-1.1,1-1.8,1.3s-1.5,0.5-2.4,0.5c-0.8,0-1.6-0.2-2.3-0.5c-0.7-0.3-1.3-0.8-1.7-1.5h0v1.7h-2.7V25.6z
      	 M112,38c0-0.4-0.1-0.9-0.2-1.3c-0.2-0.4-0.4-0.8-0.7-1.1c-0.3-0.3-0.7-0.6-1.1-0.8c-0.4-0.2-0.9-0.3-1.4-0.3c-0.5,0-1,0.1-1.4,0.3
      	c-0.4,0.2-0.8,0.4-1.1,0.8c-0.3,0.3-0.5,0.7-0.7,1.1c-0.2,0.4-0.2,0.8-0.2,1.3s0.1,0.9,0.2,1.3s0.4,0.8,0.7,1.1
      	c0.3,0.3,0.7,0.6,1.1,0.8c0.4,0.2,0.9,0.3,1.4,0.3c0.5,0,1-0.1,1.4-0.3c0.4-0.2,0.8-0.4,1.1-0.8c0.3-0.3,0.5-0.7,0.7-1.1
      	S112,38.4,112,38z"/>
            <g>
                <path fill="#C03A2B" d="M14.4,14.6c0,0.1-0.1,0.2-0.2,0.2c-0.1,0-0.2-0.1-0.2-0.2c0-0.1,0.1-0.2,0.2-0.2
      		C14.3,14.4,14.4,14.5,14.4,14.6z"/>
                <path fill="#C03A2B" d="M14.2,14.8c-0.1,0-0.2-0.1-0.2-0.2c0-0.1,0.1-0.2,0.2-0.2c0.1,0,0.2,0.1,0.2,0.2
      		C14.4,14.7,14.3,14.8,14.2,14.8z M14.2,14.4c-0.1,0-0.2,0.1-0.2,0.2c0,0.1,0.1,0.2,0.2,0.2c0.1,0,0.2-0.1,0.2-0.2
      		C14.3,14.5,14.3,14.4,14.2,14.4z"/>
            </g>
            <g>
                <path fill="#C03A2B" d="M16,14.3c0,0.4-0.4,0.8-0.8,0.8c-0.4,0-0.8-0.4-0.8-0.8c0-0.4,0.4-0.8,0.8-0.8C15.6,13.5,16,13.8,16,14.3z"/>
                <path fill="#C03A2B" d="M15.2,15.2c-0.5,0-0.9-0.4-0.9-0.9c0-0.5,0.4-0.9,0.9-0.9c0.5,0,0.9,0.4,0.9,0.9
      		C16.1,14.8,15.7,15.2,15.2,15.2z M15.2,13.6c-0.4,0-0.7,0.3-0.7,0.7c0,0.4,0.3,0.7,0.7,0.7c0.4,0,0.7-0.3,0.7-0.7
      		C15.8,13.9,15.5,13.6,15.2,13.6z"/>
            </g>
            <g>
                <path fill="#C03A2B" d="M17,13c0,0.1-0.1,0.3-0.3,0.3c-0.1,0-0.3-0.1-0.3-0.3c0-0.1,0.1-0.3,0.3-0.3C16.9,12.8,17,12.9,17,13z"/>
                <path fill="#C03A2B" d="M16.8,13.3c-0.2,0-0.3-0.1-0.3-0.3c0-0.2,0.1-0.3,0.3-0.3c0.2,0,0.3,0.1,0.3,0.3
      		C17,13.2,16.9,13.3,16.8,13.3z M16.8,12.8c-0.1,0-0.2,0.1-0.2,0.2c0,0.1,0.1,0.2,0.2,0.2c0.1,0,0.2-0.1,0.2-0.2
      		C17,12.9,16.9,12.8,16.8,12.8z"/>
            </g>
            <g>
                <path fill="#C03A2B" d="M14.5,15c0,0.1-0.1,0.2-0.2,0.2c-0.1,0-0.2-0.1-0.2-0.2c0-0.1,0.1-0.2,0.2-0.2C14.4,14.8,14.5,14.9,14.5,15
      		z"/>
                <path fill="#C03A2B" d="M14.3,15.3c-0.1,0-0.3-0.1-0.3-0.3c0-0.1,0.1-0.3,0.3-0.3c0.1,0,0.3,0.1,0.3,0.3
      		C14.6,15.2,14.4,15.3,14.3,15.3z M14.3,14.8c-0.1,0-0.2,0.1-0.2,0.2c0,0.1,0.1,0.2,0.2,0.2c0.1,0,0.2-0.1,0.2-0.2
      		C14.5,14.9,14.4,14.8,14.3,14.8z"/>
            </g>
            <g>
                <path fill="#C03A2B" d="M16.8,14.8c0,0.2-0.2,0.4-0.4,0.4c-0.2,0-0.4-0.2-0.4-0.4c0-0.2,0.2-0.4,0.4-0.4
      		C16.6,14.3,16.8,14.5,16.8,14.8z"/>
                <path fill="#C03A2B" d="M16.4,15.3c-0.3,0-0.5-0.2-0.5-0.5c0-0.3,0.2-0.5,0.5-0.5c0.3,0,0.5,0.2,0.5,0.5
      		C16.9,15,16.7,15.3,16.4,15.3z M16.4,14.4c-0.2,0-0.4,0.2-0.4,0.4c0,0.2,0.2,0.4,0.4,0.4c0.2,0,0.4-0.2,0.4-0.4
      		C16.8,14.6,16.6,14.4,16.4,14.4z"/>
            </g>
            <g>
                <path fill="#C03A2B" d="M16.8,13.8c0,0.3-0.2,0.5-0.5,0.5c-0.3,0-0.5-0.2-0.5-0.5c0-0.3,0.2-0.5,0.5-0.5
      		C16.6,13.3,16.8,13.6,16.8,13.8z"/>
                <path fill="#C03A2B" d="M16.3,14.4c-0.3,0-0.6-0.3-0.6-0.6c0-0.3,0.3-0.6,0.6-0.6c0.3,0,0.6,0.3,0.6,0.6
      		C16.9,14.2,16.7,14.4,16.3,14.4z M16.3,13.4c-0.2,0-0.4,0.2-0.4,0.4c0,0.2,0.2,0.4,0.4,0.4c0.2,0,0.4-0.2,0.4-0.4
      		C16.8,13.6,16.6,13.4,16.3,13.4z"/>
            </g>
            <g>
                <path fill="#C03A2B" d="M16.2,12.7c0,0.3-0.2,0.5-0.5,0.5c-0.3,0-0.5-0.2-0.5-0.5c0-0.3,0.2-0.5,0.5-0.5
      		C16,12.2,16.2,12.4,16.2,12.7z"/>
                <path fill="#C03A2B" d="M15.7,13.3c-0.3,0-0.6-0.3-0.6-0.6c0-0.3,0.3-0.6,0.6-0.6c0.3,0,0.6,0.3,0.6,0.6
      		C16.3,13.1,16.1,13.3,15.7,13.3z M15.7,12.3c-0.2,0-0.4,0.2-0.4,0.4c0,0.2,0.2,0.4,0.4,0.4c0.2,0,0.4-0.2,0.4-0.4
      		C16.2,12.5,16,12.3,15.7,12.3z"/>
            </g>
            <g>
                <path fill="#C03A2B" d="M14.6,14.1c0,0.1-0.1,0.3-0.3,0.3c-0.1,0-0.3-0.1-0.3-0.3c0-0.1,0.1-0.3,0.3-0.3
      		C14.4,13.8,14.6,13.9,14.6,14.1z"/>
                <path fill="#C03A2B" d="M14.3,14.4c-0.2,0-0.3-0.1-0.3-0.3c0-0.2,0.1-0.3,0.3-0.3c0.2,0,0.3,0.1,0.3,0.3
      		C14.6,14.2,14.5,14.4,14.3,14.4z M14.3,13.9c-0.1,0-0.2,0.1-0.2,0.2c0,0.1,0.1,0.2,0.2,0.2c0.1,0,0.2-0.1,0.2-0.2
      		C14.5,14,14.4,13.9,14.3,13.9z"/>
            </g>
            <g>
                <path fill="#C03A2B" d="M14.5,13.5c0,0.1-0.1,0.2-0.2,0.2c-0.1,0-0.2-0.1-0.2-0.2c0-0.1,0.1-0.2,0.2-0.2
      		C14.4,13.3,14.5,13.4,14.5,13.5z"/>
                <path fill="#C03A2B" d="M14.3,13.8c-0.1,0-0.3-0.1-0.3-0.3c0-0.1,0.1-0.3,0.3-0.3c0.1,0,0.3,0.1,0.3,0.3
      		C14.6,13.7,14.4,13.8,14.3,13.8z M14.3,13.3c-0.1,0-0.2,0.1-0.2,0.2c0,0.1,0.1,0.2,0.2,0.2c0.1,0,0.2-0.1,0.2-0.2
      		C14.5,13.4,14.4,13.3,14.3,13.3z"/>
            </g>
            <g>
                <path fill="#C03A2B" d="M15.4,13.2c0,0.2-0.1,0.3-0.3,0.3c-0.2,0-0.3-0.1-0.3-0.3c0-0.2,0.1-0.3,0.3-0.3
      		C15.2,12.9,15.4,13,15.4,13.2z"/>
                <path fill="#C03A2B" d="M15,13.6c-0.2,0-0.4-0.2-0.4-0.4c0-0.2,0.2-0.4,0.4-0.4c0.2,0,0.4,0.2,0.4,0.4C15.4,13.4,15.2,13.6,15,13.6
      		z M15,12.9c-0.2,0-0.3,0.1-0.3,0.3c0,0.2,0.1,0.3,0.3,0.3c0.2,0,0.3-0.1,0.3-0.3C15.3,13,15.2,12.9,15,12.9z"/>
            </g>
            <g>
                <path fill="#C03A2B" d="M15,12.7C15,12.7,15,12.8,15,12.7c-0.1,0.1-0.2,0-0.2,0C14.8,12.6,14.9,12.6,15,12.7
      		C15,12.6,15,12.6,15,12.7z"/>
                <path fill="#C03A2B" d="M14.9,12.8C14.9,12.8,14.8,12.7,14.9,12.8c-0.1-0.1,0-0.2,0-0.2C15,12.6,15,12.6,14.9,12.8
      		C15,12.7,15,12.8,14.9,12.8z M14.9,12.6C14.9,12.6,14.9,12.6,14.9,12.6c-0.1,0.1,0,0.1,0,0.1C15,12.7,15,12.7,14.9,12.6
      		C15,12.6,15,12.6,14.9,12.6z"/>
            </g>
            <g>
                <path fill="#C03A2B" d="M15.2,12.3C15.2,12.3,15.1,12.3,15.2,12.3c-0.1,0.1-0.2,0-0.2,0C15,12.2,15.1,12.2,15.2,12.3
      		C15.1,12.2,15.2,12.2,15.2,12.3z"/>
                <path fill="#C03A2B" d="M15.1,12.4C15.1,12.4,15,12.3,15.1,12.4c-0.1-0.1,0-0.2,0-0.2C15.2,12.2,15.2,12.2,15.1,12.4
      		C15.2,12.3,15.2,12.4,15.1,12.4z M15.1,12.2C15.1,12.2,15,12.2,15.1,12.2c-0.1,0.1,0,0.1,0,0.1C15.1,12.3,15.2,12.3,15.1,12.2
      		C15.2,12.2,15.1,12.2,15.1,12.2z"/>
            </g>
            <g>
                <path fill="#C03A2B" d="M16.7,12.5c0,0.1-0.1,0.1-0.1,0.1c-0.1,0-0.1-0.1-0.1-0.1c0-0.1,0.1-0.1,0.1-0.1
      		C16.6,12.4,16.7,12.4,16.7,12.5z"/>
                <path fill="#C03A2B" d="M16.5,12.7c-0.1,0-0.2-0.1-0.2-0.2c0-0.1,0.1-0.2,0.2-0.2c0.1,0,0.2,0.1,0.2,0.2
      		C16.7,12.6,16.6,12.7,16.5,12.7z M16.5,12.4c-0.1,0-0.1,0.1-0.1,0.1c0,0.1,0.1,0.1,0.1,0.1c0.1,0,0.1-0.1,0.1-0.1
      		C16.7,12.4,16.6,12.4,16.5,12.4z"/>
            </g>
            <g>
                <path fill="#C03A2B" d="M15.3,11.9c0,0.2-0.1,0.3-0.3,0.3c-0.2,0-0.3-0.1-0.3-0.3c0-0.2,0.1-0.3,0.3-0.3
      		C15.2,11.5,15.3,11.7,15.3,11.9z"/>
                <path fill="#C03A2B" d="M15,12.3c-0.2,0-0.4-0.2-0.4-0.4c0-0.2,0.2-0.4,0.4-0.4c0.2,0,0.4,0.2,0.4,0.4C15.4,12.1,15.2,12.3,15,12.3
      		z M15,11.6c-0.2,0-0.3,0.1-0.3,0.3c0,0.2,0.1,0.3,0.3,0.3c0.2,0,0.3-0.1,0.3-0.3C15.3,11.7,15.1,11.6,15,11.6z"/>
            </g>
            <g>
                <path fill="#C03A2B" d="M15.8,11.9c0,0.1-0.1,0.3-0.3,0.3c-0.1,0-0.3-0.1-0.3-0.3c0-0.1,0.1-0.3,0.3-0.3
      		C15.7,11.7,15.8,11.8,15.8,11.9z"/>
                <path fill="#C03A2B" d="M15.5,12.2c-0.2,0-0.3-0.1-0.3-0.3c0-0.2,0.1-0.3,0.3-0.3c0.2,0,0.3,0.1,0.3,0.3
      		C15.8,12.1,15.7,12.2,15.5,12.2z M15.5,11.7c-0.1,0-0.2,0.1-0.2,0.2c0,0.1,0.1,0.2,0.2,0.2c0.1,0,0.2-0.1,0.2-0.2
      		C15.8,11.8,15.7,11.7,15.5,11.7z"/>
            </g>
            <g>
                <path fill="#C03A2B" d="M16.7,12.1c0,0.1-0.1,0.2-0.2,0.2c-0.1,0-0.2-0.1-0.2-0.2c0-0.1,0.1-0.2,0.2-0.2
      		C16.6,11.9,16.7,12,16.7,12.1z"/>
                <path fill="#C03A2B" d="M16.5,12.3c-0.1,0-0.2-0.1-0.2-0.2c0-0.1,0.1-0.2,0.2-0.2c0.1,0,0.2,0.1,0.2,0.2
      		C16.7,12.2,16.6,12.3,16.5,12.3z M16.5,12c-0.1,0-0.2,0.1-0.2,0.2c0,0.1,0.1,0.2,0.2,0.2c0.1,0,0.2-0.1,0.2-0.2
      		C16.6,12,16.6,12,16.5,12z"/>
            </g>
            <g>
                <path fill="#C03A2B" d="M14.8,12.3c0,0.1-0.1,0.2-0.2,0.2c-0.1,0-0.2-0.1-0.2-0.2c0-0.1,0.1-0.2,0.2-0.2
      		C14.7,12.1,14.8,12.2,14.8,12.3z"/>
                <path fill="#C03A2B" d="M14.6,12.5c-0.1,0-0.2-0.1-0.2-0.2c0-0.1,0.1-0.2,0.2-0.2c0.1,0,0.2,0.1,0.2,0.2
      		C14.8,12.4,14.8,12.5,14.6,12.5z M14.6,12.2c-0.1,0-0.2,0.1-0.2,0.2c0,0.1,0.1,0.2,0.2,0.2c0.1,0,0.2-0.1,0.2-0.2
      		C14.8,12.2,14.7,12.2,14.6,12.2z"/>
            </g>
            <g>
                <path fill="#C03A2B" d="M14.8,13c0,0.2-0.2,0.4-0.4,0.4c-0.2,0-0.4-0.2-0.4-0.4c0-0.2,0.2-0.4,0.4-0.4C14.6,12.7,14.8,12.8,14.8,13
      		z"/>
                <path fill="#C03A2B" d="M14.4,13.4c-0.2,0-0.4-0.2-0.4-0.4c0-0.2,0.2-0.4,0.4-0.4c0.2,0,0.4,0.2,0.4,0.4
      		C14.8,13.2,14.6,13.4,14.4,13.4z M14.4,12.7c-0.2,0-0.3,0.1-0.3,0.3c0,0.2,0.1,0.3,0.3,0.3c0.2,0,0.3-0.1,0.3-0.3
      		C14.7,12.9,14.6,12.7,14.4,12.7z"/>
            </g>
            <g>
                <path fill="#C03A2B" d="M16.8,11.3c0,0.2-0.1,0.3-0.3,0.3c-0.2,0-0.3-0.1-0.3-0.3c0-0.2,0.1-0.3,0.3-0.3
      		C16.7,11,16.8,11.2,16.8,11.3z"/>
                <path fill="#C03A2B" d="M16.5,11.7c-0.2,0-0.4-0.2-0.4-0.4c0-0.2,0.2-0.4,0.4-0.4c0.2,0,0.4,0.2,0.4,0.4
      		C16.9,11.6,16.7,11.7,16.5,11.7z M16.5,11.1c-0.2,0-0.3,0.1-0.3,0.3c0,0.2,0.1,0.3,0.3,0.3c0.2,0,0.3-0.1,0.3-0.3
      		C16.8,11.2,16.7,11.1,16.5,11.1z"/>
            </g>
            <g>
                <path fill="#C03A2B" d="M16.7,13c0,0.2-0.2,0.3-0.3,0.3c-0.2,0-0.3-0.2-0.3-0.3c0-0.2,0.2-0.3,0.3-0.3C16.6,12.7,16.7,12.8,16.7,13
      		z"/>
                <path fill="#C03A2B" d="M16.4,13.4c-0.2,0-0.4-0.2-0.4-0.4c0-0.2,0.2-0.4,0.4-0.4c0.2,0,0.4,0.2,0.4,0.4
      		C16.8,13.2,16.6,13.4,16.4,13.4z M16.4,12.7c-0.2,0-0.3,0.1-0.3,0.3c0,0.2,0.1,0.3,0.3,0.3c0.2,0,0.3-0.1,0.3-0.3
      		C16.7,12.8,16.5,12.7,16.4,12.7z"/>
            </g>
            <g>
                <path fill="#C03A2B" d="M14.9,11.3c0,0.2-0.2,0.3-0.3,0.3c-0.2,0-0.3-0.2-0.3-0.3c0-0.2,0.2-0.3,0.3-0.3
      		C14.8,11,14.9,11.2,14.9,11.3z"/>
                <path fill="#C03A2B" d="M14.6,11.8c-0.2,0-0.4-0.2-0.4-0.4c0-0.2,0.2-0.4,0.4-0.4c0.2,0,0.4,0.2,0.4,0.4
      		C15,11.6,14.8,11.8,14.6,11.8z M14.6,11.1c-0.2,0-0.3,0.1-0.3,0.3c0,0.2,0.1,0.3,0.3,0.3c0.2,0,0.3-0.1,0.3-0.3
      		C14.9,11.2,14.7,11.1,14.6,11.1z"/>
            </g>
            <g>
                <path fill="#C03A2B" d="M15.7,10.6c0,0.2-0.2,0.3-0.3,0.3c-0.2,0-0.3-0.2-0.3-0.3c0-0.2,0.2-0.3,0.3-0.3
      		C15.6,10.2,15.7,10.4,15.7,10.6z"/>
                <path fill="#C03A2B" d="M15.4,11c-0.2,0-0.4-0.2-0.4-0.4c0-0.2,0.2-0.4,0.4-0.4c0.2,0,0.4,0.2,0.4,0.4C15.8,10.8,15.6,11,15.4,11z
      		 M15.4,10.3c-0.2,0-0.3,0.1-0.3,0.3c0,0.2,0.1,0.3,0.3,0.3c0.2,0,0.3-0.1,0.3-0.3C15.7,10.4,15.5,10.3,15.4,10.3z"/>
            </g>
            <g>
                <path fill="#C03A2B" d="M16.7,10.4c0,0.2-0.2,0.3-0.3,0.3c-0.2,0-0.3-0.2-0.3-0.3c0-0.2,0.2-0.3,0.3-0.3
      		C16.5,10.1,16.7,10.2,16.7,10.4z"/>
                <path fill="#C03A2B" d="M16.3,10.8c-0.2,0-0.4-0.2-0.4-0.4c0-0.2,0.2-0.4,0.4-0.4c0.2,0,0.4,0.2,0.4,0.4
      		C16.7,10.6,16.6,10.8,16.3,10.8z M16.3,10.1c-0.2,0-0.3,0.1-0.3,0.3c0,0.2,0.1,0.3,0.3,0.3c0.2,0,0.3-0.1,0.3-0.3
      		C16.6,10.2,16.5,10.1,16.3,10.1z"/>
            </g>
            <g>
                <path fill="#C03A2B" d="M16.3,11.9c0,0.1-0.1,0.2-0.2,0.2c-0.1,0-0.2-0.1-0.2-0.2c0-0.1,0.1-0.2,0.2-0.2
      		C16.2,11.7,16.3,11.8,16.3,11.9z"/>
                <path fill="#C03A2B" d="M16.1,12.1c-0.1,0-0.2-0.1-0.2-0.2c0-0.1,0.1-0.2,0.2-0.2c0.1,0,0.2,0.1,0.2,0.2
      		C16.3,12,16.2,12.1,16.1,12.1z M16.1,11.7c-0.1,0-0.1,0.1-0.1,0.1C16,12,16,12,16.1,12c0.1,0,0.1-0.1,0.1-0.1
      		C16.3,11.8,16.2,11.7,16.1,11.7z"/>
            </g>
            <g>
                <path fill="#C03A2B" d="M16.1,11.3c0,0.1-0.1,0.2-0.2,0.2c-0.1,0-0.2-0.1-0.2-0.2c0-0.1,0.1-0.2,0.2-0.2
      		C16,11.1,16.1,11.2,16.1,11.3z"/>
                <path fill="#C03A2B" d="M15.9,11.6c-0.1,0-0.2-0.1-0.2-0.2c0-0.1,0.1-0.2,0.2-0.2c0.1,0,0.2,0.1,0.2,0.2
      		C16.1,11.5,16,11.6,15.9,11.6z M15.9,11.2c-0.1,0-0.2,0.1-0.2,0.2c0,0.1,0.1,0.2,0.2,0.2c0.1,0,0.2-0.1,0.2-0.2
      		C16.1,11.2,16,11.2,15.9,11.2z"/>
            </g>
            <g>
                <path fill="#C03A2B" d="M15.4,11.3c0,0.1-0.1,0.2-0.2,0.2c-0.1,0-0.2-0.1-0.2-0.2c0-0.1,0.1-0.2,0.2-0.2
      		C15.3,11.1,15.4,11.2,15.4,11.3z"/>
                <path fill="#C03A2B" d="M15.2,11.6c-0.1,0-0.2-0.1-0.2-0.2c0-0.1,0.1-0.2,0.2-0.2c0.1,0,0.2,0.1,0.2,0.2
      		C15.5,11.5,15.4,11.6,15.2,11.6z M15.2,11.2c-0.1,0-0.2,0.1-0.2,0.2c0,0.1,0.1,0.2,0.2,0.2c0.1,0,0.2-0.1,0.2-0.2
      		C15.4,11.3,15.3,11.2,15.2,11.2z"/>
            </g>
            <g>
                <path fill="#C03A2B" d="M15.4,7.9c0,0.2-0.1,0.3-0.3,0.3c-0.2,0-0.3-0.1-0.3-0.3c0-0.2,0.1-0.3,0.3-0.3C15.3,7.6,15.4,7.7,15.4,7.9
      		z"/>
                <path fill="#C03A2B" d="M15.1,8.2c-0.2,0-0.3-0.2-0.3-0.3c0-0.2,0.2-0.3,0.3-0.3c0.2,0,0.3,0.2,0.3,0.3C15.5,8.1,15.3,8.2,15.1,8.2
      		z M15.1,7.6c-0.1,0-0.3,0.1-0.3,0.3c0,0.1,0.1,0.3,0.3,0.3c0.1,0,0.3-0.1,0.3-0.3C15.4,7.8,15.2,7.6,15.1,7.6z"/>
            </g>
            <g>
                <path fill="#C03A2B" d="M14.8,10.4c0,0.1-0.1,0.2-0.2,0.2c-0.1,0-0.2-0.1-0.2-0.2c0-0.1,0.1-0.2,0.2-0.2
      		C14.7,10.2,14.8,10.3,14.8,10.4z"/>
                <path fill="#C03A2B" d="M14.5,10.7c-0.1,0-0.3-0.1-0.3-0.3c0-0.1,0.1-0.3,0.3-0.3c0.1,0,0.3,0.1,0.3,0.3
      		C14.8,10.5,14.7,10.7,14.5,10.7z M14.5,10.2c-0.1,0-0.2,0.1-0.2,0.2c0,0.1,0.1,0.2,0.2,0.2c0.1,0,0.2-0.1,0.2-0.2
      		C14.7,10.3,14.6,10.2,14.5,10.2z"/>
            </g>
            <g>
                <path fill="#C03A2B" d="M15.1,9.4c0,0.1-0.1,0.2-0.2,0.2c-0.1,0-0.2-0.1-0.2-0.2c0-0.1,0.1-0.2,0.2-0.2C15,9.2,15.1,9.3,15.1,9.4z"/>
                <path fill="#C03A2B" d="M14.9,9.7c-0.1,0-0.2-0.1-0.2-0.2c0-0.1,0.1-0.2,0.2-0.2c0.1,0,0.2,0.1,0.2,0.2C15.1,9.5,15,9.7,14.9,9.7z
      		 M14.9,9.2c-0.1,0-0.2,0.1-0.2,0.2c0,0.1,0.1,0.2,0.2,0.2C15,9.6,15,9.5,15,9.4C15,9.3,15,9.2,14.9,9.2z"/>
            </g>
            <g>
                <path fill="#C03A2B" d="M16.6,7.5c0,0.2-0.2,0.3-0.3,0.3c-0.2,0-0.3-0.2-0.3-0.3c0-0.2,0.2-0.3,0.3-0.3C16.4,7.1,16.6,7.3,16.6,7.5
      		z"/>
                <path fill="#C03A2B" d="M16.2,7.9c-0.2,0-0.4-0.2-0.4-0.4c0-0.2,0.2-0.4,0.4-0.4c0.2,0,0.4,0.2,0.4,0.4C16.6,7.7,16.4,7.9,16.2,7.9
      		z M16.2,7.2c-0.2,0-0.3,0.1-0.3,0.3c0,0.2,0.1,0.3,0.3,0.3c0.2,0,0.3-0.1,0.3-0.3C16.5,7.3,16.4,7.2,16.2,7.2z"/>
            </g>
            <g>
                <path fill="#C03A2B" d="M15.3,5.5c0,0.2-0.2,0.3-0.3,0.3c-0.2,0-0.3-0.2-0.3-0.3c0-0.2,0.2-0.3,0.3-0.3C15.2,5.2,15.3,5.3,15.3,5.5
      		z"/>
                <path fill="#C03A2B" d="M15,5.9c-0.2,0-0.4-0.2-0.4-0.4c0-0.2,0.2-0.4,0.4-0.4c0.2,0,0.4,0.2,0.4,0.4C15.4,5.7,15.2,5.9,15,5.9z
      		 M15,5.2c-0.2,0-0.3,0.1-0.3,0.3c0,0.2,0.1,0.3,0.3,0.3c0.2,0,0.3-0.1,0.3-0.3C15.3,5.4,15.1,5.2,15,5.2z"/>
            </g>
            <g>
                <path fill="#C03A2B" d="M16,8.8C16,9,15.9,9,15.8,9c-0.1,0-0.2-0.1-0.2-0.2c0-0.1,0.1-0.2,0.2-0.2C15.9,8.6,16,8.7,16,8.8z"/>
                <path fill="#C03A2B" d="M15.8,9.1c-0.1,0-0.2-0.1-0.2-0.2c0-0.1,0.1-0.2,0.2-0.2c0.1,0,0.2,0.1,0.2,0.2C16,9,15.9,9.1,15.8,9.1z
      		 M15.8,8.7c-0.1,0-0.2,0.1-0.2,0.2c0,0.1,0.1,0.2,0.2,0.2c0.1,0,0.2-0.1,0.2-0.2C15.9,8.7,15.9,8.7,15.8,8.7z"/>
            </g>
            <path fill="#E64C3C" d="M63.9,11h2.9v8h-2.9V11z"/>
            <g>
                <path fill="#E64C3C" d="M64.2,10.6c0,0.1-0.1,0.2-0.2,0.2c-0.1,0-0.2-0.1-0.2-0.2c0-0.1,0.1-0.2,0.2-0.2
      		C64.1,10.5,64.2,10.5,64.2,10.6z"/>
                <path fill="#E64C3C" d="M64,10.9c-0.1,0-0.2-0.1-0.2-0.2c0-0.1,0.1-0.2,0.2-0.2c0.1,0,0.2,0.1,0.2,0.2C64.2,10.8,64.1,10.9,64,10.9
      		z M64,10.5c-0.1,0-0.2,0.1-0.2,0.2c0,0.1,0.1,0.2,0.2,0.2c0.1,0,0.2-0.1,0.2-0.2C64.2,10.6,64.1,10.5,64,10.5z"/>
            </g>
            <g>
                <path fill="#E64C3C" d="M65.8,10.3c0,0.4-0.4,0.8-0.8,0.8c-0.4,0-0.8-0.4-0.8-0.8c0-0.4,0.4-0.8,0.8-0.8
      		C65.4,9.5,65.8,9.9,65.8,10.3z"/>
                <path fill="#E64C3C" d="M65,11.3c-0.5,0-0.9-0.4-0.9-0.9c0-0.5,0.4-0.9,0.9-0.9c0.5,0,0.9,0.4,0.9,0.9C65.9,10.8,65.5,11.3,65,11.3
      		z M65,9.7c-0.4,0-0.7,0.3-0.7,0.7c0,0.4,0.3,0.7,0.7,0.7c0.4,0,0.7-0.3,0.7-0.7C65.7,10,65.4,9.7,65,9.7z"/>
            </g>
            <g>
                <path fill="#E64C3C" d="M66.8,9.1c0,0.1-0.1,0.3-0.3,0.3c-0.1,0-0.3-0.1-0.3-0.3c0-0.1,0.1-0.3,0.3-0.3C66.7,8.8,66.8,8.9,66.8,9.1
      		z"/>
                <path fill="#E64C3C" d="M66.6,9.4c-0.2,0-0.3-0.1-0.3-0.3c0-0.2,0.1-0.3,0.3-0.3c0.2,0,0.3,0.1,0.3,0.3C66.9,9.2,66.7,9.4,66.6,9.4
      		z M66.6,8.9c-0.1,0-0.2,0.1-0.2,0.2c0,0.1,0.1,0.2,0.2,0.2c0.1,0,0.2-0.1,0.2-0.2C66.8,9,66.7,8.9,66.6,8.9z"/>
            </g>
            <g>
                <path fill="#E64C3C" d="M64.4,11.1c0,0.1-0.1,0.2-0.2,0.2c-0.1,0-0.2-0.1-0.2-0.2c0-0.1,0.1-0.2,0.2-0.2
      		C64.2,10.8,64.4,10.9,64.4,11.1z"/>
                <path fill="#E64C3C" d="M64.1,11.3c-0.1,0-0.3-0.1-0.3-0.3c0-0.1,0.1-0.3,0.3-0.3c0.1,0,0.3,0.1,0.3,0.3
      		C64.4,11.2,64.3,11.3,64.1,11.3z M64.1,10.9c-0.1,0-0.2,0.1-0.2,0.2c0,0.1,0.1,0.2,0.2,0.2c0.1,0,0.2-0.1,0.2-0.2
      		C64.3,11,64.2,10.9,64.1,10.9z"/>
            </g>
            <g>
                <path fill="#E64C3C" d="M66.6,10.8c0,0.2-0.2,0.4-0.4,0.4c-0.2,0-0.4-0.2-0.4-0.4c0-0.2,0.2-0.4,0.4-0.4
      		C66.5,10.4,66.6,10.6,66.6,10.8z"/>
                <path fill="#E64C3C" d="M66.2,11.3c-0.3,0-0.5-0.2-0.5-0.5c0-0.3,0.2-0.5,0.5-0.5c0.3,0,0.5,0.2,0.5,0.5
      		C66.7,11.1,66.5,11.3,66.2,11.3z M66.2,10.5c-0.2,0-0.4,0.2-0.4,0.4c0,0.2,0.2,0.4,0.4,0.4c0.2,0,0.4-0.2,0.4-0.4
      		C66.6,10.6,66.4,10.5,66.2,10.5z"/>
            </g>
            <g>
                <path fill="#E64C3C" d="M66.7,9.9c0,0.3-0.2,0.5-0.5,0.5c-0.3,0-0.5-0.2-0.5-0.5c0-0.3,0.2-0.5,0.5-0.5C66.4,9.4,66.7,9.6,66.7,9.9
      		z"/>
                <path fill="#E64C3C" d="M66.1,10.5c-0.3,0-0.6-0.3-0.6-0.6c0-0.3,0.3-0.6,0.6-0.6c0.3,0,0.6,0.3,0.6,0.6
      		C66.8,10.2,66.5,10.5,66.1,10.5z M66.1,9.5c-0.2,0-0.4,0.2-0.4,0.4c0,0.2,0.2,0.4,0.4,0.4c0.2,0,0.4-0.2,0.4-0.4
      		C66.6,9.7,66.4,9.5,66.1,9.5z"/>
            </g>
            <g>
                <path fill="#E64C3C" d="M66.1,8.8c0,0.3-0.2,0.5-0.5,0.5c-0.3,0-0.5-0.2-0.5-0.5c0-0.3,0.2-0.5,0.5-0.5C65.8,8.3,66.1,8.5,66.1,8.8
      		z"/>
                <path fill="#E64C3C" d="M65.5,9.4c-0.3,0-0.6-0.3-0.6-0.6c0-0.3,0.3-0.6,0.6-0.6c0.3,0,0.6,0.3,0.6,0.6C66.1,9.1,65.9,9.4,65.5,9.4
      		z M65.5,8.3c-0.2,0-0.4,0.2-0.4,0.4c0,0.2,0.2,0.4,0.4,0.4C65.8,9.2,66,9,66,8.8C66,8.5,65.8,8.3,65.5,8.3z"/>
            </g>
            <g>
                <path fill="#E64C3C" d="M64.4,10.1c0,0.1-0.1,0.3-0.3,0.3c-0.1,0-0.3-0.1-0.3-0.3c0-0.1,0.1-0.3,0.3-0.3
      		C64.3,9.9,64.4,10,64.4,10.1z"/>
                <path fill="#E64C3C" d="M64.1,10.4c-0.2,0-0.3-0.1-0.3-0.3c0-0.2,0.1-0.3,0.3-0.3c0.2,0,0.3,0.1,0.3,0.3
      		C64.4,10.3,64.3,10.4,64.1,10.4z M64.1,9.9c-0.1,0-0.2,0.1-0.2,0.2c0,0.1,0.1,0.2,0.2,0.2c0.1,0,0.2-0.1,0.2-0.2
      		C64.3,10,64.2,9.9,64.1,9.9z"/>
            </g>
            <g>
                <path fill="#E64C3C" d="M64.4,9.6c0,0.1-0.1,0.2-0.2,0.2c-0.1,0-0.2-0.1-0.2-0.2c0-0.1,0.1-0.2,0.2-0.2C64.2,9.3,64.4,9.5,64.4,9.6
      		z"/>
                <path fill="#E64C3C" d="M64.1,9.9c-0.1,0-0.3-0.1-0.3-0.3c0-0.1,0.1-0.3,0.3-0.3c0.1,0,0.3,0.1,0.3,0.3C64.4,9.7,64.3,9.9,64.1,9.9
      		z M64.1,9.4c-0.1,0-0.2,0.1-0.2,0.2c0,0.1,0.1,0.2,0.2,0.2c0.1,0,0.2-0.1,0.2-0.2C64.3,9.5,64.2,9.4,64.1,9.4z"/>
            </g>
            <g>
                <path fill="#E64C3C" d="M65.2,9.2c0,0.2-0.1,0.3-0.3,0.3c-0.2,0-0.3-0.1-0.3-0.3c0-0.2,0.1-0.3,0.3-0.3C65,8.9,65.2,9.1,65.2,9.2z"/>
                <path fill="#E64C3C" d="M64.8,9.6c-0.2,0-0.4-0.2-0.4-0.4c0-0.2,0.2-0.4,0.4-0.4c0.2,0,0.4,0.2,0.4,0.4C65.2,9.5,65.1,9.6,64.8,9.6
      		z M64.8,9c-0.2,0-0.3,0.1-0.3,0.3c0,0.2,0.1,0.3,0.3,0.3c0.2,0,0.3-0.1,0.3-0.3C65.1,9.1,65,9,64.8,9z"/>
            </g>
            <g>
                <path fill="#E64C3C" d="M64.8,8.7C64.8,8.8,64.8,8.8,64.8,8.7c-0.1,0.1-0.2,0-0.2,0C64.7,8.7,64.7,8.7,64.8,8.7
      		C64.8,8.7,64.8,8.7,64.8,8.7z"/>
                <path fill="#E64C3C" d="M64.7,8.8C64.7,8.8,64.7,8.8,64.7,8.8c-0.1-0.1,0-0.2,0-0.2C64.8,8.6,64.8,8.7,64.7,8.8
      		C64.8,8.8,64.8,8.8,64.7,8.8z M64.7,8.7C64.7,8.7,64.7,8.7,64.7,8.7c-0.1,0.1,0,0.1,0,0.1C64.8,8.8,64.8,8.8,64.7,8.7
      		C64.8,8.7,64.8,8.7,64.7,8.7z"/>
            </g>
            <g>
                <path fill="#E64C3C" d="M65,8.3C65,8.4,65,8.4,65,8.3c-0.1,0.1-0.2,0-0.2,0C64.8,8.3,64.9,8.2,65,8.3C65,8.2,65,8.3,65,8.3z"/>
                <path fill="#E64C3C" d="M64.9,8.4C64.9,8.4,64.8,8.4,64.9,8.4c-0.1-0.1,0-0.2,0-0.2S65,8.3,64.9,8.4C65,8.4,65,8.4,64.9,8.4z
      		 M64.9,8.3C64.9,8.3,64.9,8.3,64.9,8.3c-0.1,0.1,0,0.1,0,0.1C65,8.4,65,8.4,64.9,8.3C65,8.3,65,8.3,64.9,8.3z"/>
            </g>
            <g>
                <path fill="#E64C3C" d="M66.5,8.6c0,0.1-0.1,0.1-0.1,0.1c-0.1,0-0.1-0.1-0.1-0.1c0-0.1,0.1-0.1,0.1-0.1C66.4,8.4,66.5,8.5,66.5,8.6
      		z"/>
                <path fill="#E64C3C" d="M66.4,8.7c-0.1,0-0.2-0.1-0.2-0.2c0-0.1,0.1-0.2,0.2-0.2c0.1,0,0.2,0.1,0.2,0.2C66.5,8.7,66.5,8.7,66.4,8.7
      		z M66.4,8.4c-0.1,0-0.1,0.1-0.1,0.1c0,0.1,0.1,0.1,0.1,0.1c0.1,0,0.1-0.1,0.1-0.1C66.5,8.5,66.4,8.4,66.4,8.4z"/>
            </g>
            <g>
                <path fill="#E64C3C" d="M65.1,7.9c0,0.2-0.1,0.3-0.3,0.3c-0.2,0-0.3-0.1-0.3-0.3c0-0.2,0.1-0.3,0.3-0.3C65,7.6,65.1,7.8,65.1,7.9z"/>
                <path fill="#E64C3C" d="M64.8,8.3c-0.2,0-0.4-0.2-0.4-0.4c0-0.2,0.2-0.4,0.4-0.4c0.2,0,0.4,0.2,0.4,0.4C65.2,8.2,65,8.3,64.8,8.3z
      		 M64.8,7.7c-0.2,0-0.3,0.1-0.3,0.3c0,0.2,0.1,0.3,0.3,0.3c0.2,0,0.3-0.1,0.3-0.3C65.1,7.8,65,7.7,64.8,7.7z"/>
            </g>
            <g>
                <path fill="#E64C3C" d="M65.6,8c0,0.1-0.1,0.3-0.3,0.3S65.1,8.1,65.1,8c0-0.1,0.1-0.3,0.3-0.3S65.6,7.8,65.6,8z"/>
                <path fill="#E64C3C" d="M65.4,8.3c-0.2,0-0.3-0.1-0.3-0.3c0-0.2,0.1-0.3,0.3-0.3c0.2,0,0.3,0.1,0.3,0.3C65.7,8.1,65.5,8.3,65.4,8.3
      		z M65.4,7.8c-0.1,0-0.2,0.1-0.2,0.2c0,0.1,0.1,0.2,0.2,0.2c0.1,0,0.2-0.1,0.2-0.2C65.6,7.8,65.5,7.8,65.4,7.8z"/>
            </g>
            <g>
                <path fill="#E64C3C" d="M66.5,8.2c0,0.1-0.1,0.2-0.2,0.2c-0.1,0-0.2-0.1-0.2-0.2c0-0.1,0.1-0.2,0.2-0.2C66.4,8,66.5,8.1,66.5,8.2z"/>
                <path fill="#E64C3C" d="M66.3,8.4c-0.1,0-0.2-0.1-0.2-0.2c0-0.1,0.1-0.2,0.2-0.2c0.1,0,0.2,0.1,0.2,0.2C66.5,8.3,66.4,8.4,66.3,8.4
      		z M66.3,8c-0.1,0-0.2,0.1-0.2,0.2c0,0.1,0.1,0.2,0.2,0.2c0.1,0,0.2-0.1,0.2-0.2C66.5,8.1,66.4,8,66.3,8z"/>
            </g>
            <g>
                <path fill="#E64C3C" d="M64.6,8.4c0,0.1-0.1,0.2-0.2,0.2s-0.2-0.1-0.2-0.2c0-0.1,0.1-0.2,0.2-0.2S64.6,8.3,64.6,8.4z"/>
                <path fill="#E64C3C" d="M64.5,8.6c-0.1,0-0.2-0.1-0.2-0.2c0-0.1,0.1-0.2,0.2-0.2c0.1,0,0.2,0.1,0.2,0.2C64.7,8.5,64.6,8.6,64.5,8.6
      		z M64.5,8.2c-0.1,0-0.2,0.1-0.2,0.2c0,0.1,0.1,0.2,0.2,0.2c0.1,0,0.2-0.1,0.2-0.2C64.6,8.3,64.5,8.2,64.5,8.2z"/>
            </g>
            <g>
                <path fill="#E64C3C" d="M64.6,9.1c0,0.2-0.2,0.4-0.4,0.4c-0.2,0-0.4-0.2-0.4-0.4c0-0.2,0.2-0.4,0.4-0.4C64.4,8.7,64.6,8.9,64.6,9.1
      		z"/>
                <path fill="#E64C3C" d="M64.2,9.5c-0.2,0-0.4-0.2-0.4-0.4c0-0.2,0.2-0.4,0.4-0.4c0.2,0,0.4,0.2,0.4,0.4C64.7,9.3,64.5,9.5,64.2,9.5
      		z M64.2,8.8c-0.2,0-0.3,0.1-0.3,0.3c0,0.2,0.1,0.3,0.3,0.3c0.2,0,0.3-0.1,0.3-0.3C64.5,8.9,64.4,8.8,64.2,8.8z"/>
            </g>
            <g>
                <path fill="#E64C3C" d="M66.7,7.4c0,0.2-0.1,0.3-0.3,0.3c-0.2,0-0.3-0.1-0.3-0.3c0-0.2,0.1-0.3,0.3-0.3C66.5,7.1,66.7,7.2,66.7,7.4
      		z"/>
                <path fill="#E64C3C" d="M66.3,7.8c-0.2,0-0.4-0.2-0.4-0.4c0-0.2,0.2-0.4,0.4-0.4c0.2,0,0.4,0.2,0.4,0.4C66.7,7.6,66.5,7.8,66.3,7.8
      		z M66.3,7.1c-0.2,0-0.3,0.1-0.3,0.3c0,0.2,0.1,0.3,0.3,0.3c0.2,0,0.3-0.1,0.3-0.3C66.6,7.2,66.5,7.1,66.3,7.1z"/>
            </g>
            <g>
                <path fill="#E64C3C" d="M66.5,9.1c0,0.2-0.2,0.3-0.3,0.3c-0.2,0-0.3-0.2-0.3-0.3c0-0.2,0.2-0.3,0.3-0.3C66.4,8.7,66.5,8.9,66.5,9.1
      		z"/>
                <path fill="#E64C3C" d="M66.2,9.5c-0.2,0-0.4-0.2-0.4-0.4c0-0.2,0.2-0.4,0.4-0.4c0.2,0,0.4,0.2,0.4,0.4C66.6,9.3,66.4,9.5,66.2,9.5
      		z M66.2,8.8c-0.2,0-0.3,0.1-0.3,0.3c0,0.2,0.1,0.3,0.3,0.3c0.2,0,0.3-0.1,0.3-0.3C66.5,8.9,66.4,8.8,66.2,8.8z"/>
            </g>
            <g>
                <path fill="#E64C3C" d="M64.7,7.4c0,0.2-0.2,0.3-0.3,0.3c-0.2,0-0.3-0.2-0.3-0.3c0-0.2,0.2-0.3,0.3-0.3C64.6,7.1,64.7,7.2,64.7,7.4
      		z"/>
                <path fill="#E64C3C" d="M64.4,7.8c-0.2,0-0.4-0.2-0.4-0.4C64,7.2,64.2,7,64.4,7c0.2,0,0.4,0.2,0.4,0.4C64.8,7.6,64.6,7.8,64.4,7.8z
      		 M64.4,7.1c-0.2,0-0.3,0.1-0.3,0.3c0,0.2,0.1,0.3,0.3,0.3c0.2,0,0.3-0.1,0.3-0.3C64.7,7.2,64.6,7.1,64.4,7.1z"/>
            </g>
            <g>
                <path fill="#E64C3C" d="M65.8,6.6c0,0.2-0.2,0.3-0.3,0.3c-0.2,0-0.3-0.2-0.3-0.3c0-0.2,0.2-0.3,0.3-0.3C65.7,6.3,65.8,6.4,65.8,6.6
      		z"/>
                <path fill="#E64C3C" d="M65.5,7c-0.2,0-0.4-0.2-0.4-0.4c0-0.2,0.2-0.4,0.4-0.4c0.2,0,0.4,0.2,0.4,0.4C65.9,6.8,65.7,7,65.5,7z
      		 M65.5,6.3c-0.2,0-0.3,0.1-0.3,0.3c0,0.2,0.1,0.3,0.3,0.3c0.2,0,0.3-0.1,0.3-0.3C65.8,6.4,65.6,6.3,65.5,6.3z"/>
            </g>
            <g>
                <path fill="#E64C3C" d="M66.1,7.9c0,0.1-0.1,0.2-0.2,0.2c-0.1,0-0.2-0.1-0.2-0.2c0-0.1,0.1-0.2,0.2-0.2C66,7.8,66.1,7.8,66.1,7.9z"/>
                <path fill="#E64C3C" d="M65.9,8.1c-0.1,0-0.2-0.1-0.2-0.2c0-0.1,0.1-0.2,0.2-0.2c0.1,0,0.2,0.1,0.2,0.2C66.1,8,66,8.1,65.9,8.1z
      		 M65.9,7.8c-0.1,0-0.1,0.1-0.1,0.1c0,0.1,0.1,0.1,0.1,0.1c0.1,0,0.1-0.1,0.1-0.1C66.1,7.9,66,7.8,65.9,7.8z"/>
            </g>
            <g>
                <path fill="#E64C3C" d="M65.9,7.4c0,0.1-0.1,0.2-0.2,0.2c-0.1,0-0.2-0.1-0.2-0.2c0-0.1,0.1-0.2,0.2-0.2C65.8,7.2,65.9,7.3,65.9,7.4
      		z"/>
                <path fill="#E64C3C" d="M65.7,7.7c-0.1,0-0.2-0.1-0.2-0.2c0-0.1,0.1-0.2,0.2-0.2c0.1,0,0.2,0.1,0.2,0.2C65.9,7.5,65.8,7.7,65.7,7.7
      		z M65.7,7.2c-0.1,0-0.2,0.1-0.2,0.2c0,0.1,0.1,0.2,0.2,0.2c0.1,0,0.2-0.1,0.2-0.2C65.9,7.3,65.8,7.2,65.7,7.2z"/>
            </g>
            <g>
                <path fill="#E64C3C" d="M65.3,7.4c0,0.1-0.1,0.2-0.2,0.2c-0.1,0-0.2-0.1-0.2-0.2c0-0.1,0.1-0.2,0.2-0.2C65.2,7.2,65.3,7.3,65.3,7.4
      		z"/>
                <path fill="#E64C3C" d="M65.1,7.6c-0.1,0-0.2-0.1-0.2-0.2c0-0.1,0.1-0.2,0.2-0.2c0.1,0,0.2,0.1,0.2,0.2C65.3,7.5,65.2,7.6,65.1,7.6
      		z M65.1,7.2c-0.1,0-0.2,0.1-0.2,0.2c0,0.1,0.1,0.2,0.2,0.2c0.1,0,0.2-0.1,0.2-0.2C65.2,7.3,65.2,7.2,65.1,7.2z"/>
            </g>
            <g>
                <path fill="#E64C3C" d="M64.6,6.5c0,0.1-0.1,0.2-0.2,0.2s-0.2-0.1-0.2-0.2c0-0.1,0.1-0.2,0.2-0.2S64.6,6.3,64.6,6.5z"/>
                <path fill="#E64C3C" d="M64.4,6.7c-0.1,0-0.3-0.1-0.3-0.3c0-0.1,0.1-0.3,0.3-0.3c0.1,0,0.3,0.1,0.3,0.3C64.6,6.6,64.5,6.7,64.4,6.7
      		z M64.4,6.3c-0.1,0-0.2,0.1-0.2,0.2c0,0.1,0.1,0.2,0.2,0.2c0.1,0,0.2-0.1,0.2-0.2C64.6,6.4,64.5,6.3,64.4,6.3z"/>
            </g>
            <g>
                <path fill="#E64C3C" d="M64.9,5.5c0,0.1-0.1,0.2-0.2,0.2s-0.2-0.1-0.2-0.2c0-0.1,0.1-0.2,0.2-0.2S64.9,5.4,64.9,5.5z"/>
                <path fill="#E64C3C" d="M64.7,5.7c-0.1,0-0.2-0.1-0.2-0.2c0-0.1,0.1-0.2,0.2-0.2c0.1,0,0.2,0.1,0.2,0.2C64.9,5.6,64.8,5.7,64.7,5.7
      		z M64.7,5.3c-0.1,0-0.2,0.1-0.2,0.2c0,0.1,0.1,0.2,0.2,0.2c0.1,0,0.2-0.1,0.2-0.2C64.9,5.4,64.8,5.3,64.7,5.3z"/>
            </g>
            <g>
                <path fill="#E64C3C" d="M66.2,2.2c0,0.2-0.2,0.3-0.3,0.3c-0.2,0-0.3-0.2-0.3-0.3c0-0.2,0.2-0.3,0.3-0.3C66,1.8,66.2,2,66.2,2.2z"/>
                <path fill="#E64C3C" d="M65.8,2.6c-0.2,0-0.4-0.2-0.4-0.4c0-0.2,0.2-0.4,0.4-0.4c0.2,0,0.4,0.2,0.4,0.4C66.2,2.4,66,2.6,65.8,2.6z
      		 M65.8,1.9c-0.2,0-0.3,0.1-0.3,0.3c0,0.2,0.1,0.3,0.3,0.3c0.2,0,0.3-0.1,0.3-0.3C66.1,2,66,1.9,65.8,1.9z"/>
            </g>
            <g>
                <path fill="#E64C3C" d="M65.4,0.4c0,0.2-0.2,0.3-0.3,0.3c-0.2,0-0.3-0.2-0.3-0.3c0-0.2,0.2-0.3,0.3-0.3C65.2,0.1,65.4,0.2,65.4,0.4
      		z"/>
                <path fill="#E64C3C" d="M65,0.8c-0.2,0-0.4-0.2-0.4-0.4C64.6,0.2,64.8,0,65,0c0.2,0,0.4,0.2,0.4,0.4C65.4,0.6,65.2,0.8,65,0.8z
      		 M65,0.1c-0.2,0-0.3,0.1-0.3,0.3c0,0.2,0.1,0.3,0.3,0.3c0.2,0,0.3-0.1,0.3-0.3C65.3,0.2,65.2,0.1,65,0.1z"/>
            </g>
            <g>
                <path fill="#E64C3C" d="M65.8,4.9c0,0.1-0.1,0.2-0.2,0.2S65.4,5,65.4,4.9c0-0.1,0.1-0.2,0.2-0.2S65.8,4.8,65.8,4.9z"/>
                <path fill="#E64C3C" d="M65.6,5.1c-0.1,0-0.2-0.1-0.2-0.2c0-0.1,0.1-0.2,0.2-0.2c0.1,0,0.2,0.1,0.2,0.2C65.8,5,65.7,5.1,65.6,5.1z
      		 M65.6,4.7c-0.1,0-0.2,0.1-0.2,0.2c0,0.1,0.1,0.2,0.2,0.2c0.1,0,0.2-0.1,0.2-0.2C65.8,4.8,65.7,4.7,65.6,4.7z"/>
            </g>
            <path fill="#E66558" d="M103.9,13.1h2.9v5.8h-2.9V13.1z"/>
            <g>
                <path fill="#E66558" d="M104.2,13.5c0,0.1-0.1,0.2-0.2,0.2s-0.2-0.1-0.2-0.2c0-0.1,0.1-0.2,0.2-0.2S104.2,13.4,104.2,13.5z"/>
                <path fill="#E66558" d="M104.1,13.7c-0.1,0-0.2-0.1-0.2-0.2c0-0.1,0.1-0.2,0.2-0.2s0.2,0.1,0.2,0.2
      		C104.3,13.6,104.2,13.7,104.1,13.7z M104.1,13.4c-0.1,0-0.2,0.1-0.2,0.2c0,0.1,0.1,0.2,0.2,0.2c0.1,0,0.2-0.1,0.2-0.2
      		C104.2,13.4,104.1,13.4,104.1,13.4z"/>
            </g>
            <g>
                <path fill="#E66558" d="M105.8,13.2c0,0.4-0.4,0.8-0.8,0.8c-0.4,0-0.8-0.4-0.8-0.8c0-0.4,0.4-0.8,0.8-0.8
      		C105.5,12.4,105.8,12.8,105.8,13.2z"/>
                <path fill="#E66558" d="M105,14.1c-0.5,0-0.9-0.4-0.9-0.9c0-0.5,0.4-0.9,0.9-0.9c0.5,0,0.9,0.4,0.9,0.9
      		C106,13.7,105.5,14.1,105,14.1z M105,12.5c-0.4,0-0.7,0.3-0.7,0.7c0,0.4,0.3,0.7,0.7,0.7c0.4,0,0.7-0.3,0.7-0.7
      		C105.7,12.8,105.4,12.5,105,12.5z"/>
            </g>
            <g>
                <path fill="#E66558" d="M106.9,12c0,0.1-0.1,0.3-0.3,0.3c-0.1,0-0.3-0.1-0.3-0.3c0-0.1,0.1-0.3,0.3-0.3
      		C106.8,11.7,106.9,11.8,106.9,12z"/>
                <path fill="#E66558" d="M106.6,12.3c-0.2,0-0.3-0.1-0.3-0.3c0-0.2,0.1-0.3,0.3-0.3c0.2,0,0.3,0.1,0.3,0.3
      		C106.9,12.1,106.8,12.3,106.6,12.3z M106.6,11.7c-0.1,0-0.2,0.1-0.2,0.2c0,0.1,0.1,0.2,0.2,0.2c0.1,0,0.2-0.1,0.2-0.2
      		C106.8,11.8,106.7,11.7,106.6,11.7z"/>
            </g>
            <g>
                <path fill="#E66558" d="M104.4,13.9c0,0.1-0.1,0.2-0.2,0.2c-0.1,0-0.2-0.1-0.2-0.2c0-0.1,0.1-0.2,0.2-0.2
      		C104.3,13.7,104.4,13.8,104.4,13.9z"/>
                <path fill="#E66558" d="M104.2,14.2c-0.1,0-0.3-0.1-0.3-0.3c0-0.1,0.1-0.3,0.3-0.3c0.1,0,0.3,0.1,0.3,0.3
      		C104.4,14.1,104.3,14.2,104.2,14.2z M104.2,13.7c-0.1,0-0.2,0.1-0.2,0.2c0,0.1,0.1,0.2,0.2,0.2c0.1,0,0.2-0.1,0.2-0.2
      		C104.4,13.8,104.3,13.7,104.2,13.7z"/>
            </g>
            <g>
                <path fill="#E66558" d="M106.7,13.7c0,0.2-0.2,0.4-0.4,0.4c-0.2,0-0.4-0.2-0.4-0.4c0-0.2,0.2-0.4,0.4-0.4
      		C106.5,13.3,106.7,13.5,106.7,13.7z"/>
                <path fill="#E66558" d="M106.3,14.2c-0.3,0-0.5-0.2-0.5-0.5c0-0.3,0.2-0.5,0.5-0.5c0.3,0,0.5,0.2,0.5,0.5
      		C106.8,14,106.5,14.2,106.3,14.2z M106.3,13.3c-0.2,0-0.4,0.2-0.4,0.4c0,0.2,0.2,0.4,0.4,0.4c0.2,0,0.4-0.2,0.4-0.4
      		C106.6,13.5,106.5,13.3,106.3,13.3z"/>
            </g>
            <g>
                <path fill="#E66558" d="M106.7,12.8c0,0.3-0.2,0.5-0.5,0.5c-0.3,0-0.5-0.2-0.5-0.5c0-0.3,0.2-0.5,0.5-0.5
      		C106.5,12.3,106.7,12.5,106.7,12.8z"/>
                <path fill="#E66558" d="M106.2,13.4c-0.3,0-0.6-0.3-0.6-0.6c0-0.3,0.3-0.6,0.6-0.6c0.3,0,0.6,0.3,0.6,0.6
      		C106.8,13.1,106.5,13.4,106.2,13.4z M106.2,12.3c-0.2,0-0.4,0.2-0.4,0.4c0,0.2,0.2,0.4,0.4,0.4c0.2,0,0.4-0.2,0.4-0.4
      		C106.6,12.5,106.4,12.3,106.2,12.3z"/>
            </g>
            <g>
                <path fill="#E66558" d="M106.1,11.7c0,0.3-0.2,0.5-0.5,0.5c-0.3,0-0.5-0.2-0.5-0.5c0-0.3,0.2-0.5,0.5-0.5
      		C105.9,11.1,106.1,11.4,106.1,11.7z"/>
                <path fill="#E66558" d="M105.6,12.3c-0.3,0-0.6-0.3-0.6-0.6c0-0.3,0.3-0.6,0.6-0.6c0.3,0,0.6,0.3,0.6,0.6
      		C106.2,12,105.9,12.3,105.6,12.3z M105.6,11.2c-0.2,0-0.4,0.2-0.4,0.4c0,0.2,0.2,0.4,0.4,0.4c0.2,0,0.4-0.2,0.4-0.4
      		C106,11.4,105.8,11.2,105.6,11.2z"/>
            </g>
            <g>
                <path fill="#E66558" d="M104.4,13c0,0.1-0.1,0.3-0.3,0.3c-0.1,0-0.3-0.1-0.3-0.3c0-0.1,0.1-0.3,0.3-0.3
      		C104.3,12.8,104.4,12.9,104.4,13z"/>
                <path fill="#E66558" d="M104.2,13.3c-0.2,0-0.3-0.1-0.3-0.3c0-0.2,0.1-0.3,0.3-0.3c0.2,0,0.3,0.1,0.3,0.3
      		C104.5,13.2,104.3,13.3,104.2,13.3z M104.2,12.8c-0.1,0-0.2,0.1-0.2,0.2c0,0.1,0.1,0.2,0.2,0.2c0.1,0,0.2-0.1,0.2-0.2
      		C104.4,12.9,104.3,12.8,104.2,12.8z"/>
            </g>
            <g>
                <path fill="#E66558" d="M104.4,12.5c0,0.1-0.1,0.2-0.2,0.2c-0.1,0-0.2-0.1-0.2-0.2c0-0.1,0.1-0.2,0.2-0.2
      		C104.3,12.2,104.4,12.3,104.4,12.5z"/>
                <path fill="#E66558" d="M104.2,12.7c-0.1,0-0.3-0.1-0.3-0.3c0-0.1,0.1-0.3,0.3-0.3c0.1,0,0.3,0.1,0.3,0.3
      		C104.4,12.6,104.3,12.7,104.2,12.7z M104.2,12.3c-0.1,0-0.2,0.1-0.2,0.2c0,0.1,0.1,0.2,0.2,0.2c0.1,0,0.2-0.1,0.2-0.2
      		C104.4,12.3,104.3,12.3,104.2,12.3z"/>
            </g>
            <g>
                <path fill="#E66558" d="M105.2,12.1c0,0.2-0.1,0.3-0.3,0.3c-0.2,0-0.3-0.1-0.3-0.3c0-0.2,0.1-0.3,0.3-0.3
      		C105.1,11.8,105.2,11.9,105.2,12.1z"/>
                <path fill="#E66558" d="M104.9,12.5c-0.2,0-0.4-0.2-0.4-0.4c0-0.2,0.2-0.4,0.4-0.4c0.2,0,0.4,0.2,0.4,0.4
      		C105.3,12.3,105.1,12.5,104.9,12.5z M104.9,11.8c-0.2,0-0.3,0.1-0.3,0.3c0,0.2,0.1,0.3,0.3,0.3c0.2,0,0.3-0.1,0.3-0.3
      		C105.2,12,105.1,11.8,104.9,11.8z"/>
            </g>
            <g>
                <path fill="#E66558" d="M104.9,11.6C104.9,11.7,104.8,11.7,104.9,11.6c-0.1,0.1-0.2,0-0.2,0C104.7,11.6,104.8,11.5,104.9,11.6
      		C104.8,11.5,104.9,11.6,104.9,11.6z"/>
                <path fill="#E66558" d="M104.8,11.7C104.8,11.7,104.7,11.7,104.8,11.7c-0.1-0.1,0-0.2,0-0.2C104.9,11.5,104.9,11.6,104.8,11.7
      		C104.9,11.7,104.9,11.7,104.8,11.7z M104.8,11.6C104.8,11.6,104.7,11.6,104.8,11.6c-0.1,0.1,0,0.1,0,0.1
      		C104.8,11.7,104.9,11.7,104.8,11.6C104.9,11.6,104.8,11.6,104.8,11.6z"/>
            </g>
            <g>
                <path fill="#E66558" d="M105.1,11.2C105.1,11.2,105,11.3,105.1,11.2c-0.1,0.1-0.2,0-0.2,0C104.9,11.2,104.9,11.1,105.1,11.2
      		C105,11.1,105.1,11.2,105.1,11.2z"/>
                <path fill="#E66558" d="M105,11.3C104.9,11.3,104.9,11.2,105,11.3c-0.1-0.1,0-0.2,0-0.2S105.1,11.2,105,11.3
      		C105.1,11.2,105,11.3,105,11.3z M105,11.1C104.9,11.1,104.9,11.2,105,11.1c-0.1,0.1,0,0.1,0,0.1C105,11.3,105,11.2,105,11.1
      		C105,11.2,105,11.1,105,11.1z"/>
            </g>
            <g>
                <path fill="#E66558" d="M106.6,11.4c0,0.1-0.1,0.1-0.1,0.1c-0.1,0-0.1-0.1-0.1-0.1c0-0.1,0.1-0.1,0.1-0.1
      		C106.5,11.3,106.6,11.4,106.6,11.4z"/>
                <path fill="#E66558" d="M106.4,11.6c-0.1,0-0.2-0.1-0.2-0.2c0-0.1,0.1-0.2,0.2-0.2c0.1,0,0.2,0.1,0.2,0.2
      		C106.6,11.5,106.5,11.6,106.4,11.6z M106.4,11.3c-0.1,0-0.1,0.1-0.1,0.1c0,0.1,0.1,0.1,0.1,0.1c0.1,0,0.1-0.1,0.1-0.1
      		C106.5,11.4,106.5,11.3,106.4,11.3z"/>
            </g>
            <g>
                <path fill="#E66558" d="M105.2,10.8c0,0.2-0.1,0.3-0.3,0.3c-0.2,0-0.3-0.1-0.3-0.3c0-0.2,0.1-0.3,0.3-0.3
      		C105.1,10.5,105.2,10.6,105.2,10.8z"/>
                <path fill="#E66558" d="M104.9,11.2c-0.2,0-0.4-0.2-0.4-0.4c0-0.2,0.2-0.4,0.4-0.4c0.2,0,0.4,0.2,0.4,0.4
      		C105.3,11,105.1,11.2,104.9,11.2z M104.9,10.5c-0.2,0-0.3,0.1-0.3,0.3c0,0.2,0.1,0.3,0.3,0.3c0.2,0,0.3-0.1,0.3-0.3
      		C105.1,10.7,105,10.5,104.9,10.5z"/>
            </g>
            <g>
                <path fill="#E66558" d="M105.7,10.8c0,0.1-0.1,0.3-0.3,0.3s-0.3-0.1-0.3-0.3c0-0.1,0.1-0.3,0.3-0.3S105.7,10.7,105.7,10.8z"/>
                <path fill="#E66558" d="M105.4,11.1c-0.2,0-0.3-0.1-0.3-0.3c0-0.2,0.1-0.3,0.3-0.3c0.2,0,0.3,0.1,0.3,0.3
      		C105.7,11,105.6,11.1,105.4,11.1z M105.4,10.6c-0.1,0-0.2,0.1-0.2,0.2c0,0.1,0.1,0.2,0.2,0.2c0.1,0,0.2-0.1,0.2-0.2
      		C105.6,10.7,105.5,10.6,105.4,10.6z"/>
            </g>
            <g>
                <path fill="#E66558" d="M106.6,11.1c0,0.1-0.1,0.2-0.2,0.2c-0.1,0-0.2-0.1-0.2-0.2c0-0.1,0.1-0.2,0.2-0.2
      		C106.5,10.9,106.6,11,106.6,11.1z"/>
                <path fill="#E66558" d="M106.4,11.3c-0.1,0-0.2-0.1-0.2-0.2c0-0.1,0.1-0.2,0.2-0.2c0.1,0,0.2,0.1,0.2,0.2
      		C106.6,11.2,106.5,11.3,106.4,11.3z M106.4,10.9c-0.1,0-0.2,0.1-0.2,0.2c0,0.1,0.1,0.2,0.2,0.2c0.1,0,0.2-0.1,0.2-0.2
      		C106.5,11,106.5,10.9,106.4,10.9z"/>
            </g>
            <g>
                <path fill="#E66558" d="M104.7,11.3c0,0.1-0.1,0.2-0.2,0.2s-0.2-0.1-0.2-0.2c0-0.1,0.1-0.2,0.2-0.2S104.7,11.2,104.7,11.3z"/>
                <path fill="#E66558" d="M104.5,11.5c-0.1,0-0.2-0.1-0.2-0.2c0-0.1,0.1-0.2,0.2-0.2c0.1,0,0.2,0.1,0.2,0.2
      		C104.7,11.4,104.6,11.5,104.5,11.5z M104.5,11.1c-0.1,0-0.2,0.1-0.2,0.2c0,0.1,0.1,0.2,0.2,0.2c0.1,0,0.2-0.1,0.2-0.2
      		C104.7,11.2,104.6,11.1,104.5,11.1z"/>
            </g>
            <g>
                <path fill="#E66558" d="M104.7,12c0,0.2-0.2,0.4-0.4,0.4c-0.2,0-0.4-0.2-0.4-0.4c0-0.2,0.2-0.4,0.4-0.4
      		C104.5,11.6,104.7,11.8,104.7,12z"/>
                <path fill="#E66558" d="M104.3,12.4c-0.2,0-0.4-0.2-0.4-0.4c0-0.2,0.2-0.4,0.4-0.4c0.2,0,0.4,0.2,0.4,0.4
      		C104.7,12.2,104.5,12.4,104.3,12.4z M104.3,11.7c-0.2,0-0.3,0.1-0.3,0.3c0,0.2,0.1,0.3,0.3,0.3c0.2,0,0.3-0.1,0.3-0.3
      		C104.6,11.8,104.5,11.7,104.3,11.7z"/>
            </g>
            <g>
                <path fill="#E66558" d="M106.7,10.3c0,0.2-0.1,0.3-0.3,0.3c-0.2,0-0.3-0.1-0.3-0.3c0-0.2,0.1-0.3,0.3-0.3
      		C106.6,9.9,106.7,10.1,106.7,10.3z"/>
                <path fill="#E66558" d="M106.4,10.7c-0.2,0-0.4-0.2-0.4-0.4c0-0.2,0.2-0.4,0.4-0.4c0.2,0,0.4,0.2,0.4,0.4
      		C106.8,10.5,106.6,10.7,106.4,10.7z M106.4,10c-0.2,0-0.3,0.1-0.3,0.3c0,0.2,0.1,0.3,0.3,0.3c0.2,0,0.3-0.1,0.3-0.3
      		C106.7,10.1,106.5,10,106.4,10z"/>
            </g>
            <g>
                <path fill="#E66558" d="M106.6,11.9c0,0.2-0.2,0.3-0.3,0.3c-0.2,0-0.3-0.2-0.3-0.3c0-0.2,0.2-0.3,0.3-0.3
      		C106.4,11.6,106.6,11.7,106.6,11.9z"/>
                <path fill="#E66558" d="M106.2,12.3c-0.2,0-0.4-0.2-0.4-0.4c0-0.2,0.2-0.4,0.4-0.4c0.2,0,0.4,0.2,0.4,0.4
      		C106.7,12.2,106.5,12.3,106.2,12.3z M106.2,11.6c-0.2,0-0.3,0.1-0.3,0.3c0,0.2,0.1,0.3,0.3,0.3c0.2,0,0.3-0.1,0.3-0.3
      		C106.5,11.8,106.4,11.6,106.2,11.6z"/>
            </g>
            <g>
                <path fill="#E66558" d="M104.8,10.3c0,0.2-0.2,0.3-0.3,0.3c-0.2,0-0.3-0.2-0.3-0.3c0-0.2,0.2-0.3,0.3-0.3
      		C104.6,9.9,104.8,10.1,104.8,10.3z"/>
                <path fill="#E66558" d="M104.4,10.7c-0.2,0-0.4-0.2-0.4-0.4c0-0.2,0.2-0.4,0.4-0.4c0.2,0,0.4,0.2,0.4,0.4
      		C104.8,10.5,104.7,10.7,104.4,10.7z M104.4,10c-0.2,0-0.3,0.1-0.3,0.3c0,0.2,0.1,0.3,0.3,0.3c0.2,0,0.3-0.1,0.3-0.3
      		C104.7,10.1,104.6,10,104.4,10z"/>
            </g>
            <g>
                <path fill="#E66558" d="M105.9,9.5c0,0.2-0.2,0.3-0.3,0.3c-0.2,0-0.3-0.2-0.3-0.3c0-0.2,0.2-0.3,0.3-0.3
      		C105.7,9.1,105.9,9.3,105.9,9.5z"/>
                <path fill="#E66558" d="M105.5,9.9c-0.2,0-0.4-0.2-0.4-0.4c0-0.2,0.2-0.4,0.4-0.4c0.2,0,0.4,0.2,0.4,0.4
      		C105.9,9.7,105.8,9.9,105.5,9.9z M105.5,9.2c-0.2,0-0.3,0.1-0.3,0.3c0,0.2,0.1,0.3,0.3,0.3c0.2,0,0.3-0.1,0.3-0.3
      		C105.8,9.3,105.7,9.2,105.5,9.2z"/>
            </g>
            <g>
                <path fill="#E66558" d="M106.2,10.8c0,0.1-0.1,0.2-0.2,0.2c-0.1,0-0.2-0.1-0.2-0.2c0-0.1,0.1-0.2,0.2-0.2
      		C106.1,10.6,106.2,10.7,106.2,10.8z"/>
                <path fill="#E66558" d="M106,11c-0.1,0-0.2-0.1-0.2-0.2c0-0.1,0.1-0.2,0.2-0.2c0.1,0,0.2,0.1,0.2,0.2C106.2,10.9,106.1,11,106,11z
      		 M106,10.7c-0.1,0-0.1,0.1-0.1,0.1c0,0.1,0.1,0.1,0.1,0.1c0.1,0,0.1-0.1,0.1-0.1C106.1,10.7,106.1,10.7,106,10.7z"/>
            </g>
            <g>
                <path fill="#E66558" d="M106,10.3c0,0.1-0.1,0.2-0.2,0.2c-0.1,0-0.2-0.1-0.2-0.2c0-0.1,0.1-0.2,0.2-0.2
      		C105.9,10.1,106,10.2,106,10.3z"/>
                <path fill="#E66558" d="M105.7,10.5c-0.1,0-0.2-0.1-0.2-0.2c0-0.1,0.1-0.2,0.2-0.2c0.1,0,0.2,0.1,0.2,0.2
      		C106,10.4,105.9,10.5,105.7,10.5z M105.7,10.1c-0.1,0-0.2,0.1-0.2,0.2c0,0.1,0.1,0.2,0.2,0.2c0.1,0,0.2-0.1,0.2-0.2
      		C105.9,10.2,105.8,10.1,105.7,10.1z"/>
            </g>
            <g>
                <path fill="#E66558" d="M105.3,10.3c0,0.1-0.1,0.2-0.2,0.2c-0.1,0-0.2-0.1-0.2-0.2c0-0.1,0.1-0.2,0.2-0.2
      		C105.2,10.1,105.3,10.2,105.3,10.3z"/>
                <path fill="#E66558" d="M105.1,10.5c-0.1,0-0.2-0.1-0.2-0.2c0-0.1,0.1-0.2,0.2-0.2c0.1,0,0.2,0.1,0.2,0.2
      		C105.3,10.4,105.2,10.5,105.1,10.5z M105.1,10.1c-0.1,0-0.2,0.1-0.2,0.2c0,0.1,0.1,0.2,0.2,0.2c0.1,0,0.2-0.1,0.2-0.2
      		C105.3,10.2,105.2,10.1,105.1,10.1z"/>
            </g>
            <g>
                <path fill="#E66558" d="M104.6,9.3c0,0.1-0.1,0.2-0.2,0.2s-0.2-0.1-0.2-0.2c0-0.1,0.1-0.2,0.2-0.2S104.6,9.2,104.6,9.3z"/>
                <path fill="#E66558" d="M104.4,9.6c-0.1,0-0.3-0.1-0.3-0.3c0-0.1,0.1-0.3,0.3-0.3c0.1,0,0.3,0.1,0.3,0.3
      		C104.7,9.5,104.6,9.6,104.4,9.6z M104.4,9.1c-0.1,0-0.2,0.1-0.2,0.2c0,0.1,0.1,0.2,0.2,0.2c0.1,0,0.2-0.1,0.2-0.2
      		C104.6,9.2,104.5,9.1,104.4,9.1z"/>
            </g>
            <g>
                <path fill="#E66558" d="M105,8.3c0,0.1-0.1,0.2-0.2,0.2s-0.2-0.1-0.2-0.2c0-0.1,0.1-0.2,0.2-0.2S105,8.2,105,8.3z"/>
                <path fill="#E66558" d="M104.7,8.6c-0.1,0-0.2-0.1-0.2-0.2c0-0.1,0.1-0.2,0.2-0.2c0.1,0,0.2,0.1,0.2,0.2
      		C105,8.5,104.9,8.6,104.7,8.6z M104.7,8.2c-0.1,0-0.2,0.1-0.2,0.2c0,0.1,0.1,0.2,0.2,0.2c0.1,0,0.2-0.1,0.2-0.2
      		C104.9,8.3,104.8,8.2,104.7,8.2z"/>
            </g>
            <g>
                <path fill="#E66558" d="M105.5,6.2c0,0.2-0.2,0.3-0.3,0.3c-0.2,0-0.3-0.2-0.3-0.3c0-0.2,0.2-0.3,0.3-0.3
      		C105.4,5.8,105.5,6,105.5,6.2z"/>
                <path fill="#E66558" d="M105.2,6.6c-0.2,0-0.4-0.2-0.4-0.4c0-0.2,0.2-0.4,0.4-0.4c0.2,0,0.4,0.2,0.4,0.4
      		C105.6,6.4,105.4,6.6,105.2,6.6z M105.2,5.9c-0.2,0-0.3,0.1-0.3,0.3c0,0.2,0.1,0.3,0.3,0.3c0.2,0,0.3-0.1,0.3-0.3
      		C105.5,6,105.4,5.9,105.2,5.9z"/>
            </g>
            <g>
                <path fill="#E66558" d="M106.3,8.6c0,0.1-0.1,0.2-0.2,0.2c-0.1,0-0.2-0.1-0.2-0.2c0-0.1,0.1-0.2,0.2-0.2
      		C106.2,8.4,106.3,8.5,106.3,8.6z"/>
                <path fill="#E66558" d="M106.1,8.8c-0.1,0-0.2-0.1-0.2-0.2c0-0.1,0.1-0.2,0.2-0.2c0.1,0,0.2,0.1,0.2,0.2
      		C106.4,8.7,106.3,8.8,106.1,8.8z M106.1,8.4c-0.1,0-0.2,0.1-0.2,0.2c0,0.1,0.1,0.2,0.2,0.2c0.1,0,0.2-0.1,0.2-0.2
      		C106.3,8.5,106.2,8.4,106.1,8.4z"/>
            </g>
        </g>
    </g>
</svg>
