<svg width="800" height="800" viewBox="0 0 800 800" fill="none" xmlns="http://www.w3.org/2000/svg">
<path d="M254.531 640.312H211.562C181.406 640.312 156.875 615.781 156.875 585.625V398.516C156.875 368.359 181.406 343.828 211.562 343.828H254.531C284.687 343.828 309.219 368.359 309.219 398.516V585.625C309.219 615.781 284.687 640.312 254.531 640.312ZM211.641 375.078C198.75 375.078 188.203 385.625 188.203 398.516V585.625C188.203 598.516 198.75 609.062 211.641 609.062H254.609C267.5 609.062 278.047 598.516 278.047 585.625V398.516C278.047 385.625 267.5 375.078 254.609 375.078H211.641Z" fill="#F05A31"/>
<path d="M652.188 138.828H609.219C596.328 138.828 585.781 149.375 585.781 162.266V585.625C585.781 598.516 596.328 609.062 609.219 609.062H652.188C665.078 609.062 675.625 598.516 675.625 585.625V162.266C675.625 149.375 665.078 138.828 652.188 138.828ZM453.359 234.922H410.391C397.5 234.922 386.953 245.469 386.953 258.359V585.625C386.953 598.516 397.5 609.062 410.391 609.062H453.359C466.25 609.062 476.797 598.516 476.797 585.625V258.359C476.797 245.469 466.25 234.922 453.359 234.922ZM254.531 374.766H211.562C198.672 374.766 188.125 385.312 188.125 398.203V585.625C188.125 598.516 198.672 609.062 211.562 609.062H254.531C267.422 609.062 277.969 598.516 277.969 585.625V398.203C277.969 385.312 267.5 374.766 254.531 374.766Z" fill="#E6E6E6"/>
<path d="M652.188 107.578H609.219C579.063 107.578 554.531 132.109 554.531 162.266V324.688C540.234 317.969 524.531 313.594 508.047 312.188V258.437C508.047 228.281 483.516 203.75 453.359 203.75H410.391C380.234 203.75 355.703 228.281 355.703 258.437V585.703C355.703 615.859 380.234 640.391 410.391 640.391H453.359C483.203 640.391 507.5 616.406 508.047 586.719C524.531 585.312 540.234 580.937 554.531 574.219V585.703C554.531 615.859 579.063 640.391 609.219 640.391H652.188C682.344 640.391 706.875 615.859 706.875 585.703V162.266C706.875 132.109 682.266 107.578 652.188 107.578ZM585.781 391.953C596.406 408.516 602.578 428.203 602.578 449.375C602.578 470.469 596.406 490.156 585.781 506.797V391.953ZM389.531 449.375C389.531 397.187 427.188 353.672 476.797 344.609V554.141C427.188 545.078 389.531 501.563 389.531 449.375ZM410.391 234.922H453.359C466.25 234.922 476.797 245.469 476.797 258.359V312.969C440.391 318.125 408.516 337.5 386.953 365.313V258.359C386.953 245.469 397.5 234.922 410.391 234.922ZM453.359 609.062H410.391C397.5 609.062 386.953 598.516 386.953 585.625V533.437C408.438 561.25 440.312 580.703 476.797 585.781C476.719 598.672 466.25 609.062 453.359 609.062ZM508.047 555.234V343.516C525.078 345.391 540.859 351.328 554.531 360.391V538.438C540.859 547.422 525.078 553.359 508.047 555.234ZM585.781 585.625V572.422L622.188 609.062H609.219C596.25 609.062 585.781 598.594 585.781 585.625ZM675.625 585.625C675.625 594.453 670.703 602.188 663.438 606.172L598.75 541.172C620.547 516.797 633.828 484.609 633.828 449.375C633.828 407.656 615.156 370.156 585.781 344.922V162.266C585.781 149.375 596.328 138.828 609.219 138.828H652.188C665.078 138.828 675.625 149.375 675.625 162.266V585.625ZM697.031 688.516H689.219C684.922 688.516 681.406 685 681.406 680.703C681.406 676.406 684.922 672.891 689.219 672.891H697.031C701.328 672.891 704.844 676.406 704.844 680.703C704.844 685 701.406 688.516 697.031 688.516ZM657.969 688.516H650.156C645.859 688.516 642.344 685 642.344 680.703C642.344 676.406 645.859 672.891 650.156 672.891H657.969C662.266 672.891 665.781 676.406 665.781 680.703C665.781 685 662.344 688.516 657.969 688.516ZM618.906 688.516H611.094C606.797 688.516 603.281 685 603.281 680.703C603.281 676.406 606.797 672.891 611.094 672.891H618.906C623.203 672.891 626.719 676.406 626.719 680.703C626.719 685 623.281 688.516 618.906 688.516ZM579.844 688.516H572.031C567.734 688.516 564.219 685 564.219 680.703C564.219 676.406 567.734 672.891 572.031 672.891H579.844C584.141 672.891 587.656 676.406 587.656 680.703C587.656 685 584.219 688.516 579.844 688.516ZM540.781 688.516H532.969C528.672 688.516 525.156 685 525.156 680.703C525.156 676.406 528.672 672.891 532.969 672.891H540.781C545.078 672.891 548.594 676.406 548.594 680.703C548.594 685 545.156 688.516 540.781 688.516ZM501.719 688.516H493.906C489.609 688.516 486.094 685 486.094 680.703C486.094 676.406 489.609 672.891 493.906 672.891H501.719C506.016 672.891 509.531 676.406 509.531 680.703C509.531 685 506.094 688.516 501.719 688.516ZM462.656 688.516H454.844C450.547 688.516 447.031 685 447.031 680.703C447.031 676.406 450.547 672.891 454.844 672.891H462.656C466.953 672.891 470.469 676.406 470.469 680.703C470.469 685 467.031 688.516 462.656 688.516ZM423.594 688.516H415.781C411.484 688.516 407.969 685 407.969 680.703C407.969 676.406 411.484 672.891 415.781 672.891H423.594C427.891 672.891 431.406 676.406 431.406 680.703C431.406 685 427.969 688.516 423.594 688.516ZM384.531 688.516H376.719C372.422 688.516 368.906 685 368.906 680.703C368.906 676.406 372.422 672.891 376.719 672.891H384.531C388.828 672.891 392.344 676.406 392.344 680.703C392.344 685 388.906 688.516 384.531 688.516ZM345.469 688.516H337.656C333.359 688.516 329.844 685 329.844 680.703C329.844 676.406 333.359 672.891 337.656 672.891H345.469C349.766 672.891 353.281 676.406 353.281 680.703C353.281 685 349.844 688.516 345.469 688.516ZM306.406 688.516H298.594C294.297 688.516 290.781 685 290.781 680.703C290.781 676.406 294.297 672.891 298.594 672.891H306.406C310.703 672.891 314.219 676.406 314.219 680.703C314.219 685 310.781 688.516 306.406 688.516ZM267.344 688.516H259.531C255.234 688.516 251.719 685 251.719 680.703C251.719 676.406 255.234 672.891 259.531 672.891H267.344C271.641 672.891 275.156 676.406 275.156 680.703C275.156 685 271.719 688.516 267.344 688.516ZM228.281 688.516H220.469C216.172 688.516 212.656 685 212.656 680.703C212.656 676.406 216.172 672.891 220.469 672.891H228.281C232.578 672.891 236.094 676.406 236.094 680.703C236.094 685 232.656 688.516 228.281 688.516ZM189.219 688.516H181.406C177.109 688.516 173.594 685 173.594 680.703C173.594 676.406 177.109 672.891 181.406 672.891H189.219C193.516 672.891 197.031 676.406 197.031 680.703C197.031 685 193.594 688.516 189.219 688.516ZM150.156 688.516H142.344C138.047 688.516 134.531 685 134.531 680.703C134.531 676.406 138.047 672.891 142.344 672.891H150.156C154.453 672.891 157.969 676.406 157.969 680.703C157.969 685 154.531 688.516 150.156 688.516ZM111.094 688.516H103.281C98.9844 688.516 95.4687 685 95.4687 680.703C95.4687 676.406 98.9844 672.891 103.281 672.891H111.094C115.391 672.891 118.906 676.406 118.906 680.703C118.906 685 115.469 688.516 111.094 688.516ZM99.8438 660.703C95.5469 660.703 92.0312 657.188 92.0312 652.891V645.078C92.0312 640.781 95.5469 637.266 99.8438 637.266C104.141 637.266 107.656 640.781 107.656 645.078V652.891C107.656 657.188 104.141 660.703 99.8438 660.703ZM99.8438 621.641C95.5469 621.641 92.0312 618.125 92.0312 613.828V606.016C92.0312 601.719 95.5469 598.203 99.8438 598.203C104.141 598.203 107.656 601.719 107.656 606.016V613.828C107.656 618.125 104.141 621.641 99.8438 621.641ZM99.8438 582.578C95.5469 582.578 92.0312 579.062 92.0312 574.766V566.953C92.0312 562.656 95.5469 559.141 99.8438 559.141C104.141 559.141 107.656 562.656 107.656 566.953V574.766C107.656 579.062 104.141 582.578 99.8438 582.578ZM99.8438 543.516C95.5469 543.516 92.0312 540 92.0312 535.703V527.891C92.0312 523.594 95.5469 520.078 99.8438 520.078C104.141 520.078 107.656 523.594 107.656 527.891V535.703C107.656 540 104.141 543.516 99.8438 543.516ZM99.8438 504.453C95.5469 504.453 92.0312 500.938 92.0312 496.641V488.828C92.0312 484.531 95.5469 481.016 99.8438 481.016C104.141 481.016 107.656 484.531 107.656 488.828V496.641C107.656 500.938 104.141 504.453 99.8438 504.453ZM99.8438 465.391C95.5469 465.391 92.0312 461.875 92.0312 457.578V449.766C92.0312 445.469 95.5469 441.953 99.8438 441.953C104.141 441.953 107.656 445.469 107.656 449.766V457.578C107.656 461.875 104.141 465.391 99.8438 465.391ZM99.8438 426.328C95.5469 426.328 92.0312 422.812 92.0312 418.516V410.703C92.0312 406.406 95.5469 402.891 99.8438 402.891C104.141 402.891 107.656 406.406 107.656 410.703V418.516C107.656 422.812 104.141 426.328 99.8438 426.328ZM99.8438 387.266C95.5469 387.266 92.0312 383.75 92.0312 379.453V371.641C92.0312 367.344 95.5469 363.828 99.8438 363.828C104.141 363.828 107.656 367.344 107.656 371.641V379.453C107.656 383.75 104.141 387.266 99.8438 387.266ZM99.8438 348.203C95.5469 348.203 92.0312 344.688 92.0312 340.391V332.578C92.0312 328.281 95.5469 324.766 99.8438 324.766C104.141 324.766 107.656 328.281 107.656 332.578V340.391C107.656 344.688 104.141 348.203 99.8438 348.203ZM99.8438 309.141C95.5469 309.141 92.0312 305.625 92.0312 301.328V293.516C92.0312 289.219 95.5469 285.703 99.8438 285.703C104.141 285.703 107.656 289.219 107.656 293.516V301.328C107.656 305.625 104.141 309.141 99.8438 309.141ZM99.8438 270.078C95.5469 270.078 92.0312 266.563 92.0312 262.266V254.453C92.0312 250.156 95.5469 246.641 99.8438 246.641C104.141 246.641 107.656 250.156 107.656 254.453V262.266C107.656 266.563 104.141 270.078 99.8438 270.078ZM99.8438 231.016C95.5469 231.016 92.0312 227.5 92.0312 223.203V215.391C92.0312 211.094 95.5469 207.578 99.8438 207.578C104.141 207.578 107.656 211.094 107.656 215.391V223.203C107.656 227.5 104.141 231.016 99.8438 231.016ZM99.8438 191.953C95.5469 191.953 92.0312 188.438 92.0312 184.141V176.328C92.0312 172.031 95.5469 168.516 99.8438 168.516C104.141 168.516 107.656 172.031 107.656 176.328V184.141C107.656 188.438 104.141 191.953 99.8438 191.953Z" fill="#F05A31"/>
<path d="M496.094 342.891C437.344 342.891 389.531 390.703 389.531 449.453C389.531 508.203 437.344 555.937 496.094 555.937C554.844 555.937 602.656 508.125 602.656 449.375C602.656 390.625 554.844 342.891 496.094 342.891Z" fill="white"/>
<path d="M496.094 360.703C485.156 360.703 474.375 362.656 464.219 366.562C460.156 368.125 458.203 372.656 459.766 376.641C461.328 380.703 465.859 382.656 469.844 381.094C478.203 377.891 487.031 376.25 496.094 376.25C536.406 376.25 569.141 409.062 569.141 449.297C569.141 464.687 564.375 479.375 555.469 491.875C552.031 496.719 547.969 501.094 543.359 505C540.078 507.813 539.688 512.734 542.5 516.016C544.063 517.812 546.25 518.75 548.438 518.75C550.234 518.75 552.031 518.125 553.516 516.875C558.984 512.187 563.984 506.875 568.203 500.938C579.063 485.781 584.844 467.969 584.844 449.219C584.766 400.469 545 360.703 496.094 360.703Z" fill="black"/>
</svg>
