<svg width="800" height="800" viewBox="0 0 800 800" fill="none" xmlns="http://www.w3.org/2000/svg">
<path d="M218.984 396.797C218.984 444.888 238.089 491.01 272.094 525.015C306.1 559.021 352.221 578.125 400.313 578.125C448.404 578.125 494.525 559.021 528.531 525.015C562.536 491.01 581.641 444.888 581.641 396.797C581.641 348.706 562.536 302.584 528.531 268.579C494.525 234.573 448.404 215.469 400.313 215.469C352.221 215.469 306.1 234.573 272.094 268.579C238.089 302.584 218.984 348.706 218.984 396.797Z" fill="white"/>
<path d="M401.406 683.516C397.109 683.516 393.594 680.078 393.594 675.781C393.594 671.484 397.031 667.969 401.328 667.891C403.828 667.891 406.406 667.813 408.906 667.734C413.203 667.578 416.797 670.938 416.953 675.313C417.109 679.61 413.75 683.203 409.375 683.359C406.875 683.438 404.141 683.516 401.406 683.516C401.484 683.516 401.484 683.516 401.406 683.516ZM370.234 682.031C370 682.031 369.687 682.031 369.375 681.953L361.406 681.016C357.109 680.469 354.141 676.484 354.688 672.266C355.234 667.969 359.219 665 363.438 665.547C365.938 665.86 368.437 666.172 370.937 666.406C375.234 666.875 378.359 670.703 377.891 675C377.578 679.063 374.219 682.031 370.234 682.031ZM440.312 680.625C436.484 680.625 433.125 677.813 432.578 673.906C431.953 669.609 434.922 665.703 439.219 665.078L446.719 663.906C450.937 663.203 455 666.016 455.781 670.235C456.563 674.453 453.672 678.516 449.453 679.297C446.797 679.766 444.141 680.156 441.484 680.547C441.094 680.625 440.703 680.625 440.312 680.625ZM331.875 675.234C331.25 675.234 330.625 675.156 330 675C327.422 674.375 324.844 673.672 322.266 672.969C318.125 671.797 315.703 667.5 316.875 663.359C318.047 659.219 322.344 656.797 326.484 657.969C328.906 658.672 331.406 659.297 333.828 659.922C338.047 660.938 340.547 665.234 339.531 669.375C338.516 672.891 335.312 675.234 331.875 675.234ZM478.438 672.266C475.078 672.266 471.953 670.078 470.937 666.641C469.687 662.5 472.109 658.125 476.25 656.953C478.672 656.25 481.094 655.469 483.516 654.688C487.656 653.359 492.031 655.625 493.359 659.688C494.688 663.828 492.422 668.203 488.359 669.531C485.859 670.391 483.203 671.172 480.703 671.875C479.922 672.188 479.219 672.266 478.438 672.266ZM294.688 663.125C293.672 663.125 292.734 662.969 291.719 662.578C289.219 661.563 286.719 660.547 284.297 659.453C280.312 657.734 278.516 653.125 280.312 649.141C282.031 645.156 286.641 643.359 290.625 645.156C292.969 646.172 295.313 647.188 297.656 648.125C301.641 649.766 303.594 654.297 301.953 658.281C300.703 661.328 297.813 663.125 294.688 663.125ZM515.078 658.75C512.109 658.75 509.297 657.031 507.969 654.141C506.172 650.234 507.891 645.547 511.875 643.828C514.141 642.813 516.484 641.719 518.75 640.625C522.656 638.75 527.344 640.313 529.219 644.219C531.094 648.125 529.531 652.813 525.625 654.688C523.203 655.859 520.781 657.031 518.359 658.125C517.188 658.516 516.094 658.75 515.078 658.75ZM259.609 645.938C258.281 645.938 256.953 645.625 255.703 644.844C253.437 643.516 251.094 642.109 248.828 640.703C245.156 638.438 243.984 633.594 246.328 629.922C248.594 626.25 253.438 625.078 257.109 627.422C259.297 628.75 261.484 630.078 263.594 631.328C267.344 633.516 268.594 638.281 266.406 642.031C264.922 644.609 262.344 645.938 259.609 645.938ZM549.375 640.156C546.797 640.156 544.297 638.906 542.734 636.563C540.391 632.891 541.484 628.125 545.156 625.781C547.266 624.453 549.375 623.047 551.484 621.641C552.335 621.064 553.292 620.661 554.298 620.455C555.305 620.248 556.343 620.243 557.352 620.439C558.361 620.635 559.322 621.029 560.178 621.597C561.035 622.165 561.771 622.897 562.344 623.75C562.921 624.601 563.324 625.557 563.53 626.564C563.736 627.571 563.741 628.609 563.545 629.618C563.349 630.627 562.956 631.587 562.388 632.444C561.82 633.301 561.088 634.036 560.234 634.609C558.047 636.094 555.781 637.578 553.516 638.985C552.188 639.766 550.781 640.156 549.375 640.156ZM227.344 624.063C225.625 624.063 223.984 623.516 222.5 622.422C220.391 620.781 218.281 619.063 216.25 617.344C212.969 614.609 212.5 609.688 215.234 606.328C217.969 603.047 222.891 602.578 226.25 605.313C228.203 606.953 230.156 608.516 232.188 610.078C235.547 612.735 236.172 617.656 233.516 621.016C231.953 623.047 229.609 624.063 227.344 624.063ZM580.703 617.031C578.516 617.031 576.328 616.094 574.766 614.297C571.953 611.016 572.344 606.094 575.625 603.281C577.578 601.641 579.453 600 581.328 598.281C584.531 595.391 589.453 595.625 592.344 598.828C595.234 602.031 595 606.953 591.797 609.844C589.844 611.641 587.812 613.438 585.781 615.156C584.297 616.406 582.5 617.031 580.703 617.031ZM198.359 597.891C196.328 597.891 194.297 597.109 192.734 595.469C190.859 593.594 189.063 591.563 187.266 589.609C184.375 586.406 184.609 581.484 187.813 578.594C191.016 575.703 195.938 575.938 198.828 579.141C200.547 581.016 202.266 582.891 203.984 584.688C206.953 587.813 206.875 592.734 203.75 595.703C202.266 597.188 200.313 597.891 198.359 597.891ZM608.594 589.766C606.719 589.766 604.922 589.141 603.438 587.813C600.234 584.922 599.922 580 602.812 576.797C604.453 574.922 606.172 572.969 607.813 571.016C610.625 567.735 615.547 567.266 618.828 570.078C622.109 572.891 622.578 577.813 619.766 581.094C618.047 583.125 616.25 585.156 614.531 587.188C612.891 588.828 610.781 589.766 608.594 589.766ZM173.359 567.969C170.938 567.969 168.594 566.875 167.031 564.766C165.469 562.578 163.906 560.391 162.422 558.203C160 554.609 160.859 549.766 164.453 547.344C168.047 544.922 172.891 545.781 175.313 549.375C176.719 551.484 178.203 553.516 179.688 555.547C182.188 559.063 181.406 563.906 177.969 566.484C176.563 567.5 174.922 567.969 173.359 567.969ZM632.5 558.828C631.016 558.828 629.531 558.438 628.203 557.5C624.609 555.078 623.672 550.234 626.016 546.641C627.422 544.531 628.828 542.422 630.156 540.234C632.422 536.563 637.266 535.469 640.938 537.734C644.609 540 645.703 544.844 643.437 548.516C642.031 550.781 640.547 553.047 639.063 555.234C637.5 557.656 635 558.828 632.5 558.828ZM152.656 534.922C149.844 534.922 147.188 533.438 145.781 530.781C144.531 528.438 143.281 526.016 142.109 523.672C140.156 519.844 141.797 515.156 145.625 513.203C149.531 511.25 154.141 512.891 156.094 516.719C157.188 518.985 158.359 521.25 159.531 523.438C161.563 527.266 160.078 531.953 156.328 533.984C155.156 534.609 153.906 534.922 152.656 534.922ZM651.797 524.922C650.625 524.922 649.531 524.688 648.438 524.141C644.531 522.266 642.891 517.578 644.766 513.75C645.859 511.484 646.953 509.141 647.969 506.875C649.766 502.969 654.375 501.172 658.281 502.891C662.187 504.688 663.984 509.297 662.266 513.203C661.172 515.625 660.078 518.125 658.906 520.469C657.5 523.281 654.687 524.922 651.797 524.922ZM136.875 499.219C133.672 499.219 130.703 497.266 129.531 494.063C128.594 491.563 127.734 488.984 126.875 486.484C125.547 482.422 127.734 477.969 131.875 476.641C135.938 475.313 140.391 477.5 141.719 481.641C142.5 484.063 143.359 486.484 144.219 488.828C145.703 492.891 143.594 497.344 139.531 498.828C138.672 499.141 137.734 499.219 136.875 499.219ZM666.172 488.594C665.391 488.594 664.609 488.438 663.828 488.203C659.688 486.875 657.422 482.5 658.75 478.359C659.531 475.938 660.234 473.516 660.938 471.094C662.109 466.953 666.484 464.531 670.625 465.703C674.766 466.875 677.187 471.25 676.016 475.391C675.312 477.969 674.531 480.547 673.672 483.047C672.578 486.484 669.531 488.594 666.172 488.594ZM126.172 461.719C122.578 461.719 119.297 459.219 118.516 455.547C117.969 452.969 117.422 450.313 116.953 447.656C116.172 443.438 118.984 439.375 123.281 438.594C127.5 437.813 131.563 440.625 132.344 444.922C132.813 447.422 133.281 449.922 133.828 452.344C134.688 456.563 132.031 460.703 127.813 461.563C127.266 461.641 126.719 461.719 126.172 461.719ZM675.313 450.703C674.922 450.703 674.453 450.703 673.984 450.625C669.766 449.922 666.875 445.859 667.578 441.641L668.75 434.141C669.375 429.844 673.281 426.875 677.578 427.5C681.875 428.125 684.844 432.031 684.219 436.328C683.828 438.984 683.438 441.641 682.969 444.297C682.422 447.969 679.063 450.703 675.313 450.703ZM120.859 423.047C116.797 423.047 113.359 419.922 113.047 415.781C112.891 413.125 112.734 410.391 112.656 407.735C112.5 403.438 115.859 399.766 120.156 399.609C124.453 399.453 128.125 402.813 128.281 407.109C128.359 409.609 128.516 412.188 128.672 414.688C128.984 418.984 125.703 422.735 121.406 422.969C121.172 423.047 121.016 423.047 120.859 423.047ZM679.141 411.875H678.906C674.609 411.719 671.172 408.203 671.328 403.828C671.406 401.328 671.406 398.75 671.406 396.25C671.406 391.953 674.922 388.438 679.219 388.438C683.516 388.438 687.031 391.953 687.031 396.25C687.031 398.906 687.031 401.641 686.953 404.297C686.797 408.516 683.359 411.875 679.141 411.875ZM120.938 384.063H120.391C116.094 383.75 112.813 380 113.125 375.703C113.281 373.047 113.516 370.391 113.828 367.734C114.219 363.438 118.047 360.313 122.344 360.703C126.641 361.094 129.766 364.922 129.375 369.219C129.141 371.719 128.906 374.297 128.75 376.797C128.438 380.938 125 384.063 120.938 384.063ZM677.578 373.906C673.672 373.906 670.234 370.938 669.844 366.953C669.609 364.453 669.297 361.953 668.906 359.453C668.359 355.156 671.328 351.25 675.625 350.625C679.922 350.078 683.828 353.047 684.453 357.344C684.844 360 685.156 362.656 685.391 365.313C685.859 369.609 682.734 373.438 678.438 373.906H677.578ZM126.406 345.391C125.859 345.391 125.313 345.313 124.766 345.234C120.547 344.297 117.891 340.156 118.75 335.938C119.297 333.281 119.922 330.703 120.547 328.125C121.563 323.906 125.781 321.328 130 322.344C134.219 323.359 136.797 327.578 135.781 331.797C135.156 334.219 134.609 336.719 134.063 339.219C133.203 342.891 130 345.391 126.406 345.391ZM670.703 335.469C667.188 335.469 664.062 333.125 663.125 329.531C662.5 327.109 661.875 324.609 661.172 322.188C660 318.047 662.422 313.75 666.563 312.578C670.703 311.406 675 313.828 676.172 317.969L678.281 325.703C679.375 329.922 676.797 334.141 672.578 335.156C672.031 335.391 671.406 335.469 670.703 335.469ZM137.188 307.891C136.328 307.891 135.391 307.734 134.531 307.422C130.469 305.938 128.438 301.484 129.922 297.422C130.859 294.922 131.797 292.422 132.813 289.922C134.375 285.938 138.984 283.984 142.969 285.547C146.953 287.109 148.906 291.719 147.344 295.703C146.406 298.047 145.469 300.469 144.609 302.813C143.359 305.938 140.391 307.891 137.188 307.891ZM658.594 298.438C655.547 298.438 652.578 296.641 651.328 293.594C650.391 291.25 649.375 288.906 648.359 286.641C646.641 282.656 648.438 278.047 652.344 276.328C656.328 274.609 660.938 276.406 662.656 280.313C663.75 282.734 664.766 285.234 665.781 287.656C667.422 291.641 665.469 296.25 661.484 297.813C660.547 298.203 659.531 298.438 658.594 298.438ZM153.203 272.266C151.953 272.266 150.703 271.953 149.531 271.328C145.703 269.297 144.297 264.531 146.328 260.781C147.578 258.438 148.906 256.016 150.234 253.75C152.344 250 157.188 248.672 160.859 250.859C164.609 252.969 165.938 257.813 163.75 261.484C162.5 263.672 161.25 265.938 160.078 268.125C158.672 270.781 155.938 272.266 153.203 272.266ZM641.328 263.438C638.672 263.438 636.016 262.031 634.609 259.531C633.359 257.344 632.031 255.156 630.703 253.047C628.437 249.375 629.531 244.531 633.203 242.266C636.875 240 641.719 241.094 643.984 244.766C645.391 247.031 646.797 249.297 648.125 251.641C650.312 255.391 649.063 260.156 645.313 262.344C644.063 263.125 642.656 263.438 641.328 263.438ZM173.984 239.219C172.422 239.219 170.781 238.75 169.375 237.734C165.859 235.156 165.156 230.313 167.656 226.797C169.219 224.609 170.859 222.5 172.5 220.391C175.156 216.953 180.078 216.328 183.438 218.984C186.875 221.641 187.5 226.563 184.844 229.922C183.281 231.875 181.797 233.906 180.313 236.016C178.75 238.125 176.406 239.219 173.984 239.219ZM619.375 231.172C617.031 231.172 614.766 230.156 613.203 228.203C611.641 226.25 610.078 224.219 608.437 222.344C605.703 219.063 606.094 214.141 609.453 211.328C612.734 208.594 617.656 208.984 620.469 212.344C622.188 214.375 623.906 216.484 625.547 218.594C628.203 221.953 627.656 226.875 624.219 229.531C622.813 230.625 621.094 231.172 619.375 231.172ZM199.141 209.375C197.188 209.375 195.234 208.672 193.672 207.188C190.547 204.219 190.469 199.219 193.516 196.172C195.391 194.297 197.266 192.344 199.219 190.469C202.344 187.422 207.266 187.5 210.234 190.625C213.281 193.75 213.203 198.672 210.078 201.641L204.688 207.031C203.203 208.594 201.172 209.375 199.141 209.375ZM593.125 202.344C591.172 202.344 589.219 201.641 587.734 200.156C585.937 198.438 584.063 196.641 582.188 195C578.984 192.109 578.75 187.188 581.641 183.984C584.531 180.781 589.453 180.547 592.656 183.438C594.609 185.234 596.641 187.109 598.516 188.906C601.641 191.875 601.719 196.875 598.75 199.922C597.266 201.484 595.234 202.344 593.125 202.344ZM228.203 183.359C225.859 183.359 223.594 182.344 222.031 180.313C219.375 176.875 220 172.031 223.359 169.375C225.469 167.734 227.578 166.094 229.766 164.531C233.281 161.953 238.125 162.734 240.703 166.172C243.281 169.688 242.5 174.531 239.063 177.109C237.031 178.594 235 180.156 233.047 181.719C231.562 182.813 229.844 183.359 228.203 183.359ZM563.203 177.344C561.641 177.344 560 176.875 558.672 175.859C556.641 174.375 554.531 172.891 552.422 171.484C548.828 169.063 547.969 164.219 550.391 160.625C552.813 157.031 557.656 156.172 561.25 158.594C563.438 160.078 565.703 161.641 567.812 163.203C571.328 165.703 572.109 170.625 569.609 174.141C567.969 176.172 565.625 177.344 563.203 177.344ZM260.547 161.563C257.813 161.563 255.234 160.156 253.75 157.656C251.562 153.906 252.891 149.141 256.641 146.953C258.984 145.625 261.328 144.297 263.672 143.047C267.5 141.016 272.188 142.422 274.219 146.25C276.25 150.078 274.844 154.766 271.016 156.797C268.828 157.969 266.562 159.219 264.375 160.469C263.203 161.25 261.875 161.563 260.547 161.563ZM530 156.719C528.75 156.719 527.5 156.406 526.328 155.781C524.063 154.609 521.797 153.438 519.531 152.344C515.625 150.469 514.063 145.781 515.938 141.875C517.813 137.969 522.5 136.406 526.406 138.281C528.828 139.453 531.172 140.703 533.594 141.953C537.422 143.984 538.906 148.672 536.875 152.5C535.547 155.234 532.813 156.719 530 156.719ZM295.625 144.609C292.5 144.609 289.609 142.734 288.359 139.688C286.719 135.703 288.672 131.172 292.734 129.531C295.234 128.516 297.734 127.578 300.234 126.641C304.297 125.156 308.75 127.188 310.234 131.25C311.719 135.313 309.688 139.766 305.625 141.25C303.281 142.109 300.859 143.047 298.516 143.984C297.578 144.375 296.641 144.609 295.625 144.609ZM494.297 140.938C493.438 140.938 492.5 140.781 491.641 140.469C489.219 139.609 486.797 138.75 484.453 137.969C480.391 136.641 478.125 132.188 479.453 128.125C480.781 124.063 485.234 121.797 489.297 123.125C491.797 123.984 494.375 124.844 496.953 125.781C501.016 127.266 503.125 131.719 501.641 135.781C500.469 138.984 497.5 140.938 494.297 140.938ZM332.813 132.578C329.297 132.578 326.094 130.156 325.234 126.641C324.219 122.422 326.797 118.203 330.938 117.188C333.516 116.563 336.172 115.938 338.75 115.391C342.969 114.453 347.109 117.188 348.047 121.406C348.984 125.625 346.25 129.766 342.031 130.703C339.609 131.25 337.109 131.797 334.609 132.422C334.062 132.578 333.359 132.578 332.813 132.578ZM456.719 130.391C456.172 130.391 455.625 130.313 455.156 130.234C452.734 129.688 450.156 129.219 447.734 128.828C443.516 128.047 440.625 123.984 441.406 119.766C442.188 115.547 446.25 112.656 450.469 113.438C453.125 113.906 455.781 114.453 458.359 114.922C462.578 115.781 465.313 119.922 464.453 124.141C463.594 127.813 460.312 130.391 456.719 130.391ZM371.25 126.016C367.266 126.016 363.906 123.047 363.516 118.984C363.047 114.688 366.172 110.859 370.469 110.391L378.437 109.688C382.734 109.375 386.484 112.578 386.797 116.875C387.109 121.172 383.906 124.922 379.609 125.234C377.109 125.391 374.531 125.625 372.031 125.859C371.719 125.938 371.484 126.016 371.25 126.016ZM418.047 125.156H417.5C415 125 412.422 124.844 409.922 124.766C405.625 124.609 402.266 121.016 402.422 116.641C402.578 112.344 406.172 108.984 410.547 109.141C413.203 109.219 415.937 109.375 418.594 109.531C422.891 109.844 426.172 113.516 425.859 117.813C425.547 121.953 422.109 125.156 418.047 125.156Z" fill="#F05A31"/>
<path d="M606.484 191.328C594.844 191.328 585.391 200.781 585.391 212.422C585.391 224.062 594.844 233.516 606.484 233.516C618.125 233.516 627.578 224.062 627.578 212.422C627.578 200.781 618.125 191.328 606.484 191.328Z" fill="#E6E6E6"/>
<path d="M606.484 175.703C586.25 175.703 569.766 192.188 569.766 212.422C569.766 232.656 586.25 249.141 606.484 249.141C626.719 249.141 643.203 232.656 643.203 212.422C643.203 192.188 626.719 175.703 606.484 175.703ZM585.313 212.422C585.313 200.781 594.766 191.328 606.406 191.328C618.047 191.328 627.5 200.781 627.5 212.422C627.5 224.062 618.047 233.516 606.406 233.516C594.766 233.516 585.313 224.062 585.313 212.422Z" fill="#F05A31"/>
<path d="M564.219 318.75H235.156C232.734 323.828 230.547 329.062 228.672 334.375H570.781C568.828 329.062 566.641 323.828 564.219 318.75Z" fill="#54C7EC"/>
<path d="M550.391 245.547C510.156 205.312 456.641 183.125 399.687 183.125C342.734 183.125 289.219 205.312 248.984 245.547C208.75 285.781 186.562 339.297 186.562 396.25C186.562 453.203 208.75 506.719 248.984 546.953C289.219 587.187 342.734 609.375 399.687 609.375C456.641 609.375 510.156 587.187 550.391 546.953C590.625 506.719 612.813 453.203 612.813 396.25C612.813 339.297 590.703 285.781 550.391 245.547ZM237.188 477.734H305.234C306.094 480.234 307.031 482.734 307.969 485.234C316.563 507.422 328.516 528.672 343.438 548.359C351.406 558.828 359.297 567.734 366.484 575C309.844 564.531 262.344 527.734 237.188 477.734ZM391.875 577.5C382.5 569.375 368.906 556.25 355.469 538.438C343.984 523.203 331.328 502.813 321.875 477.656H391.875V577.5ZM407.5 577.5V477.734H477.5C468.047 502.813 455.391 523.281 443.906 538.516C430.469 556.328 416.875 569.375 407.5 577.5ZM432.969 575.078C440.156 567.734 448.047 558.906 456.016 548.438C471.016 528.672 482.969 507.5 491.484 485.313C492.422 482.813 493.359 480.312 494.219 477.812H562.266C537.109 527.734 489.609 564.531 432.969 575.078ZM569.219 462.109H499.062C504.766 441.406 507.656 420 507.656 398.203C507.656 376.563 504.766 355.156 499.141 334.297H482.813C488.438 353.516 491.953 374.844 491.953 398.203C491.953 421.641 488.359 443.047 482.734 462.109H407.5V334.375H391.875V462.109H316.641C311.016 443.047 307.422 421.719 307.422 398.203C307.422 374.922 311.016 353.516 316.563 334.297H300.234C294.609 355.156 291.719 376.563 291.719 398.203C291.719 420 294.609 441.328 300.312 462.109H230.156C222.188 441.641 217.812 419.453 217.812 396.25C217.812 374.531 221.641 353.672 228.672 334.375C230.625 329.063 232.812 323.828 235.156 318.75C259.922 266.406 308.984 227.656 367.734 217.188C360.234 225.078 351.797 234.688 343.359 246.172C328.437 266.484 316.484 288.203 307.891 310.625C306.875 313.281 305.937 316.016 305 318.75H321.641C331.172 292.969 343.984 271.719 355.547 255.859C368.984 237.578 382.5 223.984 391.875 215.469V318.75H407.5V215.469C416.875 223.984 430.391 237.656 443.828 255.859C455.469 271.719 468.281 292.891 477.734 318.75H494.375C493.437 316.016 492.5 313.359 491.484 310.625C482.891 288.125 471.016 266.484 456.016 246.172C447.656 234.688 439.219 225 431.719 217.188C490.469 227.656 539.531 266.406 564.297 318.75C566.719 323.828 568.906 329.063 570.781 334.375C577.812 353.672 581.641 374.531 581.641 396.25C581.563 419.453 577.187 441.719 569.219 462.109Z" fill="#F05A31"/>
</svg>
