<svg width="193" height="193" viewBox="0 0 193 193" fill="none" xmlns="http://www.w3.org/2000/svg">
<path d="M65.1941 77.9728L114.801 134.629L141.188 109.505L93.4467 52.3588L65.1941 77.9728ZM157.83 62.1596L144.015 46.3841L111.314 67.1165L134.572 93.4844L157.83 62.1596Z" fill="#F05A31"/>
<path d="M64.2516 84.5506C64.2516 84.5506 36.6209 97.7439 22.1648 92.4101L82.138 168.404C82.138 168.404 103.813 137.324 108.204 137.004L64.2516 84.5506Z" fill="#FFECE1"/>
<path d="M104.623 141.565C106.244 139.68 107.941 137.72 109.373 136.174L64.6286 82.7978L63.6485 83.269C63.3846 83.4009 36.376 96.1419 22.6737 91.0719L17.9618 89.3379L82.2323 170.779L83.3255 169.214C83.382 169.139 88.6594 161.562 94.4644 153.967C97.6874 149.745 100.194 146.654 102.117 144.411C103.078 143.242 103.926 142.319 104.623 141.565ZM92.41 151.95C88.0751 157.642 83.9663 163.353 82.0815 166.029L25.8401 94.766C39.5047 96.8204 59.1628 88.4144 63.8558 86.2846L105.962 136.514C104.887 137.267 103.417 138.643 101.231 141.094C98.8559 143.732 95.8969 147.389 92.41 151.95Z" fill="#F05A31"/>
</svg>
