<svg width="800" height="800" viewBox="0 0 800 800" fill="none" xmlns="http://www.w3.org/2000/svg">
<path d="M338.438 638.125C327.344 638.125 318.281 629.062 318.281 617.969C318.281 606.875 327.344 597.812 338.438 597.812C349.531 597.812 358.594 606.875 358.594 617.969C358.672 629.062 349.531 638.125 338.438 638.125Z" fill="#F05A31"/>
<path d="M469.141 575.547C469.141 579.531 465.859 582.812 461.875 582.812H215C211.016 582.812 207.734 579.531 207.734 575.547V203.437C207.734 199.453 211.016 196.172 215 196.172H461.797C465.781 196.172 469.063 199.453 469.063 203.437V575.547H469.141Z" fill="#E6E6E6"/>
<path d="M235.781 276.719C225.156 276.719 216.484 285.391 216.484 296.016C216.484 306.641 225.156 315.312 235.781 315.312C246.406 315.312 255.078 306.641 255.078 296.016C255.078 285.391 246.406 276.719 235.781 276.719ZM628.125 451.406C605.156 451.406 586.406 470.156 586.406 493.125C586.406 516.094 605.156 534.844 628.125 534.844C651.094 534.844 669.844 516.094 669.844 493.125C669.844 470.156 651.094 451.406 628.125 451.406Z" fill="white"/>
<path d="M628.125 435.781C596.484 435.781 570.781 461.484 570.781 493.125C570.781 524.766 596.484 550.469 628.125 550.469C659.766 550.469 685.469 524.766 685.469 493.125C685.469 461.484 659.766 435.781 628.125 435.781ZM586.406 493.125C586.406 470.156 605.156 451.406 628.125 451.406C651.094 451.406 669.844 470.156 669.844 493.125C669.844 516.094 651.094 534.844 628.125 534.844C605.078 534.844 586.406 516.094 586.406 493.125Z" fill="#F05A31"/>
<path d="M285.703 426.563C276.797 426.563 269.609 433.75 269.609 442.656C269.609 451.562 276.797 458.75 285.703 458.75C294.609 458.75 301.797 451.562 301.797 442.656C301.797 433.75 294.531 426.563 285.703 426.563ZM100.234 329.141C89.6094 329.141 80.9375 337.813 80.9375 348.438C80.9375 359.063 89.6094 367.734 100.234 367.734C110.859 367.734 119.531 359.063 119.531 348.438C119.531 337.813 110.859 329.141 100.234 329.141Z" fill="white"/>
<path d="M149.531 323.906C148.125 319.844 143.75 317.656 139.609 318.984L125 323.906C118.672 317.5 109.922 313.516 100.156 313.516C80.9375 313.516 65.2344 329.141 65.2344 348.437C65.2344 367.734 80.8594 383.359 100.156 383.359C119.453 383.359 135.078 367.734 135.078 348.437C135.078 344.687 134.453 341.016 133.359 337.656L144.609 333.906C148.672 332.422 150.859 328.047 149.531 323.906ZM100.234 367.656C89.6094 367.656 80.9375 358.984 80.9375 348.359C80.9375 337.734 89.6094 329.062 100.234 329.062C110.859 329.062 119.531 337.734 119.531 348.359C119.531 358.984 110.859 367.656 100.234 367.656ZM257.344 333.906L254.609 325.312C264.219 319.062 270.625 308.281 270.625 296.016C270.625 276.797 255 261.094 235.703 261.094C216.406 261.094 200.781 276.719 200.781 296.016C200.781 315.312 216.406 330.937 235.703 330.937C237.109 330.937 238.516 330.859 239.844 330.703L242.344 338.672C243.359 342.031 246.484 344.141 249.766 344.141C250.547 344.141 251.328 343.984 252.109 343.75C256.406 342.422 258.672 337.969 257.344 333.906ZM242.891 313.906C242.578 313.984 242.266 314.141 242.031 314.219C240.078 314.922 237.969 315.312 235.781 315.312C225.156 315.312 216.484 306.641 216.484 296.016C216.484 285.391 225.156 276.719 235.781 276.719C246.406 276.719 255.078 285.391 255.078 296.016C255.078 304.062 250 311.016 242.891 313.906ZM264.062 388.75C264.844 388.75 265.625 388.594 266.406 388.359C270.547 387.031 272.813 382.656 271.484 378.594L266.797 363.672C265.469 359.531 261.094 357.266 257.031 358.594C252.891 359.922 250.625 364.297 251.953 368.359L256.641 383.281C257.656 386.641 260.703 388.75 264.062 388.75ZM342.188 394.688L335.938 399.453C332.5 402.031 331.797 406.953 334.453 410.391C336.016 412.422 338.359 413.438 340.703 413.438C342.344 413.438 343.984 412.891 345.391 411.875L351.641 407.109C355.078 404.531 355.781 399.609 353.125 396.172C350.547 392.734 345.625 392.109 342.188 394.688ZM415.312 348.906C412.734 345.469 407.812 344.766 404.375 347.422L398.125 352.187C394.688 354.766 393.984 359.687 396.641 363.125C398.203 365.156 400.547 366.172 402.891 366.172C404.531 366.172 406.172 365.625 407.578 364.609L413.828 359.844C417.266 357.266 417.969 352.344 415.312 348.906ZM373.281 371.016L367.031 375.781C363.594 378.359 362.891 383.281 365.547 386.719C367.109 388.75 369.453 389.766 371.797 389.766C373.437 389.766 375.078 389.219 376.484 388.203L382.734 383.437C386.172 380.859 386.875 375.937 384.219 372.5C381.641 369.141 376.719 368.437 373.281 371.016ZM311.094 418.359L308.281 420.469C302.5 414.609 294.531 410.937 285.703 410.937C284.375 410.937 283.125 411.016 281.875 411.172L281.016 408.359C279.688 404.219 275.313 401.953 271.172 403.281C267.031 404.609 264.766 408.984 266.094 413.125L267.266 416.953C259.219 422.734 253.984 432.109 253.984 442.734C253.984 460.234 268.203 474.453 285.703 474.453C303.203 474.453 317.422 460.234 317.422 442.734C317.422 439.766 317.031 436.875 316.25 434.141L320.547 430.859C323.984 428.281 324.688 423.359 322.031 419.922C319.453 416.406 314.531 415.703 311.094 418.359ZM269.609 442.656C269.609 433.75 276.797 426.562 285.703 426.562C294.609 426.562 301.797 433.75 301.797 442.656C301.797 451.562 294.609 458.75 285.703 458.75C276.797 458.75 269.609 451.562 269.609 442.656Z" fill="#F05A31"/>
<path d="M674.844 324.062H521.016V167.813C521.016 135.156 494.453 108.594 461.797 108.594H215C182.344 108.594 155.781 135.156 155.781 167.813V625.156C155.781 657.813 182.344 684.375 215 684.375H674.766C707.422 684.375 733.984 658.125 733.984 625.859V382.656C734.062 350.312 707.5 324.062 674.844 324.062ZM461.875 653.125H215C199.609 653.125 187.031 640.625 187.031 625.156V319.531L188.984 318.906C193.047 317.5 195.234 313.125 193.906 308.984C192.891 305.937 190.078 303.906 187.109 303.672V167.891C187.109 152.5 199.609 139.922 215.078 139.922H461.875C477.266 139.922 489.844 152.422 489.844 167.891V339.844C488.359 340 486.797 340.625 485.547 341.641C482.266 344.453 481.875 349.375 484.688 352.656L489.766 358.594L489.844 358.672V625.234C489.766 640.625 477.266 653.125 461.875 653.125ZM702.812 625.859C702.812 640.937 690.313 653.125 674.844 653.125H514.063C518.516 644.766 521.094 635.313 521.094 625.156V391.016C522.891 391.016 524.688 390.391 526.094 389.141C529.375 386.328 529.766 381.406 526.953 378.125L521.875 372.187C521.641 371.875 521.328 371.641 521.016 371.328V355.312H674.844C690.234 355.312 702.812 367.578 702.812 382.578V625.859Z" fill="#F05A31"/>
<path d="M572.578 431.641C569.766 428.359 564.844 427.969 561.563 430.781C558.281 433.594 557.891 438.516 560.703 441.797L565.781 447.734C567.344 449.531 569.531 450.469 571.719 450.469C573.516 450.469 575.313 449.844 576.797 448.594C580.078 445.781 580.469 440.859 577.656 437.578L572.578 431.641ZM547.188 401.953C544.375 398.672 539.453 398.281 536.172 401.094C532.891 403.906 532.5 408.828 535.313 412.109L540.391 418.047C541.953 419.844 544.141 420.781 546.328 420.781C548.125 420.781 549.922 420.156 551.406 418.906C554.688 416.094 555.078 411.172 552.266 407.891L547.188 401.953Z" fill="#F05A31"/>
<path d="M385.703 174.219H291.172C286.875 174.219 283.359 170.703 283.359 166.406C283.359 162.109 286.875 158.594 291.172 158.594H385.703C390 158.594 393.516 162.109 393.516 166.406C393.516 170.703 390 174.219 385.703 174.219Z" fill="#54C7EC"/>
<path d="M466.641 250.078C440.391 250.078 419.062 271.406 419.062 297.656C419.062 323.906 440.391 345.234 466.641 345.234C492.891 345.234 514.219 323.906 514.219 297.656C514.219 271.406 492.891 250.078 466.641 250.078Z" fill="white"/>
<path d="M466.641 234.453C431.797 234.453 403.438 262.812 403.438 297.656C403.438 332.5 431.797 360.859 466.641 360.859C501.484 360.859 529.844 332.5 529.844 297.656C529.844 262.812 501.484 234.453 466.641 234.453ZM419.141 297.656C419.141 271.406 440.469 250.078 466.719 250.078C492.969 250.078 514.297 271.406 514.297 297.656C514.297 323.906 492.969 345.234 466.719 345.234C440.469 345.234 419.141 323.906 419.141 297.656Z" fill="#F05A31"/>
</svg>
