<svg width="800" height="800" viewBox="0 0 800 800" fill="none" xmlns="http://www.w3.org/2000/svg">
<path d="M398.281 109.141L547.109 194.766L547.266 348.281L682.578 426.172L682.734 597.891L534.141 683.906L399.453 606.406L265.469 683.906L116.641 598.281L116.484 426.484L249.844 349.297L249.609 195.156L398.281 109.141Z" fill="white"/>
<path d="M406.25 412.109V285.156L398.438 289.687L390.625 285.156V411.875L398.672 416.484L406.25 412.109ZM265.234 521.016L257.422 516.563V643.203L265.469 647.813L273.047 643.437V516.563L265.234 521.016ZM541.719 643.437V516.563L540.156 517.422C538.906 518.125 537.578 518.437 536.25 518.437C533.516 518.437 530.938 517.031 529.453 514.531C527.5 511.172 528.359 507.031 531.172 504.609C528.203 505.703 526.016 508.594 526.016 511.953V643.125L534.063 647.734L541.719 643.437Z" fill="black"/>
<path d="M644.609 440.391L651.172 444.141C649.688 441.719 647.187 440.391 644.609 440.391ZM651.328 444.453V451.875C652.578 449.609 652.656 446.797 651.328 444.453ZM513.047 491.016L506.25 487.109C502.5 484.922 497.734 486.25 495.547 490C493.359 493.75 494.688 498.516 498.438 500.703L505.234 504.609C506.484 505.313 507.813 505.625 509.141 505.625C511.875 505.625 514.453 504.219 515.938 501.719C518.047 497.969 516.797 493.203 513.047 491.016ZM479.141 471.562L472.344 467.656C468.594 465.469 463.828 466.797 461.641 470.547C459.453 474.297 460.781 479.062 464.531 481.25L471.328 485.156C472.578 485.859 473.906 486.172 475.234 486.172C477.969 486.172 480.547 484.766 482.031 482.266C484.219 478.516 482.891 473.75 479.141 471.562Z" fill="#F05A31"/>
<path d="M651.25 444.297C651.25 444.219 651.172 444.219 651.172 444.141L644.609 440.391C643.203 440.391 641.875 440.703 640.547 441.406L633.75 445.312C630 447.5 628.75 452.266 630.859 456.016C632.344 458.516 634.922 459.922 637.656 459.922C638.984 459.922 640.312 459.609 641.562 458.906L648.359 455C649.687 454.219 650.625 453.203 651.328 451.953V444.531C651.328 444.375 651.25 444.297 651.25 444.297ZM539.062 500L532.266 503.906C531.875 504.141 531.484 504.375 531.172 504.687C528.281 507.109 527.5 511.25 529.453 514.609C530.937 517.109 533.516 518.516 536.25 518.516C537.578 518.516 538.906 518.203 540.156 517.5L541.719 516.641L546.953 513.594C550.703 511.406 551.953 506.641 549.844 502.891C547.578 499.141 542.812 497.812 539.062 500ZM445.312 452.109L438.516 448.203C434.766 446.016 430 447.344 427.812 451.094C425.625 454.844 426.953 459.609 430.703 461.797L437.5 465.703C438.75 466.406 440.078 466.719 441.406 466.719C444.141 466.719 446.719 465.313 448.203 462.813C450.312 459.063 448.984 454.219 445.312 452.109ZM606.719 460.937L599.922 464.844C596.172 467.031 594.922 471.797 597.031 475.547C598.516 478.047 601.094 479.453 603.828 479.453C605.156 479.453 606.484 479.141 607.734 478.438L614.531 474.531C618.281 472.344 619.531 467.578 617.422 463.828C615.234 460.078 610.469 458.75 606.719 460.937ZM572.891 480.469L566.094 484.375C562.344 486.562 561.094 491.328 563.203 495.078C564.688 497.578 567.266 498.984 570 498.984C571.328 498.984 572.656 498.672 573.906 497.969L580.703 494.063C584.453 491.875 585.703 487.109 583.594 483.359C581.406 479.609 576.641 478.281 572.891 480.469Z" fill="#F05A31"/>
<path d="M682.578 426.172L547.266 348.281L547.109 194.766L398.281 109.141L249.609 195.156L249.766 349.297L116.406 426.562L116.641 598.281L265.469 683.984L399.375 606.406L534.062 683.984L682.656 597.969L682.578 426.172ZM398.281 145.234L507.969 208.359L398.359 271.641L288.672 208.594L398.281 145.234ZM265.078 376.562L374.766 439.687L265.156 502.969L155.469 439.922L265.078 376.562ZM273.047 643.437L265.469 647.812L257.422 643.203L147.891 580.156L147.734 453.516L257.422 516.562L265.234 521.094L273.047 516.562L382.734 453.281L382.891 579.922L273.047 643.437ZM398.672 416.484L390.625 411.875L281.094 348.828L280.938 222.187L390.625 285.156L398.438 289.687L406.25 285.156L515.938 221.875L516.094 348.516L406.25 412.109L398.672 416.484ZM651.484 579.844L541.641 643.437L534.062 647.812L526.016 643.203L416.484 580.156L416.406 444.531L533.828 376.562L644.688 440.391C647.266 440.469 649.844 441.797 651.25 444.141L651.406 444.219V444.453C652.734 446.875 652.656 449.688 651.406 451.875L651.484 579.844Z" fill="#F05A31"/>
</svg>
