<svg width="800" height="800" viewBox="0 0 800 800" fill="none" xmlns="http://www.w3.org/2000/svg">
<path d="M523.516 670.078H161.094C139.531 670.078 122.031 652.578 122.031 631.016V258.672C122.031 237.109 139.531 219.609 161.094 219.609H523.437C545 219.609 562.5 237.109 562.5 258.672V631.016C562.578 652.656 545.078 670.078 523.516 670.078Z" fill="white"/>
<path d="M522.656 233.828H160.234C147.344 233.828 136.797 244.375 136.797 257.266V316.563H546.094V257.266C546.094 244.375 535.547 233.828 522.656 233.828Z" fill="#E6E6E6"/>
<path d="M671.094 124.453C659.063 114.844 643.359 109.609 626.797 109.609H284.063C267.5 109.609 251.719 114.922 239.766 124.453C226.953 134.687 219.531 149.219 219.531 164.297V202.578H160.234C130.078 202.578 105.547 227.109 105.547 257.266V629.609C105.547 659.766 130.078 684.297 160.234 684.297H522.656C552.813 684.297 577.344 659.766 577.344 629.609V591.328H626.797C643.359 591.328 659.141 586.016 671.094 576.484C683.906 566.25 691.328 551.719 691.328 536.641V164.297C691.328 149.219 683.906 134.687 671.094 124.453ZM546.094 316.563H136.797V257.266C136.797 244.375 147.344 233.828 160.234 233.828H522.656C535.547 233.828 546.094 244.375 546.094 257.266V316.563ZM546.094 629.609C546.094 642.5 535.547 653.047 522.656 653.047H160.234C147.344 653.047 136.797 642.5 136.797 629.609V332.188H546.094V629.609ZM660.078 536.641C660.078 549.375 644.844 560.078 626.797 560.078H577.344V257.266C577.344 227.109 552.813 202.578 522.656 202.578H250.781V164.297C250.781 151.562 266.016 140.859 284.063 140.859H626.797C644.844 140.859 660.078 151.562 660.078 164.297V536.641Z" fill="#F05A31"/>
<path d="M419.766 288.438H307.109C299.375 288.438 293.125 282.187 293.125 274.453C293.125 266.719 299.375 260.469 307.109 260.469H419.766C427.5 260.469 433.75 266.719 433.75 274.453C433.75 282.187 427.5 288.438 419.766 288.438Z" fill="white"/>
<path d="M250.312 626.797H186.172C173.203 626.797 162.734 616.328 162.734 603.359V355H250.312V626.797ZM497.031 626.797H277.344V355H520.547V603.359C520.469 616.328 510 626.797 497.031 626.797Z" fill="#E6E6E6"/>
<path d="M165.234 274.453C165.234 278.328 166.774 282.044 169.513 284.784C172.253 287.523 175.969 289.062 179.844 289.062C183.718 289.062 187.434 287.523 190.174 284.784C192.914 282.044 194.453 278.328 194.453 274.453C194.453 270.578 192.914 266.863 190.174 264.123C187.434 261.383 183.718 259.844 179.844 259.844C175.969 259.844 172.253 261.383 169.513 264.123C166.774 266.863 165.234 270.578 165.234 274.453Z" fill="white"/>
<path d="M212.422 274.453C212.422 276.372 212.8 278.271 213.534 280.044C214.268 281.816 215.344 283.427 216.701 284.784C218.057 286.14 219.668 287.216 221.44 287.95C223.213 288.685 225.113 289.062 227.031 289.062C228.95 289.062 230.85 288.685 232.622 287.95C234.395 287.216 236.005 286.14 237.362 284.784C238.718 283.427 239.794 281.816 240.529 280.044C241.263 278.271 241.641 276.372 241.641 274.453C241.641 272.535 241.263 270.635 240.529 268.862C239.794 267.09 238.718 265.479 237.362 264.123C236.005 262.766 234.395 261.69 232.622 260.956C230.85 260.222 228.95 259.844 227.031 259.844C225.113 259.844 223.213 260.222 221.44 260.956C219.668 261.69 218.057 262.766 216.701 264.123C215.344 265.479 214.268 267.09 213.534 268.862C212.8 270.635 212.422 272.535 212.422 274.453Z" fill="white"/>
<path d="M176.016 585.312C174.141 585.312 172.344 584.687 170.859 583.359C167.656 580.469 167.344 575.547 170.234 572.344L264.609 466.094L359.141 492.969L508.906 389.609C512.422 387.187 517.344 388.047 519.766 391.562C522.188 395.078 521.328 400 517.813 402.422L361.875 509.922L269.688 483.75L181.797 582.656C180.313 584.375 178.125 585.312 176.016 585.312Z" fill="#F05A31"/>
<path d="M367.109 578.359L264.531 442.734L168.281 483.203C164.297 484.844 159.687 483.047 158.047 479.062C156.406 475.078 158.203 470.469 162.188 468.828L269.609 423.594L366.484 551.797L498.438 362.187C500.938 358.672 505.781 357.734 509.297 360.234C512.813 362.734 513.75 367.578 511.25 371.094L367.109 578.359Z" fill="black"/>
</svg>
