<svg width="193" height="193" viewBox="0 0 193 193" fill="none" xmlns="http://www.w3.org/2000/svg">
<path d="M93.1451 52.453H90.3934C65.9856 52.453 46.1202 74.2409 46.1202 101.061C46.0071 126.581 66.5134 147.351 91.9389 147.464H92.9378C118.721 147.86 139.944 127.259 140.415 101.4V98.6298H93.1451V52.453Z" fill="#FFECE1"/>
<path d="M104.925 40.2774H102.154V85.8134C102.154 86.6992 102.512 87.5662 103.153 88.1693C103.756 88.7536 104.567 89.0929 105.434 89.0929H152.044V86.3223C151.969 60.8025 131.312 40.1832 105.886 40.2397C105.585 40.2774 105.245 40.2774 104.925 40.2774Z" fill="#FFECE1"/>
<path d="M103.832 38.8827C103.474 38.8827 103.116 38.8827 102.757 38.9016H101.57V59.2193H101.589V90.1295H149.273V90.2237H152.892V87.7358C152.836 60.6895 130.878 38.8262 103.832 38.8827ZM105.509 86.2846L105.679 84.7956V44.8574C128.108 46.2145 147.521 64.5344 148.953 86.2846H105.509Z" fill="#F05A31"/>
<path d="M144.618 98.4979C144.411 98.4602 144.185 98.4225 143.977 98.4036H141.339C141.131 98.4225 140.905 98.4602 140.698 98.4979H93.2958V51.1148C93.5409 49.8144 93.5409 48.4762 93.2958 47.1757C92.8058 46.6856 92.6927 47.1757 92.0142 47.2134C64.2139 48.2312 42.1622 70.9614 41.9548 98.7806C42.0679 127.052 65.0432 149.895 93.3147 149.839C121.228 149.368 143.845 127.014 144.599 99.101C144.618 98.4036 145.108 98.9879 144.618 98.4979ZM93.3147 144.693H92.3346C67.173 144.505 46.9118 123.961 47.1002 98.7806C47.2699 74.7687 65.6086 54.7713 89.5263 52.5096H89.5452V99.0067C89.5452 100.439 90.6949 101.589 92.1084 101.589H139.322C137.06 125.507 117.327 143.996 93.3147 144.693Z" fill="#F05A31"/>
</svg>
