<svg width="193" height="193" viewBox="0 0 193 193" fill="none" xmlns="http://www.w3.org/2000/svg">
<path d="M41.2386 151.667H149.047V155.832H41.2386V151.667Z" fill="#F05A31"/>
<path d="M45.3851 39.1654H144.901V151.648H45.3851V39.1654Z" fill="#FFECE1"/>
<path d="M53.6781 112.087C53.6781 113.747 54.3334 115.338 55.4998 116.512C56.6662 117.685 58.2483 118.344 59.8978 118.344C61.5474 118.344 63.1294 117.685 64.2958 116.512C65.4623 115.338 66.1176 113.747 66.1176 112.087C66.1176 110.427 65.4623 108.836 64.2958 107.662C63.1294 106.489 61.5474 105.83 59.8978 105.83C58.2483 105.83 56.6662 106.489 55.4998 107.662C54.3334 108.836 53.6781 110.427 53.6781 112.087Z" fill="#F05A31"/>
<path d="M74.4105 87.095C74.4105 88.7546 75.0658 90.3462 76.2322 91.5197C77.3987 92.6932 78.9807 93.3524 80.6302 93.3524C82.2798 93.3524 83.8618 92.6932 85.0283 91.5197C86.1947 90.3462 86.85 88.7546 86.85 87.095C86.85 85.4355 86.1947 83.8439 85.0283 82.6704C83.8618 81.4969 82.2798 80.8376 80.6302 80.8376C78.9807 80.8376 77.3987 81.4969 76.2322 82.6704C75.0658 83.8439 74.4105 85.4355 74.4105 87.095Z" fill="#F05A31"/>
<path d="M98.7806 103.681C98.7806 105.341 99.4359 106.932 100.602 108.106C101.769 109.279 103.351 109.938 105 109.938C106.65 109.938 108.232 109.279 109.398 108.106C110.565 106.932 111.22 105.341 111.22 103.681C111.22 102.021 110.565 100.43 109.398 99.2563C108.232 98.0828 106.65 97.4235 105 97.4235C103.351 97.4235 101.769 98.0828 100.602 99.2563C99.4359 100.43 98.7806 102.021 98.7806 103.681Z" fill="#F05A31"/>
<path d="M124.168 74.5802C124.168 76.2397 124.824 77.8313 125.99 79.0048C127.156 80.1783 128.738 80.8376 130.388 80.8376C132.038 80.8376 133.62 80.1783 134.786 79.0048C135.952 77.8313 136.608 76.2397 136.608 74.5802C136.608 72.9206 135.952 71.329 134.786 70.1555C133.62 68.982 132.038 68.3228 130.388 68.3228C128.738 68.3228 127.156 68.982 125.99 70.1555C124.824 71.329 124.168 72.9206 124.168 74.5802Z" fill="#F05A31"/>
<path d="M61.9334 107.865L79.2356 89.9033L82.2135 92.8247L64.9113 110.768L61.9334 107.865ZM86.8123 87.5851L105.471 104.133L102.72 107.262L84.0794 90.7138L86.8123 87.5851ZM129.634 78.8586L109.543 100.665L105.453 97.7063L125.544 75.8995L129.634 78.8586Z" fill="#F05A31"/>
<path d="M41.2386 39.1654H149.047V43.3308H41.2386V39.1654ZM41.2386 43.3308H45.3851V151.648H41.2386V43.3308ZM144.901 43.3308H149.047V155.814H144.901V43.3308Z" fill="#F05A31"/>
</svg>
