<?xml version="1.0" encoding="utf-8"?>
<!-- Generator: Adobe Illustrator 19.1.0, SVG Export Plug-In . SVG Version: 6.00 Build 0)  -->
<!DOCTYPE svg PUBLIC "-//W3C//DTD SVG 1.1//EN" "http://www.w3.org/Graphics/SVG/1.1/DTD/svg11.dtd">
<svg version="1.1" id="Layer_x5F_1" xmlns="http://www.w3.org/2000/svg" xmlns:xlink="http://www.w3.org/1999/xlink" x="0px"
	 y="0px" viewBox="0 0 64 64" style="enable-background:new 0 0 64 64;" xml:space="preserve">
<style type="text/css">
	.st0{fill:#E64C3B;}
	.st1{fill:#C03A2B;}
	.st2{fill:#2C3E50;}
</style>
<g>
	<path id="PathItem_x5F_139" class="st0" d="M33.1,2.6c0,0.9-0.7,1.6-1.6,1.6c-0.9,0-1.6-0.7-1.6-1.6c0-0.9,0.7-1.6,1.6-1.6
		C32.3,1,33.1,1.8,33.1,2.6"/>
	<path id="CompoundPathItem_x5F_41" class="st0" d="M31.4,4.6c-1.1,0-2-0.9-2-2c0-1.1,0.9-2,2-2c1.1,0,2,0.9,2,2
		C33.4,3.7,32.5,4.6,31.4,4.6 M31.4,1.4c-0.7,0-1.3,0.6-1.3,1.3c0,0.7,0.6,1.3,1.3,1.3c0.7,0,1.3-0.6,1.3-1.3
		C32.7,2,32.1,1.4,31.4,1.4"/>
	<path id="PathItem_x5F_136" class="st1" d="M38.1,33.2c0,1.3-1,2.3-2.3,2.3s-2.3-1-2.3-2.3c0-1.3,1-2.3,2.3-2.3
		S38.1,31.9,38.1,33.2"/>
	<path id="CompoundPathItem_x5F_40" class="st1" d="M35.8,35.9c-1.5,0-2.7-1.2-2.7-2.7c0-1.5,1.2-2.7,2.7-2.7c1.5,0,2.7,1.2,2.7,2.7
		C38.5,34.6,37.3,35.9,35.8,35.9 M35.8,31.2c-1.1,0-2,0.9-2,2c0,1.1,0.9,2,2,2c1.1,0,2-0.9,2-2C37.8,32.1,36.9,31.2,35.8,31.2"/>
	<path id="PathItem_x5F_133" class="st0" d="M28.2,38.9c0,0.9-0.7,1.6-1.6,1.6c-0.9,0-1.6-0.7-1.6-1.6c0-0.9,0.7-1.6,1.6-1.6
		C27.5,37.3,28.2,38,28.2,38.9"/>
	<path id="CompoundPathItem_x5F_39" class="st0" d="M26.6,40.9c-1.1,0-2-0.9-2-2c0-1.1,0.9-2,2-2c1.1,0,2,0.9,2,2
		C28.6,40,27.7,40.9,26.6,40.9 M26.6,37.6c-0.7,0-1.3,0.6-1.3,1.3c0,0.7,0.6,1.3,1.3,1.3c0.7,0,1.3-0.6,1.3-1.3
		C27.9,38.2,27.3,37.6,26.6,37.6"/>
	<path id="PathItem_x5F_130" class="st0" d="M20,33.7c-0.4,0.9-0.6,1.8-0.6,2.8c0,5.3,5.8,9.6,13.1,9.6c3.2,0,6.2,0.1,8.5-0.2
		c-1,6.3-6.4,11-12.9,11c-7.2,0-13.1-5.8-13.1-13.1C15.1,39.8,17,36.1,20,33.7"/>
	<path id="PathItem_x5F_129" class="st1" d="M42.6,29.5c0.5,1.2,0.7,2.4,0.7,3.7c0,7-7.7,12.6-17.1,12.6c-4.2,0-8.1,0.2-11.2-0.2
		C16.3,53.7,23.4,60,32,60c9.5,0,17.1-7.7,17.1-17.1C49.1,37.4,46.6,32.6,42.6,29.5"/>
	<path id="CompoundPathItem_x5F_38" class="st2" d="M32,63.3c-11.3,0-20.5-9.2-20.5-20.5c0-8.9,5.6-16.7,14.1-19.5V12.1h-1.1
		c-0.7,0-1.3-0.6-1.3-1.3V9.2c0-0.7,0.6-1.3,1.3-1.3h15.1c0.7,0,1.3,0.6,1.3,1.3v1.7c0,0.7-0.6,1.3-1.3,1.3h-1.1v11.3
		c8.4,2.8,14.1,10.6,14.1,19.5C52.5,54.1,43.3,63.3,32,63.3 M24.4,9c-0.1,0-0.2,0.1-0.2,0.2v1.7c0,0.1,0.1,0.2,0.2,0.2h1.7
		c0.3,0,0.5,0.2,0.5,0.5v12.2c0,0.2-0.2,0.4-0.4,0.5c-8.2,2.5-13.7,10-13.7,18.6c0,10.7,8.7,19.4,19.4,19.4s19.4-8.7,19.4-19.4
		c0-8.6-5.5-16-13.7-18.6c-0.2-0.1-0.4-0.3-0.4-0.5V11.6c0-0.3,0.2-0.5,0.5-0.5h1.7c0.1,0,0.2-0.1,0.2-0.2V9.2
		c0-0.1-0.1-0.2-0.2-0.2H24.4z"/>
	<path id="PathItem_x5F_126" class="st0" d="M39.6,46.8c0,0.9-0.7,1.6-1.6,1.6c-0.9,0-1.6-0.7-1.6-1.6c0-0.9,0.7-1.6,1.6-1.6
		C38.9,45.1,39.6,45.9,39.6,46.8"/>
	<path id="CompoundPathItem_x5F_37" class="st0" d="M38,48.8c-1.1,0-2-0.9-2-2c0-1.1,0.9-2,2-2c1.1,0,2,0.9,2,2
		C40,47.9,39.1,48.8,38,48.8 M38,45.5c-0.7,0-1.3,0.6-1.3,1.3c0,0.7,0.6,1.3,1.3,1.3c0.7,0,1.3-0.6,1.3-1.3
		C39.3,46.1,38.7,45.5,38,45.5"/>
	<path id="PathItem_x5F_100" class="st1" d="M33.7,18.1c0,0.9-0.7,1.6-1.6,1.6c-0.9,0-1.6-0.7-1.6-1.6c0-0.9,0.7-1.6,1.6-1.6
		C33,16.5,33.7,17.2,33.7,18.1"/>
	<path id="CompoundPathItem_x5F_28" class="st1" d="M32.1,20.1c-1.1,0-2-0.9-2-2c0-1.1,0.9-2,2-2c1.1,0,2,0.9,2,2
		C34.1,19.2,33.2,20.1,32.1,20.1 M32.1,16.9c-0.7,0-1.3,0.6-1.3,1.3c0,0.7,0.6,1.3,1.3,1.3c0.7,0,1.3-0.6,1.3-1.3
		C33.4,17.4,32.8,16.9,32.1,16.9"/>
</g>
</svg>
