<svg width="47" height="44" viewBox="0 0 47 44" fill="none" xmlns="http://www.w3.org/2000/svg">
<style>
    #favicon__first-letters{
        fill:black;
    }
    @media (prefers-color-scheme: dark){
        #favicon__first-letters{
            fill:white;
        }
    }
</style>
<g clip-path="url(#clip0_6_166)">
<path id="favicon__first-letters" d="M6.71 0.969999C7.81 0.969999 8.79 1.24 9.65 1.78C10.51 2.32 11.17 3.08 11.63 4.06C12.11 5.02 12.35 6.12 12.35 7.36C12.35 9.22 11.85 10.71 10.85 11.83C9.85 12.95 8.54 13.51 6.92 13.51H4.67C4.57 13.51 4.52 13.56 4.52 13.66V21.64C4.52 21.74 4.48 21.83 4.4 21.91C4.34 21.97 4.26 22 4.16 22H0.65C0.55 22 0.46 21.97 0.38 21.91C0.32 21.83 0.29 21.74 0.29 21.64V1.33C0.29 1.23 0.32 1.15 0.38 1.09C0.46 1.01 0.55 0.969999 0.65 0.969999H6.71ZM5.99 10.21C6.63 10.21 7.14 9.97 7.52 9.49C7.92 8.99 8.12 8.31 8.12 7.45C8.12 6.57 7.92 5.88 7.52 5.38C7.14 4.88 6.63 4.63 5.99 4.63H4.67C4.57 4.63 4.52 4.68 4.52 4.78V10.06C4.52 10.16 4.57 10.21 4.67 10.21H5.99ZM25.2753 4.27C25.2753 4.37 25.2353 4.46 25.1553 4.54C25.0953 4.6 25.0153 4.63 24.9153 4.63H18.6453C18.5453 4.63 18.4953 4.68 18.4953 4.78V9.52C18.4953 9.62 18.5453 9.67 18.6453 9.67H22.2453C22.3453 9.67 22.4253 9.71 22.4853 9.79C22.5653 9.85 22.6053 9.93 22.6053 10.03V12.94C22.6053 13.04 22.5653 13.13 22.4853 13.21C22.4253 13.27 22.3453 13.3 22.2453 13.3H18.6453C18.5453 13.3 18.4953 13.35 18.4953 13.45V18.22C18.4953 18.32 18.5453 18.37 18.6453 18.37H24.9153C25.0153 18.37 25.0953 18.41 25.1553 18.49C25.2353 18.55 25.2753 18.63 25.2753 18.73V21.64C25.2753 21.74 25.2353 21.83 25.1553 21.91C25.0953 21.97 25.0153 22 24.9153 22H14.6253C14.5253 22 14.4353 21.97 14.3553 21.91C14.2953 21.83 14.2653 21.74 14.2653 21.64V1.36C14.2653 1.26 14.2953 1.18 14.3553 1.12C14.4353 1.04 14.5253 0.999999 14.6253 0.999999H24.9153C25.0153 0.999999 25.0953 1.04 25.1553 1.12C25.2353 1.18 25.2753 1.26 25.2753 1.36V4.27ZM35.6996 22C35.4796 22 35.3396 21.9 35.2796 21.7L32.9696 13.42C32.9296 13.34 32.8796 13.3 32.8196 13.3H31.7996C31.6996 13.3 31.6496 13.35 31.6496 13.45V21.64C31.6496 21.74 31.6096 21.83 31.5296 21.91C31.4696 21.97 31.3896 22 31.2896 22H27.7796C27.6796 22 27.5896 21.97 27.5096 21.91C27.4496 21.83 27.4196 21.74 27.4196 21.64V1.36C27.4196 1.26 27.4496 1.18 27.5096 1.12C27.5896 1.04 27.6796 0.999999 27.7796 0.999999H33.8396C34.9396 0.999999 35.9196 1.27 36.7796 1.81C37.6396 2.33 38.2996 3.07 38.7596 4.03C39.2396 4.99 39.4796 6.09 39.4796 7.33C39.4796 8.51 39.2496 9.55 38.7896 10.45C38.3496 11.35 37.7296 12.05 36.9296 12.55C36.8896 12.57 36.8596 12.6 36.8396 12.64C36.8196 12.66 36.8196 12.69 36.8396 12.73L39.5996 21.58L39.6296 21.7C39.6296 21.9 39.5196 22 39.2996 22H35.6996ZM31.7996 4.63C31.6996 4.63 31.6496 4.68 31.6496 4.78V9.91C31.6496 10.01 31.6996 10.06 31.7996 10.06H33.1496C33.7696 10.06 34.2696 9.82 34.6496 9.34C35.0496 8.84 35.2496 8.18 35.2496 7.36C35.2496 6.52 35.0496 5.86 34.6496 5.38C34.2696 4.88 33.7696 4.63 33.1496 4.63H31.7996Z"/>
<path d="M6.72 42.24C5.56 42.24 4.54 42.01 3.66 41.55C2.78 41.09 2.1 40.45 1.62 39.63C1.14 38.79 0.9 37.83 0.9 36.75V35.88C0.9 35.78 0.93 35.7 0.99 35.64C1.07 35.56 1.16 35.52 1.26 35.52H4.71C4.81 35.52 4.89 35.56 4.95 35.64C5.03 35.7 5.07 35.78 5.07 35.88V36.54C5.07 37.16 5.23 37.66 5.55 38.04C5.87 38.42 6.27 38.61 6.75 38.61C7.23 38.61 7.63 38.43 7.95 38.07C8.27 37.71 8.43 37.24 8.43 36.66C8.43 36.06 8.23 35.55 7.83 35.13C7.43 34.69 6.65 34.05 5.49 33.21C4.49 32.49 3.68 31.85 3.06 31.29C2.44 30.73 1.91 30.04 1.47 29.22C1.03 28.4 0.81 27.45 0.81 26.37C0.81 24.67 1.34 23.31 2.4 22.29C3.46 21.27 4.86 20.76 6.6 20.76C8.36 20.76 9.77 21.29 10.83 22.35C11.91 23.41 12.45 24.8 12.45 26.52V27.24C12.45 27.34 12.41 27.43 12.33 27.51C12.27 27.57 12.19 27.6 12.09 27.6H8.64C8.54 27.6 8.45 27.57 8.37 27.51C8.31 27.43 8.28 27.34 8.28 27.24V26.43C8.28 25.81 8.12 25.32 7.8 24.96C7.5 24.58 7.1 24.39 6.6 24.39C6.12 24.39 5.73 24.57 5.43 24.93C5.13 25.27 4.98 25.75 4.98 26.37C4.98 26.97 5.17 27.5 5.55 27.96C5.93 28.42 6.68 29.06 7.8 29.88C9.04 30.8 9.97 31.55 10.59 32.13C11.23 32.69 11.72 33.32 12.06 34.02C12.42 34.7 12.6 35.52 12.6 36.48C12.6 38.24 12.06 39.64 10.98 40.68C9.9 41.72 8.48 42.24 6.72 42.24ZM15.0101 42C14.9101 42 14.8201 41.97 14.7401 41.91C14.6801 41.83 14.6501 41.74 14.6501 41.64V21.36C14.6501 21.26 14.6801 21.18 14.7401 21.12C14.8201 21.04 14.9101 21 15.0101 21H18.5201C18.6201 21 18.7001 21.04 18.7601 21.12C18.8401 21.18 18.8801 21.26 18.8801 21.36V41.64C18.8801 41.74 18.8401 41.83 18.7601 41.91C18.7001 41.97 18.6201 42 18.5201 42H15.0101ZM26.9641 42.24C25.8041 42.24 24.7841 42.01 23.9041 41.55C23.0241 41.09 22.3441 40.45 21.8641 39.63C21.3841 38.79 21.1441 37.83 21.1441 36.75V35.88C21.1441 35.78 21.1741 35.7 21.2341 35.64C21.3141 35.56 21.4041 35.52 21.5041 35.52H24.9541C25.0541 35.52 25.1341 35.56 25.1941 35.64C25.2741 35.7 25.3141 35.78 25.3141 35.88V36.54C25.3141 37.16 25.4741 37.66 25.7941 38.04C26.1141 38.42 26.5141 38.61 26.9941 38.61C27.4741 38.61 27.8741 38.43 28.1941 38.07C28.5141 37.71 28.6741 37.24 28.6741 36.66C28.6741 36.06 28.4741 35.55 28.0741 35.13C27.6741 34.69 26.8941 34.05 25.7341 33.21C24.7341 32.49 23.9241 31.85 23.3041 31.29C22.6841 30.73 22.1541 30.04 21.7141 29.22C21.2741 28.4 21.0541 27.45 21.0541 26.37C21.0541 24.67 21.5841 23.31 22.6441 22.29C23.7041 21.27 25.1041 20.76 26.8441 20.76C28.6041 20.76 30.0141 21.29 31.0741 22.35C32.1541 23.41 32.6941 24.8 32.6941 26.52V27.24C32.6941 27.34 32.6541 27.43 32.5741 27.51C32.5141 27.57 32.4341 27.6 32.3341 27.6H28.8841C28.7841 27.6 28.6941 27.57 28.6141 27.51C28.5541 27.43 28.5241 27.34 28.5241 27.24V26.43C28.5241 25.81 28.3641 25.32 28.0441 24.96C27.7441 24.58 27.3441 24.39 26.8441 24.39C26.3641 24.39 25.9741 24.57 25.6741 24.93C25.3741 25.27 25.2241 25.75 25.2241 26.37C25.2241 26.97 25.4141 27.5 25.7941 27.96C26.1741 28.42 26.9241 29.06 28.0441 29.88C29.2841 30.8 30.2141 31.55 30.8341 32.13C31.4741 32.69 31.9641 33.32 32.3041 34.02C32.6641 34.7 32.8441 35.52 32.8441 36.48C32.8441 38.24 32.3041 39.64 31.2241 40.68C30.1441 41.72 28.7241 42.24 26.9641 42.24ZM46.3584 21C46.4584 21 46.5384 21.04 46.5984 21.12C46.6784 21.18 46.7184 21.26 46.7184 21.36V24.27C46.7184 24.37 46.6784 24.46 46.5984 24.54C46.5384 24.6 46.4584 24.63 46.3584 24.63H42.6084C42.5084 24.63 42.4584 24.68 42.4584 24.78V41.64C42.4584 41.74 42.4184 41.83 42.3384 41.91C42.2784 41.97 42.1984 42 42.0984 42H38.5884C38.4884 42 38.3984 41.97 38.3184 41.91C38.2584 41.83 38.2284 41.74 38.2284 41.64V24.78C38.2284 24.68 38.1784 24.63 38.0784 24.63H34.4784C34.3784 24.63 34.2884 24.6 34.2084 24.54C34.1484 24.46 34.1184 24.37 34.1184 24.27V21.36C34.1184 21.26 34.1484 21.18 34.2084 21.12C34.2884 21.04 34.3784 21 34.4784 21H46.3584Z" fill="#F05A31"/>
</g>
<defs>
<clipPath id="clip0_6_166">
<rect width="47" height="44" fill="white"/>
</clipPath>
</defs>
</svg>
