<svg width="89" height="54" viewBox="0 0 89 54" fill="none" xmlns="http://www.w3.org/2000/svg">
<g clip-path="url(#clip0_5_2)">
<path d="M7.71 15.97C8.81 15.97 9.79 16.24 10.65 16.78C11.51 17.32 12.17 18.08 12.63 19.06C13.11 20.02 13.35 21.12 13.35 22.36C13.35 24.22 12.85 25.71 11.85 26.83C10.85 27.95 9.54 28.51 7.92 28.51H5.67C5.57 28.51 5.52 28.56 5.52 28.66V36.64C5.52 36.74 5.48 36.83 5.4 36.91C5.34 36.97 5.26 37 5.16 37H1.65C1.55 37 1.46 36.97 1.38 36.91C1.32 36.83 1.29 36.74 1.29 36.64V16.33C1.29 16.23 1.32 16.15 1.38 16.09C1.46 16.01 1.55 15.97 1.65 15.97H7.71ZM6.99 25.21C7.63 25.21 8.14 24.97 8.52 24.49C8.92 23.99 9.12 23.31 9.12 22.45C9.12 21.57 8.92 20.88 8.52 20.38C8.14 19.88 7.63 19.63 6.99 19.63H5.67C5.57 19.63 5.52 19.68 5.52 19.78V25.06C5.52 25.16 5.57 25.21 5.67 25.21H6.99ZM26.2753 19.27C26.2753 19.37 26.2353 19.46 26.1553 19.54C26.0953 19.6 26.0153 19.63 25.9153 19.63H19.6453C19.5453 19.63 19.4953 19.68 19.4953 19.78V24.52C19.4953 24.62 19.5453 24.67 19.6453 24.67H23.2453C23.3453 24.67 23.4253 24.71 23.4853 24.79C23.5653 24.85 23.6053 24.93 23.6053 25.03V27.94C23.6053 28.04 23.5653 28.13 23.4853 28.21C23.4253 28.27 23.3453 28.3 23.2453 28.3H19.6453C19.5453 28.3 19.4953 28.35 19.4953 28.45V33.22C19.4953 33.32 19.5453 33.37 19.6453 33.37H25.9153C26.0153 33.37 26.0953 33.41 26.1553 33.49C26.2353 33.55 26.2753 33.63 26.2753 33.73V36.64C26.2753 36.74 26.2353 36.83 26.1553 36.91C26.0953 36.97 26.0153 37 25.9153 37H15.6253C15.5253 37 15.4353 36.97 15.3553 36.91C15.2953 36.83 15.2653 36.74 15.2653 36.64V16.36C15.2653 16.26 15.2953 16.18 15.3553 16.12C15.4353 16.04 15.5253 16 15.6253 16H25.9153C26.0153 16 26.0953 16.04 26.1553 16.12C26.2353 16.18 26.2753 16.26 26.2753 16.36V19.27ZM36.6996 37C36.4796 37 36.3396 36.9 36.2796 36.7L33.9696 28.42C33.9296 28.34 33.8796 28.3 33.8196 28.3H32.7996C32.6996 28.3 32.6496 28.35 32.6496 28.45V36.64C32.6496 36.74 32.6096 36.83 32.5296 36.91C32.4696 36.97 32.3896 37 32.2896 37H28.7796C28.6796 37 28.5896 36.97 28.5096 36.91C28.4496 36.83 28.4196 36.74 28.4196 36.64V16.36C28.4196 16.26 28.4496 16.18 28.5096 16.12C28.5896 16.04 28.6796 16 28.7796 16H34.8396C35.9396 16 36.9196 16.27 37.7796 16.81C38.6396 17.33 39.2996 18.07 39.7596 19.03C40.2396 19.99 40.4796 21.09 40.4796 22.33C40.4796 23.51 40.2496 24.55 39.7896 25.45C39.3496 26.35 38.7296 27.05 37.9296 27.55C37.8896 27.57 37.8596 27.6 37.8396 27.64C37.8196 27.66 37.8196 27.69 37.8396 27.73L40.5996 36.58L40.6296 36.7C40.6296 36.9 40.5196 37 40.2996 37H36.6996ZM32.7996 19.63C32.6996 19.63 32.6496 19.68 32.6496 19.78V24.91C32.6496 25.01 32.6996 25.06 32.7996 25.06H34.1496C34.7696 25.06 35.2696 24.82 35.6496 24.34C36.0496 23.84 36.2496 23.18 36.2496 22.36C36.2496 21.52 36.0496 20.86 35.6496 20.38C35.2696 19.88 34.7696 19.63 34.1496 19.63H32.7996Z" fill="black"/>
<path d="M48.0286 37.24C46.8686 37.24 45.8486 37.01 44.9686 36.55C44.0886 36.09 43.4086 35.45 42.9286 34.63C42.4486 33.79 42.2086 32.83 42.2086 31.75V30.88C42.2086 30.78 42.2386 30.7 42.2986 30.64C42.3786 30.56 42.4686 30.52 42.5686 30.52H46.0186C46.1186 30.52 46.1986 30.56 46.2586 30.64C46.3386 30.7 46.3786 30.78 46.3786 30.88V31.54C46.3786 32.16 46.5386 32.66 46.8586 33.04C47.1786 33.42 47.5786 33.61 48.0586 33.61C48.5386 33.61 48.9386 33.43 49.2586 33.07C49.5786 32.71 49.7386 32.24 49.7386 31.66C49.7386 31.06 49.5386 30.55 49.1386 30.13C48.7386 29.69 47.9586 29.05 46.7986 28.21C45.7986 27.49 44.9886 26.85 44.3686 26.29C43.7486 25.73 43.2186 25.04 42.7786 24.22C42.3386 23.4 42.1186 22.45 42.1186 21.37C42.1186 19.67 42.6486 18.31 43.7086 17.29C44.7686 16.27 46.1686 15.76 47.9086 15.76C49.6686 15.76 51.0786 16.29 52.1386 17.35C53.2186 18.41 53.7586 19.8 53.7586 21.52V22.24C53.7586 22.34 53.7186 22.43 53.6386 22.51C53.5786 22.57 53.4986 22.6 53.3986 22.6H49.9486C49.8486 22.6 49.7586 22.57 49.6786 22.51C49.6186 22.43 49.5886 22.34 49.5886 22.24V21.43C49.5886 20.81 49.4286 20.32 49.1086 19.96C48.8086 19.58 48.4086 19.39 47.9086 19.39C47.4286 19.39 47.0386 19.57 46.7386 19.93C46.4386 20.27 46.2886 20.75 46.2886 21.37C46.2886 21.97 46.4786 22.5 46.8586 22.96C47.2386 23.42 47.9886 24.06 49.1086 24.88C50.3486 25.8 51.2786 26.55 51.8986 27.13C52.5386 27.69 53.0286 28.32 53.3686 29.02C53.7286 29.7 53.9086 30.52 53.9086 31.48C53.9086 33.24 53.3686 34.64 52.2886 35.68C51.2086 36.72 49.7886 37.24 48.0286 37.24ZM56.3187 37C56.2187 37 56.1287 36.97 56.0487 36.91C55.9887 36.83 55.9587 36.74 55.9587 36.64V16.36C55.9587 16.26 55.9887 16.18 56.0487 16.12C56.1287 16.04 56.2187 16 56.3187 16H59.8287C59.9287 16 60.0087 16.04 60.0687 16.12C60.1487 16.18 60.1887 16.26 60.1887 16.36V36.64C60.1887 36.74 60.1487 36.83 60.0687 36.91C60.0087 36.97 59.9287 37 59.8287 37H56.3187ZM68.2727 37.24C67.1127 37.24 66.0927 37.01 65.2127 36.55C64.3327 36.09 63.6527 35.45 63.1727 34.63C62.6927 33.79 62.4527 32.83 62.4527 31.75V30.88C62.4527 30.78 62.4827 30.7 62.5427 30.64C62.6227 30.56 62.7127 30.52 62.8127 30.52H66.2627C66.3627 30.52 66.4427 30.56 66.5027 30.64C66.5827 30.7 66.6227 30.78 66.6227 30.88V31.54C66.6227 32.16 66.7827 32.66 67.1027 33.04C67.4227 33.42 67.8227 33.61 68.3027 33.61C68.7827 33.61 69.1827 33.43 69.5027 33.07C69.8227 32.71 69.9827 32.24 69.9827 31.66C69.9827 31.06 69.7827 30.55 69.3827 30.13C68.9827 29.69 68.2027 29.05 67.0427 28.21C66.0427 27.49 65.2327 26.85 64.6127 26.29C63.9927 25.73 63.4627 25.04 63.0227 24.22C62.5827 23.4 62.3627 22.45 62.3627 21.37C62.3627 19.67 62.8927 18.31 63.9527 17.29C65.0127 16.27 66.4127 15.76 68.1527 15.76C69.9127 15.76 71.3227 16.29 72.3827 17.35C73.4627 18.41 74.0027 19.8 74.0027 21.52V22.24C74.0027 22.34 73.9627 22.43 73.8827 22.51C73.8227 22.57 73.7427 22.6 73.6427 22.6H70.1927C70.0927 22.6 70.0027 22.57 69.9227 22.51C69.8627 22.43 69.8327 22.34 69.8327 22.24V21.43C69.8327 20.81 69.6727 20.32 69.3527 19.96C69.0527 19.58 68.6527 19.39 68.1527 19.39C67.6727 19.39 67.2827 19.57 66.9827 19.93C66.6827 20.27 66.5327 20.75 66.5327 21.37C66.5327 21.97 66.7227 22.5 67.1027 22.96C67.4827 23.42 68.2327 24.06 69.3527 24.88C70.5927 25.8 71.5227 26.55 72.1427 27.13C72.7827 27.69 73.2727 28.32 73.6127 29.02C73.9727 29.7 74.1527 30.52 74.1527 31.48C74.1527 33.24 73.6127 34.64 72.5327 35.68C71.4527 36.72 70.0327 37.24 68.2727 37.24ZM87.667 16C87.767 16 87.847 16.04 87.907 16.12C87.987 16.18 88.027 16.26 88.027 16.36V19.27C88.027 19.37 87.987 19.46 87.907 19.54C87.847 19.6 87.767 19.63 87.667 19.63H83.917C83.817 19.63 83.767 19.68 83.767 19.78V36.64C83.767 36.74 83.727 36.83 83.647 36.91C83.587 36.97 83.507 37 83.407 37H79.897C79.797 37 79.707 36.97 79.627 36.91C79.567 36.83 79.537 36.74 79.537 36.64V19.78C79.537 19.68 79.487 19.63 79.387 19.63H75.787C75.687 19.63 75.597 19.6 75.517 19.54C75.457 19.46 75.427 19.37 75.427 19.27V16.36C75.427 16.26 75.457 16.18 75.517 16.12C75.597 16.04 75.687 16 75.787 16H87.667Z" fill="#F05A31"/>
<rect x="54" y="15" width="8" height="23" fill="white"/>
<path d="M58 16V37" stroke="black" stroke-width="1.5" stroke-linecap="round"/>
<circle cx="58" cy="10" r="3.75" fill="#54C7EC" stroke="black" stroke-width="0.5"/>
<circle cx="58" cy="43" r="3.5" stroke="black"/>
<path d="M58 49V70" stroke="black" stroke-width="1.5" stroke-linecap="round"/>
<path d="M58 -17V4" stroke="black" stroke-width="1.5" stroke-linecap="round"/>
</g>
<defs>
<clipPath id="clip0_5_2">
<rect width="89" height="54" fill="white"/>
</clipPath>
</defs>
</svg>
