<svg width="89" height="31" viewBox="0 0 89 31" fill="none" xmlns="http://www.w3.org/2000/svg">
<g clip-path="url(#clip0_5_52)">
<path d="M7.71 9.97C8.81 9.97 9.79 10.24 10.65 10.78C11.51 11.32 12.17 12.08 12.63 13.06C13.11 14.02 13.35 15.12 13.35 16.36C13.35 18.22 12.85 19.71 11.85 20.83C10.85 21.95 9.54 22.51 7.92 22.51H5.67C5.57 22.51 5.52 22.56 5.52 22.66V30.64C5.52 30.74 5.48 30.83 5.4 30.91C5.34 30.97 5.26 31 5.16 31H1.65C1.55 31 1.46 30.97 1.38 30.91C1.32 30.83 1.29 30.74 1.29 30.64V10.33C1.29 10.23 1.32 10.15 1.38 10.09C1.46 10.01 1.55 9.97 1.65 9.97H7.71ZM6.99 19.21C7.63 19.21 8.14 18.97 8.52 18.49C8.92 17.99 9.12 17.31 9.12 16.45C9.12 15.57 8.92 14.88 8.52 14.38C8.14 13.88 7.63 13.63 6.99 13.63H5.67C5.57 13.63 5.52 13.68 5.52 13.78V19.06C5.52 19.16 5.57 19.21 5.67 19.21H6.99ZM26.2753 13.27C26.2753 13.37 26.2353 13.46 26.1553 13.54C26.0953 13.6 26.0153 13.63 25.9153 13.63H19.6453C19.5453 13.63 19.4953 13.68 19.4953 13.78V18.52C19.4953 18.62 19.5453 18.67 19.6453 18.67H23.2453C23.3453 18.67 23.4253 18.71 23.4853 18.79C23.5653 18.85 23.6053 18.93 23.6053 19.03V21.94C23.6053 22.04 23.5653 22.13 23.4853 22.21C23.4253 22.27 23.3453 22.3 23.2453 22.3H19.6453C19.5453 22.3 19.4953 22.35 19.4953 22.45V27.22C19.4953 27.32 19.5453 27.37 19.6453 27.37H25.9153C26.0153 27.37 26.0953 27.41 26.1553 27.49C26.2353 27.55 26.2753 27.63 26.2753 27.73V30.64C26.2753 30.74 26.2353 30.83 26.1553 30.91C26.0953 30.97 26.0153 31 25.9153 31H15.6253C15.5253 31 15.4353 30.97 15.3553 30.91C15.2953 30.83 15.2653 30.74 15.2653 30.64V10.36C15.2653 10.26 15.2953 10.18 15.3553 10.12C15.4353 10.04 15.5253 10 15.6253 10H25.9153C26.0153 10 26.0953 10.04 26.1553 10.12C26.2353 10.18 26.2753 10.26 26.2753 10.36V13.27ZM36.6996 31C36.4796 31 36.3396 30.9 36.2796 30.7L33.9696 22.42C33.9296 22.34 33.8796 22.3 33.8196 22.3H32.7996C32.6996 22.3 32.6496 22.35 32.6496 22.45V30.64C32.6496 30.74 32.6096 30.83 32.5296 30.91C32.4696 30.97 32.3896 31 32.2896 31H28.7796C28.6796 31 28.5896 30.97 28.5096 30.91C28.4496 30.83 28.4196 30.74 28.4196 30.64V10.36C28.4196 10.26 28.4496 10.18 28.5096 10.12C28.5896 10.04 28.6796 10 28.7796 10H34.8396C35.9396 10 36.9196 10.27 37.7796 10.81C38.6396 11.33 39.2996 12.07 39.7596 13.03C40.2396 13.99 40.4796 15.09 40.4796 16.33C40.4796 17.51 40.2496 18.55 39.7896 19.45C39.3496 20.35 38.7296 21.05 37.9296 21.55C37.8896 21.57 37.8596 21.6 37.8396 21.64C37.8196 21.66 37.8196 21.69 37.8396 21.73L40.5996 30.58L40.6296 30.7C40.6296 30.9 40.5196 31 40.2996 31H36.6996ZM32.7996 13.63C32.6996 13.63 32.6496 13.68 32.6496 13.78V18.91C32.6496 19.01 32.6996 19.06 32.7996 19.06H34.1496C34.7696 19.06 35.2696 18.82 35.6496 18.34C36.0496 17.84 36.2496 17.18 36.2496 16.36C36.2496 15.52 36.0496 14.86 35.6496 14.38C35.2696 13.88 34.7696 13.63 34.1496 13.63H32.7996Z" fill="white"/>
<path d="M48.0286 31.24C46.8686 31.24 45.8486 31.01 44.9686 30.55C44.0886 30.09 43.4086 29.45 42.9286 28.63C42.4486 27.79 42.2086 26.83 42.2086 25.75V24.88C42.2086 24.78 42.2386 24.7 42.2986 24.64C42.3786 24.56 42.4686 24.52 42.5686 24.52H46.0186C46.1186 24.52 46.1986 24.56 46.2586 24.64C46.3386 24.7 46.3786 24.78 46.3786 24.88V25.54C46.3786 26.16 46.5386 26.66 46.8586 27.04C47.1786 27.42 47.5786 27.61 48.0586 27.61C48.5386 27.61 48.9386 27.43 49.2586 27.07C49.5786 26.71 49.7386 26.24 49.7386 25.66C49.7386 25.06 49.5386 24.55 49.1386 24.13C48.7386 23.69 47.9586 23.05 46.7986 22.21C45.7986 21.49 44.9886 20.85 44.3686 20.29C43.7486 19.73 43.2186 19.04 42.7786 18.22C42.3386 17.4 42.1186 16.45 42.1186 15.37C42.1186 13.67 42.6486 12.31 43.7086 11.29C44.7686 10.27 46.1686 9.76 47.9086 9.76C49.6686 9.76 51.0786 10.29 52.1386 11.35C53.2186 12.41 53.7586 13.8 53.7586 15.52V16.24C53.7586 16.34 53.7186 16.43 53.6386 16.51C53.5786 16.57 53.4986 16.6 53.3986 16.6H49.9486C49.8486 16.6 49.7586 16.57 49.6786 16.51C49.6186 16.43 49.5886 16.34 49.5886 16.24V15.43C49.5886 14.81 49.4286 14.32 49.1086 13.96C48.8086 13.58 48.4086 13.39 47.9086 13.39C47.4286 13.39 47.0386 13.57 46.7386 13.93C46.4386 14.27 46.2886 14.75 46.2886 15.37C46.2886 15.97 46.4786 16.5 46.8586 16.96C47.2386 17.42 47.9886 18.06 49.1086 18.88C50.3486 19.8 51.2786 20.55 51.8986 21.13C52.5386 21.69 53.0286 22.32 53.3686 23.02C53.7286 23.7 53.9086 24.52 53.9086 25.48C53.9086 27.24 53.3686 28.64 52.2886 29.68C51.2086 30.72 49.7886 31.24 48.0286 31.24ZM56.3187 31C56.2187 31 56.1287 30.97 56.0487 30.91C55.9887 30.83 55.9587 30.74 55.9587 30.64V10.36C55.9587 10.26 55.9887 10.18 56.0487 10.12C56.1287 10.04 56.2187 10 56.3187 10H59.8287C59.9287 10 60.0087 10.04 60.0687 10.12C60.1487 10.18 60.1887 10.26 60.1887 10.36V30.64C60.1887 30.74 60.1487 30.83 60.0687 30.91C60.0087 30.97 59.9287 31 59.8287 31H56.3187ZM68.2727 31.24C67.1127 31.24 66.0927 31.01 65.2127 30.55C64.3327 30.09 63.6527 29.45 63.1727 28.63C62.6927 27.79 62.4527 26.83 62.4527 25.75V24.88C62.4527 24.78 62.4827 24.7 62.5427 24.64C62.6227 24.56 62.7127 24.52 62.8127 24.52H66.2627C66.3627 24.52 66.4427 24.56 66.5027 24.64C66.5827 24.7 66.6227 24.78 66.6227 24.88V25.54C66.6227 26.16 66.7827 26.66 67.1027 27.04C67.4227 27.42 67.8227 27.61 68.3027 27.61C68.7827 27.61 69.1827 27.43 69.5027 27.07C69.8227 26.71 69.9827 26.24 69.9827 25.66C69.9827 25.06 69.7827 24.55 69.3827 24.13C68.9827 23.69 68.2027 23.05 67.0427 22.21C66.0427 21.49 65.2327 20.85 64.6127 20.29C63.9927 19.73 63.4627 19.04 63.0227 18.22C62.5827 17.4 62.3627 16.45 62.3627 15.37C62.3627 13.67 62.8927 12.31 63.9527 11.29C65.0127 10.27 66.4127 9.76 68.1527 9.76C69.9127 9.76 71.3227 10.29 72.3827 11.35C73.4627 12.41 74.0027 13.8 74.0027 15.52V16.24C74.0027 16.34 73.9627 16.43 73.8827 16.51C73.8227 16.57 73.7427 16.6 73.6427 16.6H70.1927C70.0927 16.6 70.0027 16.57 69.9227 16.51C69.8627 16.43 69.8327 16.34 69.8327 16.24V15.43C69.8327 14.81 69.6727 14.32 69.3527 13.96C69.0527 13.58 68.6527 13.39 68.1527 13.39C67.6727 13.39 67.2827 13.57 66.9827 13.93C66.6827 14.27 66.5327 14.75 66.5327 15.37C66.5327 15.97 66.7227 16.5 67.1027 16.96C67.4827 17.42 68.2327 18.06 69.3527 18.88C70.5927 19.8 71.5227 20.55 72.1427 21.13C72.7827 21.69 73.2727 22.32 73.6127 23.02C73.9727 23.7 74.1527 24.52 74.1527 25.48C74.1527 27.24 73.6127 28.64 72.5327 29.68C71.4527 30.72 70.0327 31.24 68.2727 31.24ZM87.667 10C87.767 10 87.847 10.04 87.907 10.12C87.987 10.18 88.027 10.26 88.027 10.36V13.27C88.027 13.37 87.987 13.46 87.907 13.54C87.847 13.6 87.767 13.63 87.667 13.63H83.917C83.817 13.63 83.767 13.68 83.767 13.78V30.64C83.767 30.74 83.727 30.83 83.647 30.91C83.587 30.97 83.507 31 83.407 31H79.897C79.797 31 79.707 30.97 79.627 30.91C79.567 30.83 79.537 30.74 79.537 30.64V13.78C79.537 13.68 79.487 13.63 79.387 13.63H75.787C75.687 13.63 75.597 13.6 75.517 13.54C75.457 13.46 75.427 13.37 75.427 13.27V10.36C75.427 10.26 75.457 10.18 75.517 10.12C75.597 10.04 75.687 10 75.787 10H87.667Z" fill="#F05A31"/>
<circle cx="58" cy="4" r="3.75" fill="#F05A31" stroke="white" stroke-width="0.5"/>
</g>
<defs>
<clipPath id="clip0_5_52">
<rect width="89" height="31" fill="white"/>
</clipPath>
</defs>
</svg>
