<svg width="89" height="100" viewBox="0 0 89 100" fill="none" xmlns="http://www.w3.org/2000/svg">
<g clip-path="url(#clip0_2_473)">
<path d="M7.71 43.97C8.81 43.97 9.79 44.24 10.65 44.78C11.51 45.32 12.17 46.08 12.63 47.06C13.11 48.02 13.35 49.12 13.35 50.36C13.35 52.22 12.85 53.71 11.85 54.83C10.85 55.95 9.54 56.51 7.92 56.51H5.67C5.57 56.51 5.52 56.56 5.52 56.66V64.64C5.52 64.74 5.48 64.83 5.4 64.91C5.34 64.97 5.26 65 5.16 65H1.65C1.55 65 1.46 64.97 1.38 64.91C1.32 64.83 1.29 64.74 1.29 64.64V44.33C1.29 44.23 1.32 44.15 1.38 44.09C1.46 44.01 1.55 43.97 1.65 43.97H7.71ZM6.99 53.21C7.63 53.21 8.14 52.97 8.52 52.49C8.92 51.99 9.12 51.31 9.12 50.45C9.12 49.57 8.92 48.88 8.52 48.38C8.14 47.88 7.63 47.63 6.99 47.63H5.67C5.57 47.63 5.52 47.68 5.52 47.78V53.06C5.52 53.16 5.57 53.21 5.67 53.21H6.99ZM26.2753 47.27C26.2753 47.37 26.2353 47.46 26.1553 47.54C26.0953 47.6 26.0153 47.63 25.9153 47.63H19.6453C19.5453 47.63 19.4953 47.68 19.4953 47.78V52.52C19.4953 52.62 19.5453 52.67 19.6453 52.67H23.2453C23.3453 52.67 23.4253 52.71 23.4853 52.79C23.5653 52.85 23.6053 52.93 23.6053 53.03V55.94C23.6053 56.04 23.5653 56.13 23.4853 56.21C23.4253 56.27 23.3453 56.3 23.2453 56.3H19.6453C19.5453 56.3 19.4953 56.35 19.4953 56.45V61.22C19.4953 61.32 19.5453 61.37 19.6453 61.37H25.9153C26.0153 61.37 26.0953 61.41 26.1553 61.49C26.2353 61.55 26.2753 61.63 26.2753 61.73V64.64C26.2753 64.74 26.2353 64.83 26.1553 64.91C26.0953 64.97 26.0153 65 25.9153 65H15.6253C15.5253 65 15.4353 64.97 15.3553 64.91C15.2953 64.83 15.2653 64.74 15.2653 64.64V44.36C15.2653 44.26 15.2953 44.18 15.3553 44.12C15.4353 44.04 15.5253 44 15.6253 44H25.9153C26.0153 44 26.0953 44.04 26.1553 44.12C26.2353 44.18 26.2753 44.26 26.2753 44.36V47.27ZM36.6996 65C36.4796 65 36.3396 64.9 36.2796 64.7L33.9696 56.42C33.9296 56.34 33.8796 56.3 33.8196 56.3H32.7996C32.6996 56.3 32.6496 56.35 32.6496 56.45V64.64C32.6496 64.74 32.6096 64.83 32.5296 64.91C32.4696 64.97 32.3896 65 32.2896 65H28.7796C28.6796 65 28.5896 64.97 28.5096 64.91C28.4496 64.83 28.4196 64.74 28.4196 64.64V44.36C28.4196 44.26 28.4496 44.18 28.5096 44.12C28.5896 44.04 28.6796 44 28.7796 44H34.8396C35.9396 44 36.9196 44.27 37.7796 44.81C38.6396 45.33 39.2996 46.07 39.7596 47.03C40.2396 47.99 40.4796 49.09 40.4796 50.33C40.4796 51.51 40.2496 52.55 39.7896 53.45C39.3496 54.35 38.7296 55.05 37.9296 55.55C37.8896 55.57 37.8596 55.6 37.8396 55.64C37.8196 55.66 37.8196 55.69 37.8396 55.73L40.5996 64.58L40.6296 64.7C40.6296 64.9 40.5196 65 40.2996 65H36.6996ZM32.7996 47.63C32.6996 47.63 32.6496 47.68 32.6496 47.78V52.91C32.6496 53.01 32.6996 53.06 32.7996 53.06H34.1496C34.7696 53.06 35.2696 52.82 35.6496 52.34C36.0496 51.84 36.2496 51.18 36.2496 50.36C36.2496 49.52 36.0496 48.86 35.6496 48.38C35.2696 47.88 34.7696 47.63 34.1496 47.63H32.7996Z" fill="black"/>
<path d="M48.0286 65.24C46.8686 65.24 45.8486 65.01 44.9686 64.55C44.0886 64.09 43.4086 63.45 42.9286 62.63C42.4486 61.79 42.2086 60.83 42.2086 59.75V58.88C42.2086 58.78 42.2386 58.7 42.2986 58.64C42.3786 58.56 42.4686 58.52 42.5686 58.52H46.0186C46.1186 58.52 46.1986 58.56 46.2586 58.64C46.3386 58.7 46.3786 58.78 46.3786 58.88V59.54C46.3786 60.16 46.5386 60.66 46.8586 61.04C47.1786 61.42 47.5786 61.61 48.0586 61.61C48.5386 61.61 48.9386 61.43 49.2586 61.07C49.5786 60.71 49.7386 60.24 49.7386 59.66C49.7386 59.06 49.5386 58.55 49.1386 58.13C48.7386 57.69 47.9586 57.05 46.7986 56.21C45.7986 55.49 44.9886 54.85 44.3686 54.29C43.7486 53.73 43.2186 53.04 42.7786 52.22C42.3386 51.4 42.1186 50.45 42.1186 49.37C42.1186 47.67 42.6486 46.31 43.7086 45.29C44.7686 44.27 46.1686 43.76 47.9086 43.76C49.6686 43.76 51.0786 44.29 52.1386 45.35C53.2186 46.41 53.7586 47.8 53.7586 49.52V50.24C53.7586 50.34 53.7186 50.43 53.6386 50.51C53.5786 50.57 53.4986 50.6 53.3986 50.6H49.9486C49.8486 50.6 49.7586 50.57 49.6786 50.51C49.6186 50.43 49.5886 50.34 49.5886 50.24V49.43C49.5886 48.81 49.4286 48.32 49.1086 47.96C48.8086 47.58 48.4086 47.39 47.9086 47.39C47.4286 47.39 47.0386 47.57 46.7386 47.93C46.4386 48.27 46.2886 48.75 46.2886 49.37C46.2886 49.97 46.4786 50.5 46.8586 50.96C47.2386 51.42 47.9886 52.06 49.1086 52.88C50.3486 53.8 51.2786 54.55 51.8986 55.13C52.5386 55.69 53.0286 56.32 53.3686 57.02C53.7286 57.7 53.9086 58.52 53.9086 59.48C53.9086 61.24 53.3686 62.64 52.2886 63.68C51.2086 64.72 49.7886 65.24 48.0286 65.24ZM56.3187 65C56.2187 65 56.1287 64.97 56.0487 64.91C55.9887 64.83 55.9587 64.74 55.9587 64.64V44.36C55.9587 44.26 55.9887 44.18 56.0487 44.12C56.1287 44.04 56.2187 44 56.3187 44H59.8287C59.9287 44 60.0087 44.04 60.0687 44.12C60.1487 44.18 60.1887 44.26 60.1887 44.36V64.64C60.1887 64.74 60.1487 64.83 60.0687 64.91C60.0087 64.97 59.9287 65 59.8287 65H56.3187ZM68.2727 65.24C67.1127 65.24 66.0927 65.01 65.2127 64.55C64.3327 64.09 63.6527 63.45 63.1727 62.63C62.6927 61.79 62.4527 60.83 62.4527 59.75V58.88C62.4527 58.78 62.4827 58.7 62.5427 58.64C62.6227 58.56 62.7127 58.52 62.8127 58.52H66.2627C66.3627 58.52 66.4427 58.56 66.5027 58.64C66.5827 58.7 66.6227 58.78 66.6227 58.88V59.54C66.6227 60.16 66.7827 60.66 67.1027 61.04C67.4227 61.42 67.8227 61.61 68.3027 61.61C68.7827 61.61 69.1827 61.43 69.5027 61.07C69.8227 60.71 69.9827 60.24 69.9827 59.66C69.9827 59.06 69.7827 58.55 69.3827 58.13C68.9827 57.69 68.2027 57.05 67.0427 56.21C66.0427 55.49 65.2327 54.85 64.6127 54.29C63.9927 53.73 63.4627 53.04 63.0227 52.22C62.5827 51.4 62.3627 50.45 62.3627 49.37C62.3627 47.67 62.8927 46.31 63.9527 45.29C65.0127 44.27 66.4127 43.76 68.1527 43.76C69.9127 43.76 71.3227 44.29 72.3827 45.35C73.4627 46.41 74.0027 47.8 74.0027 49.52V50.24C74.0027 50.34 73.9627 50.43 73.8827 50.51C73.8227 50.57 73.7427 50.6 73.6427 50.6H70.1927C70.0927 50.6 70.0027 50.57 69.9227 50.51C69.8627 50.43 69.8327 50.34 69.8327 50.24V49.43C69.8327 48.81 69.6727 48.32 69.3527 47.96C69.0527 47.58 68.6527 47.39 68.1527 47.39C67.6727 47.39 67.2827 47.57 66.9827 47.93C66.6827 48.27 66.5327 48.75 66.5327 49.37C66.5327 49.97 66.7227 50.5 67.1027 50.96C67.4827 51.42 68.2327 52.06 69.3527 52.88C70.5927 53.8 71.5227 54.55 72.1427 55.13C72.7827 55.69 73.2727 56.32 73.6127 57.02C73.9727 57.7 74.1527 58.52 74.1527 59.48C74.1527 61.24 73.6127 62.64 72.5327 63.68C71.4527 64.72 70.0327 65.24 68.2727 65.24ZM87.667 44C87.767 44 87.847 44.04 87.907 44.12C87.987 44.18 88.027 44.26 88.027 44.36V47.27C88.027 47.37 87.987 47.46 87.907 47.54C87.847 47.6 87.767 47.63 87.667 47.63H83.917C83.817 47.63 83.767 47.68 83.767 47.78V64.64C83.767 64.74 83.727 64.83 83.647 64.91C83.587 64.97 83.507 65 83.407 65H79.897C79.797 65 79.707 64.97 79.627 64.91C79.567 64.83 79.537 64.74 79.537 64.64V47.78C79.537 47.68 79.487 47.63 79.387 47.63H75.787C75.687 47.63 75.597 47.6 75.517 47.54C75.457 47.46 75.427 47.37 75.427 47.27V44.36C75.427 44.26 75.457 44.18 75.517 44.12C75.597 44.04 75.687 44 75.787 44H87.667Z" fill="#F05A31"/>
<circle cx="58" cy="38" r="3.75" fill="#1AE6D1" stroke="black" stroke-width="0.5"/>
<circle cx="38" cy="38" r="3.5" stroke="#FFD479"/>
<circle cx="58" cy="71" r="3.5" stroke="#EE220C"/>
<circle cx="58" cy="5" r="3.5" stroke="black"/>
<path d="M55 11L41.5 32" stroke="black" stroke-width="1.5" stroke-linecap="round" stroke-linejoin="round"/>
<path d="M58 77V98" stroke="black" stroke-width="1.5" stroke-linecap="round"/>
<path d="M58 11V32" stroke="black" stroke-width="1.5" stroke-linecap="round"/>
</g>
<defs>
<clipPath id="clip0_2_473">
<rect width="89" height="100" fill="white"/>
</clipPath>
</defs>
</svg>
